<svg width="320" height="320" viewBox="0 0 320 320" xmlns="http://www.w3.org/2000/svg" shape-rendering="crispEdges"><rect width="100%" height="100%" fill="#d5d7e1" /><rect width="140" height="10" x="90" y="210" fill="#807f7e" /><rect width="140" height="10" x="90" y="220" fill="#807f7e" /><rect width="140" height="10" x="90" y="230" fill="#807f7e" /><rect width="140" height="10" x="90" y="240" fill="#807f7e" /><rect width="20" height="10" x="90" y="250" fill="#807f7e" /><rect width="110" height="10" x="120" y="250" fill="#807f7e" /><rect width="20" height="10" x="90" y="260" fill="#807f7e" /><rect width="110" height="10" x="120" y="260" fill="#807f7e" /><rect width="20" height="10" x="90" y="270" fill="#807f7e" /><rect width="110" height="10" x="120" y="270" fill="#807f7e" /><rect width="20" height="10" x="90" y="280" fill="#807f7e" /><rect width="110" height="10" x="120" y="280" fill="#807f7e" /><rect width="20" height="10" x="90" y="290" fill="#807f7e" /><rect width="110" height="10" x="120" y="290" fill="#807f7e" /><rect width="20" height="10" x="90" y="300" fill="#807f7e" /><rect width="110" height="10" x="120" y="300" fill="#807f7e" /><rect width="20" height="10" x="90" y="310" fill="#807f7e" /><rect width="110" height="10" x="120" y="310" fill="#807f7e" /><rect width="10" height="10" x="120" y="240" fill="#235476" /><rect width="10" height="10" x="140" y="240" fill="#235476" /><rect width="10" height="10" x="160" y="240" fill="#235476" /><rect width="10" height="10" x="180" y="240" fill="#235476" /><rect width="10" height="10" x="200" y="240" fill="#235476" /><rect width="10" height="10" x="220" y="240" fill="#235476" /><rect width="10" height="10" x="130" y="250" fill="#235476" /><rect width="10" height="10" x="150" y="250" fill="#235476" /><rect width="10" height="10" x="170" y="250" fill="#235476" /><rect width="10" height="10" x="190" y="250" fill="#235476" /><rect width="10" height="10" x="210" y="250" fill="#235476" /><rect width="10" height="10" x="120" y="260" fill="#235476" /><rect width="10" height="10" x="140" y="260" fill="#235476" /><rect width="10" height="10" x="160" y="260" fill="#235476" /><rect width="10" height="10" x="180" y="260" fill="#235476" /><rect width="10" height="10" x="200" y="260" fill="#235476" /><rect width="10" height="10" x="220" y="260" fill="#235476" /><rect width="10" height="10" x="40" y="90" fill="#fff671" /><rect width="200" height="10" x="50" y="90" fill="#fccf25" /><rect width="30" height="10" x="30" y="100" fill="#fff671" /><rect width="200" height="10" x="60" y="100" fill="#fccf25" /><rect width="50" height="10" x="20" y="110" fill="#fff671" /><rect width="200" height="10" x="70" y="110" fill="#fccf25" /><rect width="20" height="10" x="20" y="120" fill="#fff671" /><rect width="10" height="10" x="40" y="120" fill="#ffffff" /><rect width="20" height="10" x="50" y="120" fill="#fff671" /><rect width="200" height="10" x="70" y="120" fill="#fccf25" /><rect width="10" height="10" x="20" y="130" fill="#fff671" /><rect width="30" height="10" x="30" y="130" fill="#ffffff" /><rect width="10" height="10" x="60" y="130" fill="#fff671" /><rect width="200" height="10" x="70" y="130" fill="#fccf25" /><rect width="10" height="10" x="20" y="140" fill="#fff671" /><rect width="30" height="10" x="30" y="140" fill="#ffffff" /><rect width="10" height="10" x="60" y="140" fill="#fff671" /><rect width="200" height="10" x="70" y="140" fill="#fccf25" /><rect width="10" height="10" x="20" y="150" fill="#fff671" /><rect width="30" height="10" x="30" y="150" fill="#ffffff" /><rect width="10" height="10" x="60" y="150" fill="#fff671" /><rect width="200" height="10" x="70" y="150" fill="#fccf25" /><rect width="10" height="10" x="20" y="160" fill="#fff671" /><rect width="30" height="10" x="30" y="160" fill="#ffffff" /><rect width="10" height="10" x="60" y="160" fill="#fff671" /><rect width="200" height="10" x="70" y="160" fill="#fccf25" /><rect width="20" height="10" x="20" y="170" fill="#fff671" /><rect width="10" height="10" x="40" y="170" fill="#ffffff" /><rect width="20" height="10" x="50" y="170" fill="#fff671" /><rect width="200" height="10" x="70" y="170" fill="#fccf25" /><rect width="50" height="10" x="20" y="180" fill="#fff671" /><rect width="140" height="10" x="70" y="180" fill="#fccf25" /><rect width="20" height="10" x="210" y="180" fill="#b19e00" /><rect width="40" height="10" x="230" y="180" fill="#fccf25" /><rect width="30" height="10" x="30" y="190" fill="#fff671" /><rect width="130" height="10" x="60" y="190" fill="#fccf25" /><rect width="30" height="10" x="190" y="190" fill="#b19e00" /><rect width="40" height="10" x="220" y="190" fill="#fccf25" /><rect width="10" height="10" x="40" y="200" fill="#fff671" /><rect width="200" height="10" x="50" y="200" fill="#fccf25" /><rect width="60" height="10" x="100" y="110" fill="#2b83f6" /><rect width="60" height="10" x="170" y="110" fill="#2b83f6" /><rect width="10" height="10" x="100" y="120" fill="#2b83f6" /><rect width="20" height="10" x="110" y="120" fill="#ffffff" /><rect width="20" height="10" x="130" y="120" fill="#000000" /><rect width="10" height="10" x="150" y="120" fill="#2b83f6" /><rect width="10" height="10" x="170" y="120" fill="#2b83f6" /><rect width="20" height="10" x="180" y="120" fill="#ffffff" /><rect width="20" height="10" x="200" y="120" fill="#000000" /><rect width="10" height="10" x="220" y="120" fill="#2b83f6" /><rect width="40" height="10" x="70" y="130" fill="#2b83f6" /><rect width="20" height="10" x="110" y="130" fill="#ffffff" /><rect width="20" height="10" x="130" y="130" fill="#000000" /><rect width="30" height="10" x="150" y="130" fill="#2b83f6" /><rect width="20" height="10" x="180" y="130" fill="#ffffff" /><rect width="20" height="10" x="200" y="130" fill="#000000" /><rect width="10" height="10" x="220" y="130" fill="#2b83f6" /><rect width="10" height="10" x="70" y="140" fill="#2b83f6" /><rect width="10" height="10" x="100" y="140" fill="#2b83f6" /><rect width="20" height="10" x="110" y="140" fill="#ffffff" /><rect width="20" height="10" x="130" y="140" fill="#000000" /><rect width="10" height="10" x="150" y="140" fill="#2b83f6" /><rect width="10" height="10" x="170" y="140" fill="#2b83f6" /><rect width="20" height="10" x="180" y="140" fill="#ffffff" /><rect width="20" height="10" x="200" y="140" fill="#000000" /><rect width="10" height="10" x="220" y="140" fill="#2b83f6" /><rect width="10" height="10" x="70" y="150" fill="#2b83f6" /><rect width="10" height="10" x="100" y="150" fill="#2b83f6" /><rect width="20" height="10" x="110" y="150" fill="#ffffff" /><rect width="20" height="10" x="130" y="150" fill="#000000" /><rect width="10" height="10" x="150" y="150" fill="#2b83f6" /><rect width="10" height="10" x="170" y="150" fill="#2b83f6" /><rect width="20" height="10" x="180" y="150" fill="#ffffff" /><rect width="20" height="10" x="200" y="150" fill="#000000" /><rect width="10" height="10" x="220" y="150" fill="#2b83f6" /><rect width="60" height="10" x="100" y="160" fill="#2b83f6" /><rect width="60" height="10" x="170" y="160" fill="#2b83f6" /></svg>