<svg width="320" height="320" viewBox="0 0 320 320" xmlns="http://www.w3.org/2000/svg" shape-rendering="crispEdges"><rect width="100%" height="100%" fill="#e1d7d5" /><rect width="140" height="10" x="90" y="210" fill="#80a72d" /><rect width="140" height="10" x="90" y="220" fill="#80a72d" /><rect width="140" height="10" x="90" y="230" fill="#80a72d" /><rect width="140" height="10" x="90" y="240" fill="#80a72d" /><rect width="20" height="10" x="90" y="250" fill="#80a72d" /><rect width="110" height="10" x="120" y="250" fill="#80a72d" /><rect width="20" height="10" x="90" y="260" fill="#80a72d" /><rect width="110" height="10" x="120" y="260" fill="#80a72d" /><rect width="20" height="10" x="90" y="270" fill="#80a72d" /><rect width="110" height="10" x="120" y="270" fill="#80a72d" /><rect width="20" height="10" x="90" y="280" fill="#80a72d" /><rect width="110" height="10" x="120" y="280" fill="#80a72d" /><rect width="20" height="10" x="90" y="290" fill="#80a72d" /><rect width="110" height="10" x="120" y="290" fill="#80a72d" /><rect width="20" height="10" x="90" y="300" fill="#80a72d" /><rect width="110" height="10" x="120" y="300" fill="#80a72d" /><rect width="20" height="10" x="90" y="310" fill="#80a72d" /><rect width="110" height="10" x="120" y="310" fill="#80a72d" /><rect width="10" height="10" x="100" y="210" fill="#eff2fa" /><rect width="10" height="10" x="130" y="210" fill="#eff2fa" /><rect width="10" height="10" x="160" y="210" fill="#eff2fa" /><rect width="10" height="10" x="190" y="210" fill="#eff2fa" /><rect width="10" height="10" x="220" y="210" fill="#eff2fa" /><rect width="20" height="10" x="110" y="220" fill="#eff2fa" /><rect width="20" height="10" x="170" y="220" fill="#eff2fa" /><rect width="10" height="10" x="100" y="230" fill="#eff2fa" /><rect width="10" height="10" x="130" y="230" fill="#eff2fa" /><rect width="10" height="10" x="160" y="230" fill="#eff2fa" /><rect width="10" height="10" x="190" y="230" fill="#eff2fa" /><rect width="10" height="10" x="220" y="230" fill="#eff2fa" /><rect width="10" height="10" x="100" y="240" fill="#eff2fa" /><rect width="10" height="10" x="130" y="240" fill="#eff2fa" /><rect width="10" height="10" x="160" y="240" fill="#eff2fa" /><rect width="10" height="10" x="190" y="240" fill="#eff2fa" /><rect width="10" height="10" x="220" y="240" fill="#eff2fa" /><rect width="10" height="10" x="100" y="250" fill="#eff2fa" /><rect width="10" height="10" x="130" y="250" fill="#eff2fa" /><rect width="10" height="10" x="160" y="250" fill="#eff2fa" /><rect width="10" height="10" x="190" y="250" fill="#eff2fa" /><rect width="10" height="10" x="220" y="250" fill="#eff2fa" /><rect width="10" height="10" x="90" y="260" fill="#eff2fa" /><rect width="20" height="10" x="140" y="260" fill="#eff2fa" /><rect width="20" height="10" x="200" y="260" fill="#eff2fa" /><rect width="10" height="10" x="100" y="270" fill="#eff2fa" /><rect width="10" height="10" x="130" y="270" fill="#eff2fa" /><rect width="10" height="10" x="160" y="270" fill="#eff2fa" /><rect width="10" height="10" x="190" y="270" fill="#eff2fa" /><rect width="10" height="10" x="220" y="270" fill="#eff2fa" /><rect width="10" height="10" x="100" y="280" fill="#eff2fa" /><rect width="10" height="10" x="130" y="280" fill="#eff2fa" /><rect width="10" height="10" x="160" y="280" fill="#eff2fa" /><rect width="10" height="10" x="190" y="280" fill="#eff2fa" /><rect width="10" height="10" x="220" y="280" fill="#eff2fa" /><rect width="10" height="10" x="100" y="290" fill="#eff2fa" /><rect width="10" height="10" x="130" y="290" fill="#eff2fa" /><rect width="10" height="10" x="160" y="290" fill="#eff2fa" /><rect width="10" height="10" x="190" y="290" fill="#eff2fa" /><rect width="10" height="10" x="220" y="290" fill="#eff2fa" /><rect width="10" height="10" x="120" y="300" fill="#eff2fa" /><rect width="20" height="10" x="170" y="300" fill="#eff2fa" /><rect width="10" height="10" x="100" y="310" fill="#eff2fa" /><rect width="10" height="10" x="130" y="310" fill="#eff2fa" /><rect width="10" height="10" x="160" y="310" fill="#eff2fa" /><rect width="10" height="10" x="190" y="310" fill="#eff2fa" /><rect width="10" height="10" x="220" y="310" fill="#eff2fa" /><rect width="30" height="10" x="80" y="50" fill="#eedc00" /><rect width="10" height="10" x="110" y="50" fill="#fff449" /><rect width="30" height="10" x="120" y="50" fill="#eedc00" /><rect width="30" height="10" x="150" y="50" fill="#2b2834" /><rect width="10" height="10" x="180" y="50" fill="#eedc00" /><rect width="10" height="10" x="190" y="50" fill="#fff449" /><rect width="30" height="10" x="200" y="50" fill="#eedc00" /><rect width="10" height="10" x="230" y="50" fill="#fff449" /><rect width="20" height="10" x="240" y="50" fill="#eedc00" /><rect width="30" height="10" x="60" y="60" fill="#eedc00" /><rect width="10" height="10" x="90" y="60" fill="#fff449" /><rect width="30" height="10" x="100" y="60" fill="#eedc00" /><rect width="10" height="10" x="130" y="60" fill="#fff449" /><rect width="10" height="10" x="140" y="60" fill="#eedc00" /><rect width="30" height="10" x="150" y="60" fill="#2b2834" /><rect width="30" height="10" x="180" y="60" fill="#eedc00" /><rect width="10" height="10" x="210" y="60" fill="#fff449" /><rect width="30" height="10" x="220" y="60" fill="#eedc00" /><rect width="10" height="10" x="250" y="60" fill="#fff449" /><rect width="20" height="10" x="260" y="60" fill="#eedc00" /><rect width="30" height="10" x="40" y="70" fill="#eedc00" /><rect width="10" height="10" x="70" y="70" fill="#fff449" /><rect width="30" height="10" x="80" y="70" fill="#eedc00" /><rect width="10" height="10" x="110" y="70" fill="#fff449" /><rect width="30" height="10" x="120" y="70" fill="#eedc00" /><rect width="30" height="10" x="150" y="70" fill="#2b2834" /><rect width="10" height="10" x="180" y="70" fill="#eedc00" /><rect width="10" height="10" x="190" y="70" fill="#fff449" /><rect width="30" height="10" x="200" y="70" fill="#eedc00" /><rect width="10" height="10" x="230" y="70" fill="#fff449" /><rect width="30" height="10" x="240" y="70" fill="#eedc00" /><rect width="10" height="10" x="270" y="70" fill="#fff449" /><rect width="10" height="10" x="280" y="70" fill="#eedc00" /><rect width="120" height="10" x="30" y="80" fill="#eedc00" /><rect width="30" height="10" x="150" y="80" fill="#2b2834" /><rect width="110" height="10" x="180" y="80" fill="#eedc00" /><rect width="130" height="10" x="20" y="90" fill="#eedc00" /><rect width="30" height="10" x="150" y="90" fill="#2b2834" /><rect width="110" height="10" x="180" y="90" fill="#eedc00" /><rect width="40" height="10" x="30" y="100" fill="#eedc00" /><rect width="10" height="10" x="70" y="100" fill="#ffffff" /><rect width="10" height="10" x="80" y="100" fill="#eedc00" /><rect width="10" height="10" x="90" y="100" fill="#ffffff" /><rect width="10" height="10" x="100" y="100" fill="#eedc00" /><rect width="10" height="10" x="110" y="100" fill="#ffffff" /><rect width="10" height="10" x="120" y="100" fill="#eedc00" /><rect width="10" height="10" x="130" y="100" fill="#ffffff" /><rect width="10" height="10" x="140" y="100" fill="#eedc00" /><rect width="30" height="10" x="150" y="100" fill="#2b2834" /><rect width="10" height="10" x="180" y="100" fill="#eedc00" /><rect width="10" height="10" x="190" y="100" fill="#ffffff" /><rect width="10" height="10" x="200" y="100" fill="#eedc00" /><rect width="10" height="10" x="210" y="100" fill="#ffffff" /><rect width="10" height="10" x="220" y="100" fill="#eedc00" /><rect width="10" height="10" x="230" y="100" fill="#ffffff" /><rect width="10" height="10" x="240" y="100" fill="#eedc00" /><rect width="10" height="10" x="250" y="100" fill="#ffffff" /><rect width="10" height="10" x="260" y="100" fill="#eedc00" /><rect width="10" height="10" x="280" y="100" fill="#eedc00" /><rect width="10" height="10" x="30" y="110" fill="#eedc00" /><rect width="10" height="10" x="50" y="110" fill="#eedc00" /><rect width="90" height="10" x="60" y="110" fill="#ffffff" /><rect width="30" height="10" x="150" y="110" fill="#2b2834" /><rect width="90" height="10" x="180" y="110" fill="#ffffff" /><rect width="100" height="10" x="50" y="120" fill="#ffffff" /><rect width="30" height="10" x="150" y="120" fill="#2b2834" /><rect width="90" height="10" x="180" y="120" fill="#ffffff" /><rect width="90" height="10" x="60" y="130" fill="#ffffff" /><rect width="30" height="10" x="150" y="130" fill="#2b2834" /><rect width="80" height="10" x="180" y="130" fill="#ffffff" /><rect width="100" height="10" x="50" y="140" fill="#ffffff" /><rect width="30" height="10" x="150" y="140" fill="#2b2834" /><rect width="90" height="10" x="180" y="140" fill="#ffffff" /><rect width="100" height="10" x="50" y="150" fill="#ffffff" /><rect width="30" height="10" x="150" y="150" fill="#2b2834" /><rect width="90" height="10" x="180" y="150" fill="#ffffff" /><rect width="90" height="10" x="60" y="160" fill="#ffffff" /><rect width="30" height="10" x="150" y="160" fill="#2b2834" /><rect width="80" height="10" x="180" y="160" fill="#ffffff" /><rect width="100" height="10" x="50" y="170" fill="#ffffff" /><rect width="30" height="10" x="150" y="170" fill="#2b2834" /><rect width="90" height="10" x="180" y="170" fill="#ffffff" /><rect width="100" height="10" x="50" y="180" fill="#ffffff" /><rect width="30" height="10" x="150" y="180" fill="#dcd8d3" /><rect width="90" height="10" x="180" y="180" fill="#ffffff" /><rect width="90" height="10" x="60" y="190" fill="#ffffff" /><rect width="30" height="10" x="150" y="190" fill="#2b2834" /><rect width="80" height="10" x="180" y="190" fill="#ffffff" /><rect width="80" height="10" x="70" y="200" fill="#ffffff" /><rect width="30" height="10" x="150" y="200" fill="#2b2834" /><rect width="70" height="10" x="180" y="200" fill="#ffffff" /><rect width="60" height="10" x="100" y="110" fill="#ff638d" /><rect width="60" height="10" x="170" y="110" fill="#ff638d" /><rect width="10" height="10" x="100" y="120" fill="#ff638d" /><rect width="20" height="10" x="110" y="120" fill="#ffffff" /><rect width="20" height="10" x="130" y="120" fill="#000000" /><rect width="10" height="10" x="150" y="120" fill="#ff638d" /><rect width="10" height="10" x="170" y="120" fill="#ff638d" /><rect width="20" height="10" x="180" y="120" fill="#ffffff" /><rect width="20" height="10" x="200" y="120" fill="#000000" /><rect width="10" height="10" x="220" y="120" fill="#ff638d" /><rect width="40" height="10" x="70" y="130" fill="#ff638d" /><rect width="20" height="10" x="110" y="130" fill="#ffffff" /><rect width="20" height="10" x="130" y="130" fill="#000000" /><rect width="30" height="10" x="150" y="130" fill="#ff638d" /><rect width="20" height="10" x="180" y="130" fill="#ffffff" /><rect width="20" height="10" x="200" y="130" fill="#000000" /><rect width="10" height="10" x="220" y="130" fill="#ff638d" /><rect width="40" height="10" x="70" y="140" fill="#ff638d" /><rect width="20" height="10" x="110" y="140" fill="#ffffff" /><rect width="20" height="10" x="130" y="140" fill="#000000" /><rect width="30" height="10" x="150" y="140" fill="#ff638d" /><rect width="20" height="10" x="180" y="140" fill="#ffffff" /><rect width="20" height="10" x="200" y="140" fill="#000000" /><rect width="10" height="10" x="220" y="140" fill="#ff638d" /><rect width="10" height="10" x="70" y="150" fill="#ff638d" /><rect width="10" height="10" x="100" y="150" fill="#ff638d" /><rect width="20" height="10" x="110" y="150" fill="#ffffff" /><rect width="20" height="10" x="130" y="150" fill="#000000" /><rect width="10" height="10" x="150" y="150" fill="#ff638d" /><rect width="10" height="10" x="170" y="150" fill="#ff638d" /><rect width="20" height="10" x="180" y="150" fill="#ffffff" /><rect width="20" height="10" x="200" y="150" fill="#000000" /><rect width="10" height="10" x="220" y="150" fill="#ff638d" /><rect width="60" height="10" x="100" y="160" fill="#ff638d" /><rect width="60" height="10" x="170" y="160" fill="#ff638d" /></svg>