<svg width="320" height="320" viewBox="0 0 320 320" xmlns="http://www.w3.org/2000/svg" shape-rendering="crispEdges"><rect width="100%" height="100%" fill="#e1d7d5" /><rect width="140" height="10" x="90" y="210" fill="#fffdf2" /><rect width="140" height="10" x="90" y="220" fill="#fffdf2" /><rect width="140" height="10" x="90" y="230" fill="#fffdf2" /><rect width="140" height="10" x="90" y="240" fill="#fffdf2" /><rect width="20" height="10" x="90" y="250" fill="#fffdf2" /><rect width="110" height="10" x="120" y="250" fill="#fffdf2" /><rect width="20" height="10" x="90" y="260" fill="#fffdf2" /><rect width="110" height="10" x="120" y="260" fill="#fffdf2" /><rect width="20" height="10" x="90" y="270" fill="#fffdf2" /><rect width="110" height="10" x="120" y="270" fill="#fffdf2" /><rect width="20" height="10" x="90" y="280" fill="#fffdf2" /><rect width="110" height="10" x="120" y="280" fill="#fffdf2" /><rect width="20" height="10" x="90" y="290" fill="#fffdf2" /><rect width="110" height="10" x="120" y="290" fill="#fffdf2" /><rect width="20" height="10" x="90" y="300" fill="#fffdf2" /><rect width="110" height="10" x="120" y="300" fill="#fffdf2" /><rect width="20" height="10" x="90" y="310" fill="#fffdf2" /><rect width="110" height="10" x="120" y="310" fill="#fffdf2" /><rect width="30" height="10" x="160" y="240" fill="#ffffff" /><rect width="30" height="10" x="160" y="250" fill="#ffffff" /><rect width="30" height="10" x="160" y="260" fill="#0079fc" /><rect width="50" height="10" x="150" y="270" fill="#0079fc" /><rect width="70" height="10" x="140" y="280" fill="#0079fc" /><rect width="70" height="10" x="140" y="290" fill="#0079fc" /><rect width="90" height="10" x="130" y="300" fill="#0079fc" /><rect width="20" height="10" x="80" y="50" fill="#f86100" /><rect width="20" height="10" x="110" y="50" fill="#f86100" /><rect width="20" height="10" x="140" y="50" fill="#f86100" /><rect width="20" height="10" x="170" y="50" fill="#f86100" /><rect width="20" height="10" x="200" y="50" fill="#f86100" /><rect width="20" height="10" x="230" y="50" fill="#f86100" /><rect width="20" height="10" x="60" y="60" fill="#f86100" /><rect width="20" height="10" x="80" y="60" fill="#ffffff" /><rect width="10" height="10" x="100" y="60" fill="#f86100" /><rect width="20" height="10" x="110" y="60" fill="#ffffff" /><rect width="10" height="10" x="130" y="60" fill="#f86100" /><rect width="20" height="10" x="140" y="60" fill="#ffffff" /><rect width="10" height="10" x="160" y="60" fill="#f86100" /><rect width="20" height="10" x="170" y="60" fill="#ffffff" /><rect width="10" height="10" x="190" y="60" fill="#f86100" /><rect width="20" height="10" x="200" y="60" fill="#ffffff" /><rect width="10" height="10" x="220" y="60" fill="#f86100" /><rect width="20" height="10" x="230" y="60" fill="#ffffff" /><rect width="10" height="10" x="250" y="60" fill="#f86100" /><rect width="10" height="10" x="50" y="70" fill="#f86100" /><rect width="200" height="10" x="60" y="70" fill="#ffffff" /><rect width="10" height="10" x="260" y="70" fill="#f86100" /><rect width="10" height="10" x="40" y="80" fill="#f86100" /><rect width="20" height="10" x="50" y="80" fill="#ffffff" /><rect width="10" height="10" x="70" y="80" fill="#f86100" /><rect width="80" height="10" x="80" y="80" fill="#ffffff" /><rect width="10" height="10" x="160" y="80" fill="#f86100" /><rect width="10" height="10" x="170" y="80" fill="#ffffff" /><rect width="10" height="10" x="180" y="80" fill="#f86100" /><rect width="50" height="10" x="190" y="80" fill="#ffffff" /><rect width="10" height="10" x="240" y="80" fill="#f86100" /><rect width="20" height="10" x="250" y="80" fill="#ffffff" /><rect width="10" height="10" x="270" y="80" fill="#f86100" /><rect width="10" height="10" x="40" y="90" fill="#f86100" /><rect width="70" height="10" x="50" y="90" fill="#ffffff" /><rect width="90" height="10" x="120" y="90" fill="#2b2834" /><rect width="60" height="10" x="210" y="90" fill="#ffffff" /><rect width="10" height="10" x="270" y="90" fill="#f86100" /><rect width="10" height="10" x="50" y="100" fill="#f86100" /><rect width="20" height="10" x="60" y="100" fill="#ffffff" /><rect width="10" height="10" x="80" y="100" fill="#f86100" /><rect width="20" height="10" x="90" y="100" fill="#ffffff" /><rect width="10" height="10" x="110" y="100" fill="#2b2834" /><rect width="30" height="10" x="120" y="100" fill="#3f9323" /><rect width="40" height="10" x="150" y="100" fill="#fbc800" /><rect width="20" height="10" x="190" y="100" fill="#f86100" /><rect width="10" height="10" x="210" y="100" fill="#2b2834" /><rect width="10" height="10" x="220" y="100" fill="#ffffff" /><rect width="10" height="10" x="230" y="100" fill="#f86100" /><rect width="20" height="10" x="240" y="100" fill="#ffffff" /><rect width="10" height="10" x="260" y="100" fill="#f86100" /><rect width="10" height="10" x="40" y="110" fill="#f86100" /><rect width="50" height="10" x="50" y="110" fill="#ffffff" /><rect width="10" height="10" x="100" y="110" fill="#2b2834" /><rect width="20" height="10" x="110" y="110" fill="#3f9323" /><rect width="20" height="10" x="130" y="110" fill="#fff671" /><rect width="40" height="10" x="150" y="110" fill="#fbc800" /><rect width="20" height="10" x="190" y="110" fill="#f86100" /><rect width="10" height="10" x="210" y="110" fill="#2b2834" /><rect width="50" height="10" x="220" y="110" fill="#ffffff" /><rect width="10" height="10" x="270" y="110" fill="#f86100" /><rect width="10" height="10" x="40" y="120" fill="#f86100" /><rect width="50" height="10" x="50" y="120" fill="#ffffff" /><rect width="10" height="10" x="100" y="120" fill="#2b2834" /><rect width="20" height="10" x="110" y="120" fill="#3f9323" /><rect width="20" height="10" x="130" y="120" fill="#fff671" /><rect width="40" height="10" x="150" y="120" fill="#fbc800" /><rect width="20" height="10" x="190" y="120" fill="#f86100" /><rect width="10" height="10" x="210" y="120" fill="#f89865" /><rect width="10" height="10" x="220" y="120" fill="#2b2834" /><rect width="40" height="10" x="230" y="120" fill="#ffffff" /><rect width="10" height="10" x="270" y="120" fill="#f86100" /><rect width="10" height="10" x="50" y="130" fill="#f86100" /><rect width="40" height="10" x="60" y="130" fill="#ffffff" /><rect width="10" height="10" x="100" y="130" fill="#2b2834" /><rect width="20" height="10" x="110" y="130" fill="#3f9323" /><rect width="20" height="10" x="130" y="130" fill="#fff671" /><rect width="40" height="10" x="150" y="130" fill="#fbc800" /><rect width="20" height="10" x="190" y="130" fill="#f86100" /><rect width="10" height="10" x="210" y="130" fill="#f89865" /><rect width="10" height="10" x="220" y="130" fill="#2b2834" /><rect width="30" height="10" x="230" y="130" fill="#ffffff" /><rect width="10" height="10" x="260" y="130" fill="#f86100" /><rect width="10" height="10" x="40" y="140" fill="#f86100" /><rect width="50" height="10" x="50" y="140" fill="#ffffff" /><rect width="10" height="10" x="100" y="140" fill="#2b2834" /><rect width="10" height="10" x="110" y="140" fill="#018146" /><rect width="30" height="10" x="120" y="140" fill="#70e890" /><rect width="10" height="10" x="150" y="140" fill="#df2c39" /><rect width="30" height="10" x="160" y="140" fill="#fee3f3" /><rect width="20" height="10" x="190" y="140" fill="#f86100" /><rect width="10" height="10" x="210" y="140" fill="#f89865" /><rect width="10" height="10" x="220" y="140" fill="#2b2834" /><rect width="40" height="10" x="230" y="140" fill="#ffffff" /><rect width="10" height="10" x="270" y="140" fill="#f86100" /><rect width="10" height="10" x="40" y="150" fill="#f86100" /><rect width="50" height="10" x="50" y="150" fill="#ffffff" /><rect width="10" height="10" x="100" y="150" fill="#2b2834" /><rect width="10" height="10" x="110" y="150" fill="#018146" /><rect width="30" height="10" x="120" y="150" fill="#70e890" /><rect width="10" height="10" x="150" y="150" fill="#df2c39" /><rect width="30" height="10" x="160" y="150" fill="#fee3f3" /><rect width="20" height="10" x="190" y="150" fill="#fff671" /><rect width="20" height="10" x="210" y="150" fill="#3f9323" /><rect width="10" height="10" x="230" y="150" fill="#2b2834" /><rect width="30" height="10" x="240" y="150" fill="#ffffff" /><rect width="10" height="10" x="270" y="150" fill="#f86100" /><rect width="10" height="10" x="50" y="160" fill="#f86100" /><rect width="40" height="10" x="60" y="160" fill="#ffffff" /><rect width="10" height="10" x="100" y="160" fill="#2b2834" /><rect width="10" height="10" x="110" y="160" fill="#018146" /><rect width="30" height="10" x="120" y="160" fill="#70e890" /><rect width="10" height="10" x="150" y="160" fill="#df2c39" /><rect width="30" height="10" x="160" y="160" fill="#fee3f3" /><rect width="20" height="10" x="190" y="160" fill="#fff671" /><rect width="20" height="10" x="210" y="160" fill="#3f9323" /><rect width="10" height="10" x="230" y="160" fill="#2b2834" /><rect width="20" height="10" x="240" y="160" fill="#ffffff" /><rect width="10" height="10" x="260" y="160" fill="#f86100" /><rect width="10" height="10" x="40" y="170" fill="#f86100" /><rect width="60" height="10" x="50" y="170" fill="#ffffff" /><rect width="10" height="10" x="110" y="170" fill="#2b2834" /><rect width="30" height="10" x="120" y="170" fill="#018146" /><rect width="10" height="10" x="150" y="170" fill="#df2c39" /><rect width="30" height="10" x="160" y="170" fill="#fee3f3" /><rect width="20" height="10" x="190" y="170" fill="#fff671" /><rect width="20" height="10" x="210" y="170" fill="#3f9323" /><rect width="10" height="10" x="230" y="170" fill="#2b2834" /><rect width="30" height="10" x="240" y="170" fill="#ffffff" /><rect width="10" height="10" x="270" y="170" fill="#f86100" /><rect width="10" height="10" x="40" y="180" fill="#f86100" /><rect width="60" height="10" x="50" y="180" fill="#ffffff" /><rect width="120" height="10" x="110" y="180" fill="#2b2834" /><rect width="40" height="10" x="230" y="180" fill="#ffffff" /><rect width="10" height="10" x="270" y="180" fill="#f86100" /><rect width="10" height="10" x="50" y="190" fill="#f86100" /><rect width="200" height="10" x="60" y="190" fill="#ffffff" /><rect width="10" height="10" x="260" y="190" fill="#f86100" /><rect width="10" height="10" x="60" y="200" fill="#f86100" /><rect width="180" height="10" x="70" y="200" fill="#ffffff" /><rect width="10" height="10" x="250" y="200" fill="#f86100" /><rect width="60" height="10" x="100" y="110" fill="#fe500c" /><rect width="60" height="10" x="170" y="110" fill="#fe500c" /><rect width="10" height="10" x="100" y="120" fill="#fe500c" /><rect width="20" height="10" x="110" y="120" fill="#ffffff" /><rect width="20" height="10" x="130" y="120" fill="#000000" /><rect width="10" height="10" x="150" y="120" fill="#fe500c" /><rect width="10" height="10" x="170" y="120" fill="#fe500c" /><rect width="20" height="10" x="180" y="120" fill="#ffffff" /><rect width="20" height="10" x="200" y="120" fill="#000000" /><rect width="10" height="10" x="220" y="120" fill="#fe500c" /><rect width="40" height="10" x="70" y="130" fill="#fe500c" /><rect width="20" height="10" x="110" y="130" fill="#ffffff" /><rect width="20" height="10" x="130" y="130" fill="#000000" /><rect width="30" height="10" x="150" y="130" fill="#fe500c" /><rect width="20" height="10" x="180" y="130" fill="#ffffff" /><rect width="20" height="10" x="200" y="130" fill="#000000" /><rect width="10" height="10" x="220" y="130" fill="#fe500c" /><rect width="10" height="10" x="70" y="140" fill="#fe500c" /><rect width="10" height="10" x="100" y="140" fill="#fe500c" /><rect width="20" height="10" x="110" y="140" fill="#ffffff" /><rect width="20" height="10" x="130" y="140" fill="#000000" /><rect width="10" height="10" x="150" y="140" fill="#fe500c" /><rect width="10" height="10" x="170" y="140" fill="#fe500c" /><rect width="20" height="10" x="180" y="140" fill="#ffffff" /><rect width="20" height="10" x="200" y="140" fill="#000000" /><rect width="10" height="10" x="220" y="140" fill="#fe500c" /><rect width="10" height="10" x="70" y="150" fill="#fe500c" /><rect width="10" height="10" x="100" y="150" fill="#fe500c" /><rect width="20" height="10" x="110" y="150" fill="#ffffff" /><rect width="20" height="10" x="130" y="150" fill="#000000" /><rect width="10" height="10" x="150" y="150" fill="#fe500c" /><rect width="10" height="10" x="170" y="150" fill="#fe500c" /><rect width="20" height="10" x="180" y="150" fill="#ffffff" /><rect width="20" height="10" x="200" y="150" fill="#000000" /><rect width="10" height="10" x="220" y="150" fill="#fe500c" /><rect width="60" height="10" x="100" y="160" fill="#fe500c" /><rect width="60" height="10" x="170" y="160" fill="#fe500c" /></svg>