<svg width="320" height="320" viewBox="0 0 320 320" xmlns="http://www.w3.org/2000/svg" shape-rendering="crispEdges"><rect width="100%" height="100%" fill="#d5d7e1" /><rect width="140" height="10" x="90" y="210" fill="#5648ed" /><rect width="140" height="10" x="90" y="220" fill="#5648ed" /><rect width="140" height="10" x="90" y="230" fill="#5648ed" /><rect width="140" height="10" x="90" y="240" fill="#5648ed" /><rect width="20" height="10" x="90" y="250" fill="#5648ed" /><rect width="110" height="10" x="120" y="250" fill="#5648ed" /><rect width="20" height="10" x="90" y="260" fill="#5648ed" /><rect width="110" height="10" x="120" y="260" fill="#5648ed" /><rect width="20" height="10" x="90" y="270" fill="#5648ed" /><rect width="110" height="10" x="120" y="270" fill="#5648ed" /><rect width="20" height="10" x="90" y="280" fill="#5648ed" /><rect width="110" height="10" x="120" y="280" fill="#5648ed" /><rect width="20" height="10" x="90" y="290" fill="#5648ed" /><rect width="110" height="10" x="120" y="290" fill="#5648ed" /><rect width="20" height="10" x="90" y="300" fill="#5648ed" /><rect width="110" height="10" x="120" y="300" fill="#5648ed" /><rect width="20" height="10" x="90" y="310" fill="#5648ed" /><rect width="110" height="10" x="120" y="310" fill="#5648ed" /><rect width="60" height="10" x="130" y="230" fill="#00499c" /><rect width="20" height="10" x="160" y="240" fill="#00499c" /><rect width="10" height="10" x="190" y="240" fill="#00499c" /><rect width="40" height="10" x="150" y="250" fill="#00499c" /><rect width="10" height="10" x="140" y="260" fill="#00499c" /><rect width="10" height="10" x="160" y="260" fill="#00499c" /><rect width="40" height="10" x="150" y="270" fill="#00499c" /><rect width="10" height="10" x="200" y="270" fill="#00499c" /><rect width="50" height="10" x="70" y="50" fill="#f8d689" /><rect width="10" height="10" x="120" y="50" fill="#903707" /><rect width="10" height="10" x="130" y="50" fill="#fff0be" /><rect width="10" height="10" x="140" y="50" fill="#903707" /><rect width="10" height="10" x="150" y="50" fill="#fff0be" /><rect width="10" height="10" x="160" y="50" fill="#903707" /><rect width="10" height="10" x="170" y="50" fill="#fff0be" /><rect width="70" height="10" x="180" y="50" fill="#f8d689" /><rect width="30" height="10" x="50" y="60" fill="#f8d689" /><rect width="70" height="10" x="80" y="60" fill="#f8ce47" /><rect width="10" height="10" x="150" y="60" fill="#552d1d" /><rect width="10" height="10" x="160" y="60" fill="#fff0be" /><rect width="10" height="10" x="170" y="60" fill="#552d1d" /><rect width="10" height="10" x="180" y="60" fill="#fff0be" /><rect width="10" height="10" x="190" y="60" fill="#552d1d" /><rect width="40" height="10" x="200" y="60" fill="#f8ce47" /><rect width="30" height="10" x="240" y="60" fill="#f8d689" /><rect width="20" height="10" x="40" y="70" fill="#f8d689" /><rect width="20" height="10" x="60" y="70" fill="#f8ce47" /><rect width="160" height="10" x="80" y="70" fill="#f8d689" /><rect width="20" height="10" x="240" y="70" fill="#f8ce47" /><rect width="20" height="10" x="260" y="70" fill="#f8d689" /><rect width="20" height="10" x="30" y="80" fill="#f8d689" /><rect width="10" height="10" x="50" y="80" fill="#f8ce47" /><rect width="200" height="10" x="60" y="80" fill="#f8d689" /><rect width="10" height="10" x="260" y="80" fill="#f8ce47" /><rect width="20" height="10" x="270" y="80" fill="#f8d689" /><rect width="10" height="10" x="30" y="90" fill="#f8d689" /><rect width="10" height="10" x="40" y="90" fill="#f8ce47" /><rect width="50" height="10" x="50" y="90" fill="#f8d689" /><rect width="120" height="10" x="100" y="90" fill="#ffffff" /><rect width="50" height="10" x="220" y="90" fill="#f8d689" /><rect width="10" height="10" x="270" y="90" fill="#f8ce47" /><rect width="20" height="10" x="280" y="90" fill="#f8d689" /><rect width="10" height="10" x="20" y="100" fill="#f8d689" /><rect width="10" height="10" x="30" y="100" fill="#f8ce47" /><rect width="30" height="10" x="40" y="100" fill="#f8d689" /><rect width="180" height="10" x="70" y="100" fill="#ffffff" /><rect width="30" height="10" x="250" y="100" fill="#f8d689" /><rect width="10" height="10" x="280" y="100" fill="#f8ce47" /><rect width="10" height="10" x="290" y="100" fill="#f8d689" /><rect width="10" height="10" x="20" y="110" fill="#f8d689" /><rect width="10" height="10" x="30" y="110" fill="#f8ce47" /><rect width="20" height="10" x="40" y="110" fill="#f8d689" /><rect width="200" height="10" x="60" y="110" fill="#ffffff" /><rect width="20" height="10" x="260" y="110" fill="#f8d689" /><rect width="10" height="10" x="280" y="110" fill="#f8ce47" /><rect width="10" height="10" x="290" y="110" fill="#f8d689" /><rect width="10" height="10" x="20" y="120" fill="#f8d689" /><rect width="10" height="10" x="30" y="120" fill="#f8ce47" /><rect width="20" height="10" x="40" y="120" fill="#f8d689" /><rect width="200" height="10" x="60" y="120" fill="#ffffff" /><rect width="20" height="10" x="260" y="120" fill="#f8d689" /><rect width="10" height="10" x="280" y="120" fill="#f8ce47" /><rect width="10" height="10" x="290" y="120" fill="#f8d689" /><rect width="10" height="10" x="20" y="130" fill="#f8d689" /><rect width="10" height="10" x="30" y="130" fill="#f8ce47" /><rect width="20" height="10" x="40" y="130" fill="#f8d689" /><rect width="200" height="10" x="60" y="130" fill="#ffffff" /><rect width="20" height="10" x="260" y="130" fill="#f8d689" /><rect width="10" height="10" x="280" y="130" fill="#f8ce47" /><rect width="10" height="10" x="290" y="130" fill="#f8d689" /><rect width="10" height="10" x="20" y="140" fill="#f8d689" /><rect width="10" height="10" x="30" y="140" fill="#f8ce47" /><rect width="20" height="10" x="40" y="140" fill="#f8d689" /><rect width="200" height="10" x="60" y="140" fill="#ffffff" /><rect width="20" height="10" x="260" y="140" fill="#f8d689" /><rect width="10" height="10" x="280" y="140" fill="#f8ce47" /><rect width="10" height="10" x="290" y="140" fill="#f8d689" /><rect width="10" height="10" x="20" y="150" fill="#f8d689" /><rect width="10" height="10" x="30" y="150" fill="#f8ce47" /><rect width="20" height="10" x="40" y="150" fill="#f8d689" /><rect width="200" height="10" x="60" y="150" fill="#ffffff" /><rect width="20" height="10" x="260" y="150" fill="#f8d689" /><rect width="10" height="10" x="280" y="150" fill="#f8ce47" /><rect width="10" height="10" x="290" y="150" fill="#f8d689" /><rect width="10" height="10" x="20" y="160" fill="#f8d689" /><rect width="10" height="10" x="30" y="160" fill="#f8ce47" /><rect width="20" height="10" x="40" y="160" fill="#f8d689" /><rect width="200" height="10" x="60" y="160" fill="#ffffff" /><rect width="20" height="10" x="260" y="160" fill="#f8d689" /><rect width="10" height="10" x="280" y="160" fill="#f8ce47" /><rect width="10" height="10" x="290" y="160" fill="#f8d689" /><rect width="10" height="10" x="20" y="170" fill="#f8d689" /><rect width="10" height="10" x="30" y="170" fill="#f8ce47" /><rect width="20" height="10" x="40" y="170" fill="#f8d689" /><rect width="200" height="10" x="60" y="170" fill="#ffffff" /><rect width="20" height="10" x="260" y="170" fill="#f8d689" /><rect width="10" height="10" x="280" y="170" fill="#f8ce47" /><rect width="10" height="10" x="290" y="170" fill="#f8d689" /><rect width="10" height="10" x="20" y="180" fill="#f8d689" /><rect width="10" height="10" x="30" y="180" fill="#f8ce47" /><rect width="20" height="10" x="40" y="180" fill="#f8d689" /><rect width="90" height="10" x="60" y="180" fill="#ffffff" /><rect width="40" height="10" x="150" y="180" fill="#dcd8d3" /><rect width="70" height="10" x="190" y="180" fill="#ffffff" /><rect width="20" height="10" x="260" y="180" fill="#f8d689" /><rect width="10" height="10" x="280" y="180" fill="#f8ce47" /><rect width="10" height="10" x="290" y="180" fill="#f8d689" /><rect width="10" height="10" x="20" y="190" fill="#f8d689" /><rect width="10" height="10" x="30" y="190" fill="#f8ce47" /><rect width="20" height="10" x="40" y="190" fill="#f8d689" /><rect width="100" height="10" x="60" y="190" fill="#ffffff" /><rect width="20" height="10" x="160" y="190" fill="#dcd8d3" /><rect width="80" height="10" x="180" y="190" fill="#ffffff" /><rect width="20" height="10" x="260" y="190" fill="#f8d689" /><rect width="10" height="10" x="280" y="190" fill="#f8ce47" /><rect width="10" height="10" x="290" y="190" fill="#f8d689" /><rect width="10" height="10" x="20" y="200" fill="#f8d689" /><rect width="10" height="10" x="30" y="200" fill="#f8ce47" /><rect width="20" height="10" x="40" y="200" fill="#f8d689" /><rect width="180" height="10" x="70" y="200" fill="#ffffff" /><rect width="20" height="10" x="260" y="200" fill="#f8d689" /><rect width="10" height="10" x="280" y="200" fill="#f8ce47" /><rect width="10" height="10" x="290" y="200" fill="#f8d689" /><rect width="10" height="10" x="20" y="210" fill="#f8d689" /><rect width="10" height="10" x="30" y="210" fill="#f8ce47" /><rect width="20" height="10" x="40" y="210" fill="#f8d689" /><rect width="10" height="10" x="270" y="210" fill="#f8d689" /><rect width="10" height="10" x="280" y="210" fill="#f8ce47" /><rect width="10" height="10" x="290" y="210" fill="#f8d689" /><rect width="10" height="10" x="10" y="220" fill="#f8d689" /><rect width="10" height="10" x="20" y="220" fill="#f8ce47" /><rect width="20" height="10" x="30" y="220" fill="#f8d689" /><rect width="10" height="10" x="280" y="220" fill="#f8d689" /><rect width="10" height="10" x="290" y="220" fill="#f8ce47" /><rect width="10" height="10" x="300" y="220" fill="#f8d689" /><rect width="60" height="10" x="100" y="110" fill="#000000" /><rect width="60" height="10" x="170" y="110" fill="#000000" /><rect width="30" height="10" x="100" y="120" fill="#000000" /><rect width="10" height="10" x="130" y="120" fill="#ff0e0e" /><rect width="20" height="10" x="140" y="120" fill="#000000" /><rect width="30" height="10" x="170" y="120" fill="#000000" /><rect width="10" height="10" x="200" y="120" fill="#ff0e0e" /><rect width="20" height="10" x="210" y="120" fill="#000000" /><rect width="160" height="10" x="70" y="130" fill="#000000" /><rect width="10" height="10" x="70" y="140" fill="#000000" /><rect width="10" height="10" x="100" y="140" fill="#000000" /><rect width="10" height="10" x="110" y="140" fill="#0adc4d" /><rect width="20" height="10" x="120" y="140" fill="#000000" /><rect width="10" height="10" x="140" y="140" fill="#1929f4" /><rect width="10" height="10" x="150" y="140" fill="#000000" /><rect width="10" height="10" x="170" y="140" fill="#000000" /><rect width="10" height="10" x="180" y="140" fill="#0adc4d" /><rect width="20" height="10" x="190" y="140" fill="#000000" /><rect width="10" height="10" x="210" y="140" fill="#1929f4" /><rect width="10" height="10" x="220" y="140" fill="#000000" /><rect width="10" height="10" x="70" y="150" fill="#000000" /><rect width="60" height="10" x="100" y="150" fill="#000000" /><rect width="60" height="10" x="170" y="150" fill="#000000" /><rect width="60" height="10" x="100" y="160" fill="#000000" /><rect width="60" height="10" x="170" y="160" fill="#000000" /></svg>