<svg width="320" height="320" viewBox="0 0 320 320" xmlns="http://www.w3.org/2000/svg" shape-rendering="crispEdges"><rect width="100%" height="100%" fill="#e1d7d5" /><rect width="140" height="10" x="90" y="210" fill="#343235" /><rect width="140" height="10" x="90" y="220" fill="#343235" /><rect width="140" height="10" x="90" y="230" fill="#343235" /><rect width="140" height="10" x="90" y="240" fill="#343235" /><rect width="20" height="10" x="90" y="250" fill="#343235" /><rect width="110" height="10" x="120" y="250" fill="#343235" /><rect width="20" height="10" x="90" y="260" fill="#343235" /><rect width="110" height="10" x="120" y="260" fill="#343235" /><rect width="20" height="10" x="90" y="270" fill="#343235" /><rect width="110" height="10" x="120" y="270" fill="#343235" /><rect width="20" height="10" x="90" y="280" fill="#343235" /><rect width="110" height="10" x="120" y="280" fill="#343235" /><rect width="20" height="10" x="90" y="290" fill="#343235" /><rect width="110" height="10" x="120" y="290" fill="#343235" /><rect width="20" height="10" x="90" y="300" fill="#343235" /><rect width="110" height="10" x="120" y="300" fill="#343235" /><rect width="20" height="10" x="90" y="310" fill="#343235" /><rect width="110" height="10" x="120" y="310" fill="#343235" /><rect width="10" height="10" x="120" y="210" fill="#ffc110" /><rect width="10" height="10" x="190" y="210" fill="#ffc110" /><rect width="10" height="10" x="130" y="220" fill="#ffc110" /><rect width="10" height="10" x="180" y="220" fill="#ffc110" /><rect width="10" height="10" x="140" y="230" fill="#ffc110" /><rect width="10" height="10" x="170" y="230" fill="#ffc110" /><rect width="20" height="10" x="150" y="240" fill="#ffc110" /><rect width="60" height="10" x="130" y="250" fill="#ffc110" /><rect width="10" height="10" x="140" y="260" fill="#ffc110" /><rect width="10" height="10" x="170" y="260" fill="#ffc110" /><rect width="20" height="10" x="80" y="50" fill="#f5fcff" /><rect width="10" height="10" x="100" y="50" fill="#b8ced2" /><rect width="10" height="10" x="110" y="50" fill="#eff2fa" /><rect width="20" height="10" x="120" y="50" fill="#b8ced2" /><rect width="10" height="10" x="140" y="50" fill="#4b4949" /><rect width="20" height="10" x="150" y="50" fill="#f5fcff" /><rect width="10" height="10" x="170" y="50" fill="#807f7e" /><rect width="10" height="10" x="180" y="50" fill="#f5fcff" /><rect width="10" height="10" x="190" y="50" fill="#4b4949" /><rect width="10" height="10" x="200" y="50" fill="#b8ced2" /><rect width="10" height="10" x="210" y="50" fill="#eff2fa" /><rect width="10" height="10" x="220" y="50" fill="#b8ced2" /><rect width="10" height="10" x="230" y="50" fill="#f5fcff" /><rect width="20" height="10" x="70" y="60" fill="#f5fcff" /><rect width="10" height="10" x="90" y="60" fill="#b8ced2" /><rect width="10" height="10" x="100" y="60" fill="#eff2fa" /><rect width="20" height="10" x="110" y="60" fill="#b8ced2" /><rect width="10" height="10" x="130" y="60" fill="#4b4949" /><rect width="30" height="10" x="140" y="60" fill="#f5fcff" /><rect width="10" height="10" x="170" y="60" fill="#807f7e" /><rect width="20" height="10" x="180" y="60" fill="#f5fcff" /><rect width="10" height="10" x="200" y="60" fill="#4b4949" /><rect width="10" height="10" x="210" y="60" fill="#b8ced2" /><rect width="10" height="10" x="220" y="60" fill="#eff2fa" /><rect width="10" height="10" x="230" y="60" fill="#b8ced2" /><rect width="10" height="10" x="240" y="60" fill="#f5fcff" /><rect width="30" height="10" x="60" y="70" fill="#f5fcff" /><rect width="10" height="10" x="90" y="70" fill="#b8ced2" /><rect width="10" height="10" x="100" y="70" fill="#eff2fa" /><rect width="20" height="10" x="110" y="70" fill="#b8ced2" /><rect width="10" height="10" x="130" y="70" fill="#4b4949" /><rect width="30" height="10" x="140" y="70" fill="#f5fcff" /><rect width="10" height="10" x="170" y="70" fill="#807f7e" /><rect width="20" height="10" x="180" y="70" fill="#f5fcff" /><rect width="10" height="10" x="200" y="70" fill="#4b4949" /><rect width="10" height="10" x="210" y="70" fill="#b8ced2" /><rect width="10" height="10" x="220" y="70" fill="#eff2fa" /><rect width="10" height="10" x="230" y="70" fill="#b8ced2" /><rect width="20" height="10" x="240" y="70" fill="#f5fcff" /><rect width="30" height="10" x="60" y="80" fill="#f5fcff" /><rect width="10" height="10" x="90" y="80" fill="#b8ced2" /><rect width="10" height="10" x="100" y="80" fill="#eff2fa" /><rect width="20" height="10" x="110" y="80" fill="#b8ced2" /><rect width="10" height="10" x="130" y="80" fill="#4b4949" /><rect width="30" height="10" x="140" y="80" fill="#f5fcff" /><rect width="10" height="10" x="170" y="80" fill="#807f7e" /><rect width="20" height="10" x="180" y="80" fill="#f5fcff" /><rect width="10" height="10" x="200" y="80" fill="#4b4949" /><rect width="10" height="10" x="210" y="80" fill="#b8ced2" /><rect width="10" height="10" x="220" y="80" fill="#eff2fa" /><rect width="10" height="10" x="230" y="80" fill="#b8ced2" /><rect width="20" height="10" x="240" y="80" fill="#f5fcff" /><rect width="30" height="10" x="60" y="90" fill="#f5fcff" /><rect width="10" height="10" x="90" y="90" fill="#b8ced2" /><rect width="10" height="10" x="100" y="90" fill="#eff2fa" /><rect width="20" height="10" x="110" y="90" fill="#b8ced2" /><rect width="10" height="10" x="130" y="90" fill="#4b4949" /><rect width="30" height="10" x="140" y="90" fill="#f5fcff" /><rect width="10" height="10" x="170" y="90" fill="#807f7e" /><rect width="20" height="10" x="180" y="90" fill="#f5fcff" /><rect width="10" height="10" x="200" y="90" fill="#4b4949" /><rect width="10" height="10" x="210" y="90" fill="#b8ced2" /><rect width="10" height="10" x="220" y="90" fill="#eff2fa" /><rect width="10" height="10" x="230" y="90" fill="#b8ced2" /><rect width="20" height="10" x="240" y="90" fill="#f5fcff" /><rect width="30" height="10" x="60" y="100" fill="#f5fcff" /><rect width="40" height="10" x="90" y="100" fill="#b8ced2" /><rect width="10" height="10" x="130" y="100" fill="#4b4949" /><rect width="30" height="10" x="140" y="100" fill="#f5fcff" /><rect width="10" height="10" x="170" y="100" fill="#807f7e" /><rect width="20" height="10" x="180" y="100" fill="#f5fcff" /><rect width="10" height="10" x="200" y="100" fill="#4b4949" /><rect width="30" height="10" x="210" y="100" fill="#b8ced2" /><rect width="20" height="10" x="240" y="100" fill="#f5fcff" /><rect width="20" height="10" x="50" y="110" fill="#ffffff" /><rect width="20" height="10" x="70" y="110" fill="#f5fcff" /><rect width="40" height="10" x="90" y="110" fill="#b8ced2" /><rect width="10" height="10" x="130" y="110" fill="#4b4949" /><rect width="30" height="10" x="140" y="110" fill="#f5fcff" /><rect width="10" height="10" x="170" y="110" fill="#807f7e" /><rect width="20" height="10" x="180" y="110" fill="#f5fcff" /><rect width="10" height="10" x="200" y="110" fill="#4b4949" /><rect width="30" height="10" x="210" y="110" fill="#b8ced2" /><rect width="10" height="10" x="240" y="110" fill="#f5fcff" /><rect width="20" height="10" x="250" y="110" fill="#ffffff" /><rect width="20" height="10" x="50" y="120" fill="#ffffff" /><rect width="20" height="10" x="70" y="120" fill="#f5fcff" /><rect width="40" height="10" x="90" y="120" fill="#b8ced2" /><rect width="10" height="10" x="130" y="120" fill="#4b4949" /><rect width="30" height="10" x="140" y="120" fill="#f5fcff" /><rect width="10" height="10" x="170" y="120" fill="#807f7e" /><rect width="20" height="10" x="180" y="120" fill="#f5fcff" /><rect width="10" height="10" x="200" y="120" fill="#4b4949" /><rect width="30" height="10" x="210" y="120" fill="#b8ced2" /><rect width="10" height="10" x="240" y="120" fill="#f5fcff" /><rect width="20" height="10" x="250" y="120" fill="#ffffff" /><rect width="10" height="10" x="60" y="130" fill="#ffffff" /><rect width="20" height="10" x="70" y="130" fill="#f5fcff" /><rect width="40" height="10" x="90" y="130" fill="#b8ced2" /><rect width="10" height="10" x="130" y="130" fill="#4b4949" /><rect width="30" height="10" x="140" y="130" fill="#f5fcff" /><rect width="10" height="10" x="170" y="130" fill="#807f7e" /><rect width="20" height="10" x="180" y="130" fill="#f5fcff" /><rect width="10" height="10" x="200" y="130" fill="#4b4949" /><rect width="30" height="10" x="210" y="130" fill="#b8ced2" /><rect width="10" height="10" x="240" y="130" fill="#f5fcff" /><rect width="10" height="10" x="250" y="130" fill="#ffffff" /><rect width="20" height="10" x="50" y="140" fill="#ffffff" /><rect width="20" height="10" x="70" y="140" fill="#f5fcff" /><rect width="40" height="10" x="90" y="140" fill="#b8ced2" /><rect width="10" height="10" x="130" y="140" fill="#4b4949" /><rect width="30" height="10" x="140" y="140" fill="#f5fcff" /><rect width="10" height="10" x="170" y="140" fill="#807f7e" /><rect width="20" height="10" x="180" y="140" fill="#f5fcff" /><rect width="10" height="10" x="200" y="140" fill="#4b4949" /><rect width="30" height="10" x="210" y="140" fill="#b8ced2" /><rect width="10" height="10" x="240" y="140" fill="#f5fcff" /><rect width="20" height="10" x="250" y="140" fill="#ffffff" /><rect width="20" height="10" x="50" y="150" fill="#ffffff" /><rect width="20" height="10" x="70" y="150" fill="#f5fcff" /><rect width="40" height="10" x="90" y="150" fill="#b8ced2" /><rect width="10" height="10" x="130" y="150" fill="#4b4949" /><rect width="30" height="10" x="140" y="150" fill="#f5fcff" /><rect width="10" height="10" x="170" y="150" fill="#807f7e" /><rect width="20" height="10" x="180" y="150" fill="#f5fcff" /><rect width="10" height="10" x="200" y="150" fill="#4b4949" /><rect width="30" height="10" x="210" y="150" fill="#b8ced2" /><rect width="10" height="10" x="240" y="150" fill="#f5fcff" /><rect width="20" height="10" x="250" y="150" fill="#ffffff" /><rect width="10" height="10" x="60" y="160" fill="#ffffff" /><rect width="20" height="10" x="70" y="160" fill="#f5fcff" /><rect width="40" height="10" x="90" y="160" fill="#b8ced2" /><rect width="10" height="10" x="130" y="160" fill="#4b4949" /><rect width="20" height="10" x="140" y="160" fill="#f5fcff" /><rect width="10" height="10" x="160" y="160" fill="#807f7e" /><rect width="30" height="10" x="170" y="160" fill="#f5fcff" /><rect width="10" height="10" x="200" y="160" fill="#4b4949" /><rect width="30" height="10" x="210" y="160" fill="#b8ced2" /><rect width="10" height="10" x="240" y="160" fill="#f5fcff" /><rect width="10" height="10" x="250" y="160" fill="#ffffff" /><rect width="20" height="10" x="50" y="170" fill="#ffffff" /><rect width="30" height="10" x="70" y="170" fill="#f5fcff" /><rect width="20" height="10" x="100" y="170" fill="#b8ced2" /><rect width="10" height="10" x="120" y="170" fill="#4b4949" /><rect width="30" height="10" x="130" y="170" fill="#f5fcff" /><rect width="10" height="10" x="160" y="170" fill="#807f7e" /><rect width="40" height="10" x="170" y="170" fill="#f5fcff" /><rect width="10" height="10" x="210" y="170" fill="#4b4949" /><rect width="20" height="10" x="220" y="170" fill="#b8ced2" /><rect width="10" height="10" x="240" y="170" fill="#f5fcff" /><rect width="20" height="10" x="250" y="170" fill="#ffffff" /><rect width="30" height="10" x="50" y="180" fill="#ffffff" /><rect width="30" height="10" x="80" y="180" fill="#f5fcff" /><rect width="10" height="10" x="110" y="180" fill="#b8ced2" /><rect width="10" height="10" x="120" y="180" fill="#4b4949" /><rect width="20" height="10" x="130" y="180" fill="#f5fcff" /><rect width="30" height="10" x="150" y="180" fill="#ffffff" /><rect width="30" height="10" x="180" y="180" fill="#f5fcff" /><rect width="10" height="10" x="210" y="180" fill="#4b4949" /><rect width="10" height="10" x="220" y="180" fill="#b8ced2" /><rect width="20" height="10" x="230" y="180" fill="#f5fcff" /><rect width="20" height="10" x="250" y="180" fill="#ffffff" /><rect width="30" height="10" x="60" y="190" fill="#ffffff" /><rect width="20" height="10" x="90" y="190" fill="#f5fcff" /><rect width="10" height="10" x="110" y="190" fill="#b8ced2" /><rect width="10" height="10" x="120" y="190" fill="#4b4949" /><rect width="20" height="10" x="130" y="190" fill="#f5fcff" /><rect width="30" height="10" x="150" y="190" fill="#807f7e" /><rect width="30" height="10" x="180" y="190" fill="#f5fcff" /><rect width="10" height="10" x="210" y="190" fill="#4b4949" /><rect width="10" height="10" x="220" y="190" fill="#b8ced2" /><rect width="10" height="10" x="230" y="190" fill="#f5fcff" /><rect width="20" height="10" x="240" y="190" fill="#ffffff" /><rect width="180" height="10" x="70" y="200" fill="#ffffff" /><rect width="60" height="10" x="100" y="110" fill="#ff638d" /><rect width="60" height="10" x="170" y="110" fill="#cc0595" /><rect width="10" height="10" x="100" y="120" fill="#ff638d" /><rect width="20" height="10" x="110" y="120" fill="#ffffff" /><rect width="20" height="10" x="130" y="120" fill="#000000" /><rect width="10" height="10" x="150" y="120" fill="#ff638d" /><rect width="10" height="10" x="170" y="120" fill="#cc0595" /><rect width="20" height="10" x="180" y="120" fill="#ffffff" /><rect width="20" height="10" x="200" y="120" fill="#000000" /><rect width="10" height="10" x="220" y="120" fill="#cc0595" /><rect width="30" height="10" x="70" y="130" fill="#ab36be" /><rect width="10" height="10" x="100" y="130" fill="#ff638d" /><rect width="20" height="10" x="110" y="130" fill="#ffffff" /><rect width="20" height="10" x="130" y="130" fill="#000000" /><rect width="10" height="10" x="150" y="130" fill="#ff638d" /><rect width="10" height="10" x="160" y="130" fill="#ab36be" /><rect width="10" height="10" x="170" y="130" fill="#cc0595" /><rect width="20" height="10" x="180" y="130" fill="#ffffff" /><rect width="20" height="10" x="200" y="130" fill="#000000" /><rect width="10" height="10" x="220" y="130" fill="#cc0595" /><rect width="10" height="10" x="70" y="140" fill="#cc0595" /><rect width="10" height="10" x="100" y="140" fill="#ff638d" /><rect width="20" height="10" x="110" y="140" fill="#ffffff" /><rect width="20" height="10" x="130" y="140" fill="#000000" /><rect width="10" height="10" x="150" y="140" fill="#ff638d" /><rect width="10" height="10" x="170" y="140" fill="#cc0595" /><rect width="20" height="10" x="180" y="140" fill="#ffffff" /><rect width="20" height="10" x="200" y="140" fill="#000000" /><rect width="10" height="10" x="220" y="140" fill="#cc0595" /><rect width="10" height="10" x="70" y="150" fill="#cc0595" /><rect width="10" height="10" x="100" y="150" fill="#ff638d" /><rect width="20" height="10" x="110" y="150" fill="#ffffff" /><rect width="20" height="10" x="130" y="150" fill="#000000" /><rect width="10" height="10" x="150" y="150" fill="#ff638d" /><rect width="10" height="10" x="170" y="150" fill="#cc0595" /><rect width="20" height="10" x="180" y="150" fill="#ffffff" /><rect width="20" height="10" x="200" y="150" fill="#000000" /><rect width="10" height="10" x="220" y="150" fill="#cc0595" /><rect width="60" height="10" x="100" y="160" fill="#ff638d" /><rect width="60" height="10" x="170" y="160" fill="#cc0595" /></svg>