<svg width="320" height="320" viewBox="0 0 320 320" xmlns="http://www.w3.org/2000/svg" shape-rendering="crispEdges"><rect width="100%" height="100%" fill="#e1d7d5" /><rect width="140" height="10" x="90" y="210" fill="#5a65fa" /><rect width="140" height="10" x="90" y="220" fill="#5a65fa" /><rect width="140" height="10" x="90" y="230" fill="#5a65fa" /><rect width="140" height="10" x="90" y="240" fill="#5a65fa" /><rect width="20" height="10" x="90" y="250" fill="#5a65fa" /><rect width="110" height="10" x="120" y="250" fill="#5a65fa" /><rect width="20" height="10" x="90" y="260" fill="#5a65fa" /><rect width="110" height="10" x="120" y="260" fill="#5a65fa" /><rect width="20" height="10" x="90" y="270" fill="#5a65fa" /><rect width="110" height="10" x="120" y="270" fill="#5a65fa" /><rect width="20" height="10" x="90" y="280" fill="#5a65fa" /><rect width="110" height="10" x="120" y="280" fill="#5a65fa" /><rect width="20" height="10" x="90" y="290" fill="#5a65fa" /><rect width="110" height="10" x="120" y="290" fill="#5a65fa" /><rect width="20" height="10" x="90" y="300" fill="#5a65fa" /><rect width="110" height="10" x="120" y="300" fill="#5a65fa" /><rect width="20" height="10" x="90" y="310" fill="#5a65fa" /><rect width="110" height="10" x="120" y="310" fill="#5a65fa" /><rect width="30" height="10" x="90" y="210" fill="#eed811" /><rect width="40" height="10" x="160" y="210" fill="#eed811" /><rect width="30" height="10" x="90" y="220" fill="#eed811" /><rect width="40" height="10" x="160" y="220" fill="#eed811" /><rect width="30" height="10" x="90" y="230" fill="#eed811" /><rect width="40" height="10" x="160" y="230" fill="#eed811" /><rect width="40" height="10" x="120" y="240" fill="#eed811" /><rect width="30" height="10" x="200" y="240" fill="#eed811" /><rect width="40" height="10" x="120" y="250" fill="#eed811" /><rect width="30" height="10" x="200" y="250" fill="#eed811" /><rect width="40" height="10" x="120" y="260" fill="#eed811" /><rect width="30" height="10" x="200" y="260" fill="#eed811" /><rect width="40" height="10" x="120" y="270" fill="#eed811" /><rect width="30" height="10" x="200" y="270" fill="#eed811" /><rect width="20" height="10" x="90" y="280" fill="#eed811" /><rect width="40" height="10" x="160" y="280" fill="#eed811" /><rect width="20" height="10" x="90" y="290" fill="#eed811" /><rect width="40" height="10" x="160" y="290" fill="#eed811" /><rect width="20" height="10" x="90" y="300" fill="#eed811" /><rect width="40" height="10" x="160" y="300" fill="#eed811" /><rect width="20" height="10" x="90" y="310" fill="#eed811" /><rect width="40" height="10" x="160" y="310" fill="#eed811" /><rect width="20" height="10" x="30" y="80" fill="#235476" /><rect width="30" height="10" x="50" y="80" fill="#ae6c0a" /><rect width="20" height="10" x="80" y="80" fill="#235476" /><rect width="30" height="10" x="100" y="80" fill="#ae6c0a" /><rect width="20" height="10" x="130" y="80" fill="#235476" /><rect width="30" height="10" x="150" y="80" fill="#ae6c0a" /><rect width="20" height="10" x="180" y="80" fill="#235476" /><rect width="30" height="10" x="200" y="80" fill="#ae6c0a" /><rect width="20" height="10" x="230" y="80" fill="#235476" /><rect width="30" height="10" x="250" y="80" fill="#ae6c0a" /><rect width="20" height="10" x="280" y="80" fill="#235476" /><rect width="20" height="10" x="30" y="90" fill="#235476" /><rect width="20" height="10" x="80" y="90" fill="#235476" /><rect width="20" height="10" x="130" y="90" fill="#235476" /><rect width="20" height="10" x="180" y="90" fill="#235476" /><rect width="20" height="10" x="230" y="90" fill="#235476" /><rect width="20" height="10" x="280" y="90" fill="#235476" /><rect width="270" height="10" x="30" y="100" fill="#235476" /><rect width="270" height="10" x="30" y="110" fill="#235476" /><rect width="40" height="10" x="30" y="120" fill="#235476" /><rect width="10" height="10" x="70" y="120" fill="#ffffff" /><rect width="30" height="10" x="80" y="120" fill="#235476" /><rect width="90" height="10" x="120" y="120" fill="#235476" /><rect width="80" height="10" x="220" y="120" fill="#235476" /><rect width="20" height="10" x="30" y="130" fill="#235476" /><rect width="40" height="10" x="50" y="130" fill="#ffffff" /><rect width="20" height="10" x="90" y="130" fill="#235476" /><rect width="90" height="10" x="120" y="130" fill="#235476" /><rect width="20" height="10" x="220" y="130" fill="#235476" /><rect width="10" height="10" x="240" y="130" fill="#ffffff" /><rect width="50" height="10" x="250" y="130" fill="#235476" /><rect width="40" height="10" x="30" y="140" fill="#235476" /><rect width="10" height="10" x="70" y="140" fill="#ffffff" /><rect width="30" height="10" x="80" y="140" fill="#235476" /><rect width="90" height="10" x="120" y="140" fill="#1e3445" /><rect width="20" height="10" x="220" y="140" fill="#235476" /><rect width="10" height="10" x="240" y="140" fill="#ffffff" /><rect width="50" height="10" x="250" y="140" fill="#235476" /><rect width="20" height="10" x="30" y="150" fill="#235476" /><rect width="30" height="10" x="50" y="150" fill="#ffffff" /><rect width="30" height="10" x="80" y="150" fill="#235476" /><rect width="90" height="10" x="120" y="150" fill="#1e3445" /><rect width="20" height="10" x="220" y="150" fill="#235476" /><rect width="10" height="10" x="240" y="150" fill="#ffffff" /><rect width="50" height="10" x="250" y="150" fill="#235476" /><rect width="20" height="10" x="30" y="160" fill="#235476" /><rect width="10" height="10" x="50" y="160" fill="#ffffff" /><rect width="10" height="10" x="60" y="160" fill="#235476" /><rect width="10" height="10" x="70" y="160" fill="#ffffff" /><rect width="30" height="10" x="80" y="160" fill="#235476" /><rect width="90" height="10" x="120" y="160" fill="#1e3445" /><rect width="20" height="10" x="220" y="160" fill="#235476" /><rect width="10" height="10" x="240" y="160" fill="#ffffff" /><rect width="50" height="10" x="250" y="160" fill="#235476" /><rect width="30" height="10" x="30" y="170" fill="#235476" /><rect width="20" height="10" x="60" y="170" fill="#ffffff" /><rect width="30" height="10" x="80" y="170" fill="#235476" /><rect width="90" height="10" x="120" y="170" fill="#1e3445" /><rect width="20" height="10" x="220" y="170" fill="#235476" /><rect width="10" height="10" x="240" y="170" fill="#ffffff" /><rect width="20" height="10" x="250" y="170" fill="#235476" /><rect width="10" height="10" x="270" y="170" fill="#ffffff" /><rect width="20" height="10" x="280" y="170" fill="#235476" /><rect width="40" height="10" x="30" y="180" fill="#235476" /><rect width="10" height="10" x="70" y="180" fill="#ffffff" /><rect width="30" height="10" x="80" y="180" fill="#235476" /><rect width="20" height="10" x="220" y="180" fill="#235476" /><rect width="10" height="10" x="240" y="180" fill="#ffffff" /><rect width="20" height="10" x="250" y="180" fill="#235476" /><rect width="10" height="10" x="270" y="180" fill="#ffffff" /><rect width="20" height="10" x="280" y="180" fill="#235476" /><rect width="20" height="10" x="30" y="190" fill="#235476" /><rect width="20" height="10" x="50" y="190" fill="#ffffff" /><rect width="40" height="10" x="70" y="190" fill="#235476" /><rect width="30" height="10" x="220" y="190" fill="#235476" /><rect width="20" height="10" x="250" y="190" fill="#ffffff" /><rect width="30" height="10" x="270" y="190" fill="#235476" /><rect width="80" height="10" x="30" y="200" fill="#235476" /><rect width="80" height="10" x="220" y="200" fill="#235476" /><rect width="80" height="10" x="30" y="210" fill="#235476" /><rect width="80" height="10" x="220" y="210" fill="#235476" /><rect width="60" height="10" x="100" y="110" fill="#fe500c" /><rect width="60" height="10" x="170" y="110" fill="#fe500c" /><rect width="10" height="10" x="100" y="120" fill="#fe500c" /><rect width="20" height="10" x="110" y="120" fill="#ffffff" /><rect width="20" height="10" x="130" y="120" fill="#000000" /><rect width="10" height="10" x="150" y="120" fill="#fe500c" /><rect width="10" height="10" x="170" y="120" fill="#fe500c" /><rect width="20" height="10" x="180" y="120" fill="#ffffff" /><rect width="20" height="10" x="200" y="120" fill="#000000" /><rect width="10" height="10" x="220" y="120" fill="#fe500c" /><rect width="40" height="10" x="70" y="130" fill="#fe500c" /><rect width="20" height="10" x="110" y="130" fill="#ffffff" /><rect width="20" height="10" x="130" y="130" fill="#000000" /><rect width="30" height="10" x="150" y="130" fill="#fe500c" /><rect width="20" height="10" x="180" y="130" fill="#ffffff" /><rect width="20" height="10" x="200" y="130" fill="#000000" /><rect width="10" height="10" x="220" y="130" fill="#fe500c" /><rect width="10" height="10" x="70" y="140" fill="#fe500c" /><rect width="10" height="10" x="100" y="140" fill="#fe500c" /><rect width="20" height="10" x="110" y="140" fill="#ffffff" /><rect width="20" height="10" x="130" y="140" fill="#000000" /><rect width="10" height="10" x="150" y="140" fill="#fe500c" /><rect width="10" height="10" x="170" y="140" fill="#fe500c" /><rect width="20" height="10" x="180" y="140" fill="#ffffff" /><rect width="20" height="10" x="200" y="140" fill="#000000" /><rect width="10" height="10" x="220" y="140" fill="#fe500c" /><rect width="10" height="10" x="70" y="150" fill="#fe500c" /><rect width="10" height="10" x="100" y="150" fill="#fe500c" /><rect width="20" height="10" x="110" y="150" fill="#ffffff" /><rect width="20" height="10" x="130" y="150" fill="#000000" /><rect width="10" height="10" x="150" y="150" fill="#fe500c" /><rect width="10" height="10" x="170" y="150" fill="#fe500c" /><rect width="20" height="10" x="180" y="150" fill="#ffffff" /><rect width="20" height="10" x="200" y="150" fill="#000000" /><rect width="10" height="10" x="220" y="150" fill="#fe500c" /><rect width="60" height="10" x="100" y="160" fill="#fe500c" /><rect width="60" height="10" x="170" y="160" fill="#fe500c" /></svg>