<svg width="320" height="320" viewBox="0 0 320 320" xmlns="http://www.w3.org/2000/svg" shape-rendering="crispEdges"><rect width="100%" height="100%" fill="#e1d7d5" /><rect width="140" height="10" x="90" y="210" fill="#e9265c" /><rect width="140" height="10" x="90" y="220" fill="#e9265c" /><rect width="140" height="10" x="90" y="230" fill="#e9265c" /><rect width="140" height="10" x="90" y="240" fill="#e9265c" /><rect width="20" height="10" x="90" y="250" fill="#e9265c" /><rect width="110" height="10" x="120" y="250" fill="#e9265c" /><rect width="20" height="10" x="90" y="260" fill="#e9265c" /><rect width="110" height="10" x="120" y="260" fill="#e9265c" /><rect width="20" height="10" x="90" y="270" fill="#e9265c" /><rect width="110" height="10" x="120" y="270" fill="#e9265c" /><rect width="20" height="10" x="90" y="280" fill="#e9265c" /><rect width="110" height="10" x="120" y="280" fill="#e9265c" /><rect width="20" height="10" x="90" y="290" fill="#e9265c" /><rect width="110" height="10" x="120" y="290" fill="#e9265c" /><rect width="20" height="10" x="90" y="300" fill="#e9265c" /><rect width="110" height="10" x="120" y="300" fill="#e9265c" /><rect width="20" height="10" x="90" y="310" fill="#e9265c" /><rect width="110" height="10" x="120" y="310" fill="#e9265c" /><rect width="140" height="10" x="90" y="210" fill="#0b5027" /><rect width="140" height="10" x="90" y="220" fill="#0b5027" /><rect width="140" height="10" x="90" y="230" fill="#ff7216" /><rect width="140" height="10" x="90" y="240" fill="#ff7216" /><rect width="20" height="10" x="90" y="250" fill="#0b5027" /><rect width="110" height="10" x="120" y="250" fill="#0b5027" /><rect width="20" height="10" x="90" y="260" fill="#0b5027" /><rect width="110" height="10" x="120" y="260" fill="#0b5027" /><rect width="20" height="10" x="90" y="270" fill="#ff7216" /><rect width="110" height="10" x="120" y="270" fill="#ff7216" /><rect width="20" height="10" x="90" y="280" fill="#ff7216" /><rect width="110" height="10" x="120" y="280" fill="#ff7216" /><rect width="20" height="10" x="90" y="290" fill="#0b5027" /><rect width="110" height="10" x="120" y="290" fill="#0b5027" /><rect width="20" height="10" x="90" y="300" fill="#0b5027" /><rect width="110" height="10" x="120" y="300" fill="#0b5027" /><rect width="20" height="10" x="90" y="310" fill="#ff7216" /><rect width="110" height="10" x="120" y="310" fill="#ff7216" /><rect width="110" height="10" x="110" y="50" fill="#8dd122" /><rect width="40" height="10" x="70" y="60" fill="#8dd122" /><rect width="110" height="10" x="110" y="60" fill="#c4da53" /><rect width="30" height="10" x="220" y="60" fill="#8dd122" /><rect width="10" height="10" x="60" y="70" fill="#8dd122" /><rect width="180" height="10" x="70" y="70" fill="#c4da53" /><rect width="10" height="10" x="250" y="70" fill="#8dd122" /><rect width="10" height="10" x="50" y="80" fill="#8dd122" /><rect width="200" height="10" x="60" y="80" fill="#c4da53" /><rect width="10" height="10" x="260" y="80" fill="#8dd122" /><rect width="10" height="10" x="50" y="90" fill="#8dd122" /><rect width="200" height="10" x="60" y="90" fill="#c4da53" /><rect width="10" height="10" x="260" y="90" fill="#8dd122" /><rect width="20" height="10" x="60" y="100" fill="#c4da53" /><rect width="160" height="10" x="80" y="100" fill="#ffffff" /><rect width="20" height="10" x="240" y="100" fill="#c4da53" /><rect width="10" height="10" x="60" y="110" fill="#c4da53" /><rect width="180" height="10" x="70" y="110" fill="#ffffff" /><rect width="10" height="10" x="250" y="110" fill="#c4da53" /><rect width="10" height="10" x="60" y="120" fill="#c4da53" /><rect width="180" height="10" x="70" y="120" fill="#ffffff" /><rect width="10" height="10" x="250" y="120" fill="#c4da53" /><rect width="10" height="10" x="60" y="130" fill="#c4da53" /><rect width="180" height="10" x="70" y="130" fill="#ffffff" /><rect width="10" height="10" x="250" y="130" fill="#c4da53" /><rect width="200" height="10" x="60" y="140" fill="#ffffff" /><rect width="200" height="10" x="60" y="150" fill="#ffffff" /><rect width="180" height="10" x="70" y="160" fill="#ffffff" /><rect width="200" height="10" x="60" y="170" fill="#ffffff" /><rect width="80" height="10" x="60" y="180" fill="#ffffff" /><rect width="20" height="10" x="140" y="180" fill="#dcd8d3" /><rect width="100" height="10" x="160" y="180" fill="#ffffff" /><rect width="180" height="10" x="70" y="190" fill="#ffffff" /><rect width="160" height="10" x="80" y="200" fill="#ffffff" /><rect width="60" height="10" x="100" y="110" fill="#ffc110" /><rect width="60" height="10" x="170" y="110" fill="#f98f30" /><rect width="10" height="10" x="100" y="120" fill="#ffc110" /><rect width="20" height="10" x="110" y="120" fill="#ffffff" /><rect width="20" height="10" x="130" y="120" fill="#000000" /><rect width="10" height="10" x="150" y="120" fill="#ffc110" /><rect width="10" height="10" x="170" y="120" fill="#f98f30" /><rect width="20" height="10" x="180" y="120" fill="#ffffff" /><rect width="20" height="10" x="200" y="120" fill="#000000" /><rect width="10" height="10" x="220" y="120" fill="#f98f30" /><rect width="30" height="10" x="70" y="130" fill="#f78a18" /><rect width="10" height="10" x="100" y="130" fill="#ffc110" /><rect width="20" height="10" x="110" y="130" fill="#ffffff" /><rect width="20" height="10" x="130" y="130" fill="#000000" /><rect width="10" height="10" x="150" y="130" fill="#ffc110" /><rect width="10" height="10" x="160" y="130" fill="#f78a18" /><rect width="10" height="10" x="170" y="130" fill="#f98f30" /><rect width="20" height="10" x="180" y="130" fill="#ffffff" /><rect width="20" height="10" x="200" y="130" fill="#000000" /><rect width="10" height="10" x="220" y="130" fill="#f98f30" /><rect width="10" height="10" x="70" y="140" fill="#ffc110" /><rect width="10" height="10" x="100" y="140" fill="#ffc110" /><rect width="20" height="10" x="110" y="140" fill="#ffffff" /><rect width="20" height="10" x="130" y="140" fill="#000000" /><rect width="10" height="10" x="150" y="140" fill="#ffc110" /><rect width="10" height="10" x="170" y="140" fill="#f98f30" /><rect width="20" height="10" x="180" y="140" fill="#ffffff" /><rect width="20" height="10" x="200" y="140" fill="#000000" /><rect width="10" height="10" x="220" y="140" fill="#f98f30" /><rect width="10" height="10" x="70" y="150" fill="#ffc110" /><rect width="10" height="10" x="100" y="150" fill="#ffc110" /><rect width="20" height="10" x="110" y="150" fill="#ffffff" /><rect width="20" height="10" x="130" y="150" fill="#000000" /><rect width="10" height="10" x="150" y="150" fill="#ffc110" /><rect width="10" height="10" x="170" y="150" fill="#f98f30" /><rect width="20" height="10" x="180" y="150" fill="#ffffff" /><rect width="20" height="10" x="200" y="150" fill="#000000" /><rect width="10" height="10" x="220" y="150" fill="#f98f30" /><rect width="60" height="10" x="100" y="160" fill="#ffc110" /><rect width="60" height="10" x="170" y="160" fill="#f98f30" /></svg>