<svg width="320" height="320" viewBox="0 0 320 320" xmlns="http://www.w3.org/2000/svg" shape-rendering="crispEdges"><rect width="100%" height="100%" fill="#d5d7e1" /><rect width="140" height="10" x="90" y="210" fill="#5648ed" /><rect width="140" height="10" x="90" y="220" fill="#5648ed" /><rect width="140" height="10" x="90" y="230" fill="#5648ed" /><rect width="140" height="10" x="90" y="240" fill="#5648ed" /><rect width="20" height="10" x="90" y="250" fill="#5648ed" /><rect width="110" height="10" x="120" y="250" fill="#5648ed" /><rect width="20" height="10" x="90" y="260" fill="#5648ed" /><rect width="110" height="10" x="120" y="260" fill="#5648ed" /><rect width="20" height="10" x="90" y="270" fill="#5648ed" /><rect width="110" height="10" x="120" y="270" fill="#5648ed" /><rect width="20" height="10" x="90" y="280" fill="#5648ed" /><rect width="110" height="10" x="120" y="280" fill="#5648ed" /><rect width="20" height="10" x="90" y="290" fill="#5648ed" /><rect width="110" height="10" x="120" y="290" fill="#5648ed" /><rect width="20" height="10" x="90" y="300" fill="#5648ed" /><rect width="110" height="10" x="120" y="300" fill="#5648ed" /><rect width="20" height="10" x="90" y="310" fill="#5648ed" /><rect width="110" height="10" x="120" y="310" fill="#5648ed" /><rect width="10" height="10" x="90" y="210" fill="#257ced" /><rect width="70" height="10" x="110" y="210" fill="#257ced" /><rect width="30" height="10" x="190" y="210" fill="#257ced" /><rect width="10" height="10" x="170" y="220" fill="#257ced" /><rect width="10" height="10" x="190" y="220" fill="#257ced" /><rect width="10" height="10" x="210" y="220" fill="#257ced" /><rect width="10" height="10" x="90" y="230" fill="#257ced" /><rect width="30" height="10" x="110" y="230" fill="#257ced" /><rect width="30" height="10" x="150" y="230" fill="#257ced" /><rect width="10" height="10" x="190" y="230" fill="#257ced" /><rect width="20" height="10" x="210" y="230" fill="#257ced" /><rect width="10" height="10" x="90" y="240" fill="#257ced" /><rect width="10" height="10" x="110" y="240" fill="#257ced" /><rect width="10" height="10" x="130" y="240" fill="#257ced" /><rect width="10" height="10" x="150" y="240" fill="#257ced" /><rect width="10" height="10" x="190" y="240" fill="#257ced" /><rect width="10" height="10" x="90" y="250" fill="#257ced" /><rect width="50" height="10" x="130" y="250" fill="#257ced" /><rect width="10" height="10" x="190" y="250" fill="#257ced" /><rect width="20" height="10" x="210" y="250" fill="#257ced" /><rect width="10" height="10" x="150" y="260" fill="#257ced" /><rect width="10" height="10" x="170" y="260" fill="#257ced" /><rect width="10" height="10" x="190" y="260" fill="#257ced" /><rect width="10" height="10" x="210" y="260" fill="#257ced" /><rect width="10" height="10" x="90" y="270" fill="#257ced" /><rect width="30" height="10" x="130" y="270" fill="#257ced" /><rect width="30" height="10" x="170" y="270" fill="#257ced" /><rect width="20" height="10" x="210" y="270" fill="#257ced" /><rect width="10" height="10" x="90" y="280" fill="#257ced" /><rect width="10" height="10" x="130" y="280" fill="#257ced" /><rect width="20" height="10" x="90" y="290" fill="#257ced" /><rect width="70" height="10" x="130" y="290" fill="#257ced" /><rect width="20" height="10" x="210" y="290" fill="#257ced" /><rect width="10" height="10" x="190" y="300" fill="#257ced" /><rect width="10" height="10" x="210" y="300" fill="#257ced" /><rect width="20" height="10" x="90" y="310" fill="#257ced" /><rect width="30" height="10" x="130" y="310" fill="#257ced" /><rect width="30" height="10" x="170" y="310" fill="#257ced" /><rect width="10" height="10" x="210" y="310" fill="#257ced" /><rect width="20" height="10" x="30" y="90" fill="#ffffff" /><rect width="210" height="10" x="50" y="90" fill="#2b2834" /><rect width="40" height="10" x="20" y="100" fill="#ffffff" /><rect width="210" height="10" x="60" y="100" fill="#2b2834" /><rect width="60" height="10" x="10" y="110" fill="#ffffff" /><rect width="210" height="10" x="70" y="110" fill="#2b2834" /><rect width="20" height="10" x="10" y="120" fill="#ffffff" /><rect width="20" height="10" x="30" y="120" fill="#fff671" /><rect width="20" height="10" x="50" y="120" fill="#ffffff" /><rect width="210" height="10" x="70" y="120" fill="#2b2834" /><rect width="10" height="10" x="10" y="130" fill="#ffffff" /><rect width="10" height="10" x="20" y="130" fill="#fff671" /><rect width="20" height="10" x="30" y="130" fill="#eed811" /><rect width="10" height="10" x="50" y="130" fill="#fff671" /><rect width="10" height="10" x="60" y="130" fill="#ffffff" /><rect width="210" height="10" x="70" y="130" fill="#2b2834" /><rect width="10" height="10" x="10" y="140" fill="#ffffff" /><rect width="40" height="10" x="20" y="140" fill="#eed811" /><rect width="10" height="10" x="60" y="140" fill="#ffffff" /><rect width="210" height="10" x="70" y="140" fill="#2b2834" /><rect width="10" height="10" x="10" y="150" fill="#ffffff" /><rect width="40" height="10" x="20" y="150" fill="#eed811" /><rect width="10" height="10" x="60" y="150" fill="#ffffff" /><rect width="210" height="10" x="70" y="150" fill="#2b2834" /><rect width="10" height="10" x="10" y="160" fill="#ffffff" /><rect width="10" height="10" x="20" y="160" fill="#fff671" /><rect width="20" height="10" x="30" y="160" fill="#eed811" /><rect width="10" height="10" x="50" y="160" fill="#fff671" /><rect width="10" height="10" x="60" y="160" fill="#ffffff" /><rect width="210" height="10" x="70" y="160" fill="#2b2834" /><rect width="20" height="10" x="10" y="170" fill="#ffffff" /><rect width="20" height="10" x="30" y="170" fill="#fff671" /><rect width="20" height="10" x="50" y="170" fill="#ffffff" /><rect width="210" height="10" x="70" y="170" fill="#2b2834" /><rect width="60" height="10" x="10" y="180" fill="#ffffff" /><rect width="90" height="10" x="70" y="180" fill="#2b2834" /><rect width="10" height="10" x="160" y="180" fill="#000000" /><rect width="110" height="10" x="170" y="180" fill="#2b2834" /><rect width="40" height="10" x="20" y="190" fill="#ffffff" /><rect width="210" height="10" x="60" y="190" fill="#2b2834" /><rect width="20" height="10" x="30" y="200" fill="#ffffff" /><rect width="210" height="10" x="50" y="200" fill="#2b2834" /><rect width="60" height="10" x="100" y="110" fill="#ffef16" /><rect width="60" height="10" x="170" y="110" fill="#ffef16" /><rect width="10" height="10" x="100" y="120" fill="#ffef16" /><rect width="20" height="10" x="110" y="120" fill="#ffffff" /><rect width="20" height="10" x="130" y="120" fill="#000000" /><rect width="10" height="10" x="150" y="120" fill="#ffef16" /><rect width="10" height="10" x="170" y="120" fill="#ffef16" /><rect width="20" height="10" x="180" y="120" fill="#ffffff" /><rect width="20" height="10" x="200" y="120" fill="#000000" /><rect width="10" height="10" x="220" y="120" fill="#ffef16" /><rect width="40" height="10" x="70" y="130" fill="#ffef16" /><rect width="20" height="10" x="110" y="130" fill="#ffffff" /><rect width="20" height="10" x="130" y="130" fill="#000000" /><rect width="30" height="10" x="150" y="130" fill="#ffef16" /><rect width="20" height="10" x="180" y="130" fill="#ffffff" /><rect width="20" height="10" x="200" y="130" fill="#000000" /><rect width="10" height="10" x="220" y="130" fill="#ffef16" /><rect width="10" height="10" x="70" y="140" fill="#ffef16" /><rect width="10" height="10" x="100" y="140" fill="#ffef16" /><rect width="20" height="10" x="110" y="140" fill="#ffffff" /><rect width="20" height="10" x="130" y="140" fill="#000000" /><rect width="10" height="10" x="150" y="140" fill="#ffef16" /><rect width="10" height="10" x="170" y="140" fill="#ffef16" /><rect width="20" height="10" x="180" y="140" fill="#ffffff" /><rect width="20" height="10" x="200" y="140" fill="#000000" /><rect width="10" height="10" x="220" y="140" fill="#ffef16" /><rect width="10" height="10" x="70" y="150" fill="#ffef16" /><rect width="10" height="10" x="100" y="150" fill="#ffef16" /><rect width="20" height="10" x="110" y="150" fill="#ffffff" /><rect width="20" height="10" x="130" y="150" fill="#000000" /><rect width="10" height="10" x="150" y="150" fill="#ffef16" /><rect width="10" height="10" x="170" y="150" fill="#ffef16" /><rect width="20" height="10" x="180" y="150" fill="#ffffff" /><rect width="20" height="10" x="200" y="150" fill="#000000" /><rect width="10" height="10" x="220" y="150" fill="#ffef16" /><rect width="60" height="10" x="100" y="160" fill="#ffef16" /><rect width="60" height="10" x="170" y="160" fill="#ffef16" /></svg>