<svg width="320" height="320" viewBox="0 0 320 320" xmlns="http://www.w3.org/2000/svg" shape-rendering="crispEdges"><rect width="100%" height="100%" fill="#e1d7d5" /><rect width="140" height="10" x="90" y="210" fill="#4bea69" /><rect width="140" height="10" x="90" y="220" fill="#4bea69" /><rect width="140" height="10" x="90" y="230" fill="#4bea69" /><rect width="140" height="10" x="90" y="240" fill="#4bea69" /><rect width="20" height="10" x="90" y="250" fill="#4bea69" /><rect width="110" height="10" x="120" y="250" fill="#4bea69" /><rect width="20" height="10" x="90" y="260" fill="#4bea69" /><rect width="110" height="10" x="120" y="260" fill="#4bea69" /><rect width="20" height="10" x="90" y="270" fill="#4bea69" /><rect width="110" height="10" x="120" y="270" fill="#4bea69" /><rect width="20" height="10" x="90" y="280" fill="#4bea69" /><rect width="110" height="10" x="120" y="280" fill="#4bea69" /><rect width="20" height="10" x="90" y="290" fill="#4bea69" /><rect width="110" height="10" x="120" y="290" fill="#4bea69" /><rect width="20" height="10" x="90" y="300" fill="#4bea69" /><rect width="110" height="10" x="120" y="300" fill="#4bea69" /><rect width="20" height="10" x="90" y="310" fill="#4bea69" /><rect width="110" height="10" x="120" y="310" fill="#4bea69" /><rect width="30" height="10" x="100" y="210" fill="#5a6b7b" /><rect width="10" height="10" x="170" y="210" fill="#5a6b7b" /><rect width="10" height="10" x="220" y="210" fill="#5a6b7b" /><rect width="60" height="10" x="90" y="220" fill="#5a6b7b" /><rect width="10" height="10" x="170" y="220" fill="#5a6b7b" /><rect width="30" height="10" x="200" y="220" fill="#5a6b7b" /><rect width="140" height="10" x="90" y="230" fill="#5a6b7b" /><rect width="60" height="10" x="90" y="240" fill="#5a6b7b" /><rect width="10" height="10" x="170" y="240" fill="#5a6b7b" /><rect width="30" height="10" x="200" y="240" fill="#5a6b7b" /><rect width="10" height="10" x="100" y="250" fill="#5a6b7b" /><rect width="10" height="10" x="120" y="250" fill="#5a6b7b" /><rect width="10" height="10" x="170" y="250" fill="#5a6b7b" /><rect width="10" height="10" x="220" y="250" fill="#5a6b7b" /><rect width="10" height="10" x="100" y="260" fill="#5a6b7b" /><rect width="10" height="10" x="120" y="260" fill="#5a6b7b" /><rect width="30" height="10" x="160" y="260" fill="#5a6b7b" /><rect width="10" height="10" x="220" y="260" fill="#5a6b7b" /><rect width="30" height="10" x="160" y="270" fill="#5a6b7b" /><rect width="70" height="10" x="140" y="280" fill="#5a6b7b" /><rect width="20" height="10" x="90" y="290" fill="#5a6b7b" /><rect width="110" height="10" x="120" y="290" fill="#5a6b7b" /><rect width="70" height="10" x="140" y="300" fill="#5a6b7b" /><rect width="30" height="10" x="160" y="310" fill="#5a6b7b" /><rect width="20" height="10" x="70" y="50" fill="#e7a32c" /><rect width="10" height="10" x="90" y="50" fill="#b87b11" /><rect width="10" height="10" x="100" y="50" fill="#e7a32c" /><rect width="20" height="10" x="140" y="50" fill="#d29607" /><rect width="10" height="10" x="160" y="50" fill="#b87b11" /><rect width="10" height="10" x="170" y="50" fill="#d29607" /><rect width="10" height="10" x="210" y="50" fill="#e7a32c" /><rect width="10" height="10" x="220" y="50" fill="#b87b11" /><rect width="20" height="10" x="230" y="50" fill="#e7a32c" /><rect width="30" height="10" x="60" y="60" fill="#e7a32c" /><rect width="10" height="10" x="90" y="60" fill="#b87b11" /><rect width="20" height="10" x="100" y="60" fill="#e7a32c" /><rect width="30" height="10" x="130" y="60" fill="#d29607" /><rect width="10" height="10" x="160" y="60" fill="#b87b11" /><rect width="20" height="10" x="170" y="60" fill="#d29607" /><rect width="20" height="10" x="200" y="60" fill="#e7a32c" /><rect width="10" height="10" x="220" y="60" fill="#b87b11" /><rect width="30" height="10" x="230" y="60" fill="#e7a32c" /><rect width="40" height="10" x="50" y="70" fill="#e7a32c" /><rect width="10" height="10" x="90" y="70" fill="#b87b11" /><rect width="20" height="10" x="100" y="70" fill="#e7a32c" /><rect width="40" height="10" x="120" y="70" fill="#d29607" /><rect width="10" height="10" x="160" y="70" fill="#b87b11" /><rect width="30" height="10" x="170" y="70" fill="#d29607" /><rect width="20" height="10" x="200" y="70" fill="#e7a32c" /><rect width="10" height="10" x="220" y="70" fill="#b87b11" /><rect width="40" height="10" x="230" y="70" fill="#e7a32c" /><rect width="40" height="10" x="50" y="80" fill="#e7a32c" /><rect width="10" height="10" x="90" y="80" fill="#b87b11" /><rect width="20" height="10" x="100" y="80" fill="#e7a32c" /><rect width="40" height="10" x="120" y="80" fill="#d29607" /><rect width="10" height="10" x="160" y="80" fill="#b87b11" /><rect width="30" height="10" x="170" y="80" fill="#d29607" /><rect width="20" height="10" x="200" y="80" fill="#e7a32c" /><rect width="10" height="10" x="220" y="80" fill="#b87b11" /><rect width="40" height="10" x="230" y="80" fill="#e7a32c" /><rect width="10" height="10" x="50" y="90" fill="#2b2834" /><rect width="20" height="10" x="60" y="90" fill="#e7a32c" /><rect width="10" height="10" x="80" y="90" fill="#b87b11" /><rect width="30" height="10" x="90" y="90" fill="#e7a32c" /><rect width="30" height="10" x="120" y="90" fill="#d29607" /><rect width="10" height="10" x="150" y="90" fill="#b87b11" /><rect width="40" height="10" x="160" y="90" fill="#d29607" /><rect width="30" height="10" x="200" y="90" fill="#e7a32c" /><rect width="10" height="10" x="230" y="90" fill="#b87b11" /><rect width="20" height="10" x="240" y="90" fill="#e7a32c" /><rect width="10" height="10" x="260" y="90" fill="#2b2834" /><rect width="220" height="10" x="50" y="100" fill="#2b2834" /><rect width="220" height="10" x="50" y="110" fill="#2b2834" /><rect width="220" height="10" x="50" y="120" fill="#2b2834" /><rect width="220" height="10" x="50" y="130" fill="#2b2834" /><rect width="220" height="10" x="50" y="140" fill="#2b2834" /><rect width="220" height="10" x="50" y="150" fill="#2b2834" /><rect width="220" height="10" x="50" y="160" fill="#2b2834" /><rect width="220" height="10" x="50" y="170" fill="#2b2834" /><rect width="110" height="10" x="50" y="180" fill="#2b2834" /><rect width="10" height="10" x="160" y="180" fill="#ffffff" /><rect width="10" height="10" x="170" y="180" fill="#2b2834" /><rect width="10" height="10" x="180" y="180" fill="#ffffff" /><rect width="80" height="10" x="190" y="180" fill="#2b2834" /><rect width="200" height="10" x="60" y="190" fill="#2b2834" /><rect width="160" height="10" x="80" y="200" fill="#ffffff" /><rect width="60" height="10" x="100" y="110" fill="#b9185c" /><rect width="60" height="10" x="170" y="110" fill="#b9185c" /><rect width="10" height="10" x="100" y="120" fill="#b9185c" /><rect width="20" height="10" x="110" y="120" fill="#ffffff" /><rect width="20" height="10" x="130" y="120" fill="#000000" /><rect width="10" height="10" x="150" y="120" fill="#b9185c" /><rect width="10" height="10" x="170" y="120" fill="#b9185c" /><rect width="20" height="10" x="180" y="120" fill="#ffffff" /><rect width="20" height="10" x="200" y="120" fill="#000000" /><rect width="10" height="10" x="220" y="120" fill="#b9185c" /><rect width="40" height="10" x="70" y="130" fill="#b9185c" /><rect width="20" height="10" x="110" y="130" fill="#ffffff" /><rect width="20" height="10" x="130" y="130" fill="#000000" /><rect width="30" height="10" x="150" y="130" fill="#b9185c" /><rect width="20" height="10" x="180" y="130" fill="#ffffff" /><rect width="20" height="10" x="200" y="130" fill="#000000" /><rect width="10" height="10" x="220" y="130" fill="#b9185c" /><rect width="10" height="10" x="70" y="140" fill="#b9185c" /><rect width="10" height="10" x="100" y="140" fill="#b9185c" /><rect width="20" height="10" x="110" y="140" fill="#ffffff" /><rect width="20" height="10" x="130" y="140" fill="#000000" /><rect width="10" height="10" x="150" y="140" fill="#b9185c" /><rect width="10" height="10" x="170" y="140" fill="#b9185c" /><rect width="20" height="10" x="180" y="140" fill="#ffffff" /><rect width="20" height="10" x="200" y="140" fill="#000000" /><rect width="10" height="10" x="220" y="140" fill="#b9185c" /><rect width="10" height="10" x="70" y="150" fill="#b9185c" /><rect width="10" height="10" x="100" y="150" fill="#b9185c" /><rect width="20" height="10" x="110" y="150" fill="#ffffff" /><rect width="20" height="10" x="130" y="150" fill="#000000" /><rect width="10" height="10" x="150" y="150" fill="#b9185c" /><rect width="10" height="10" x="170" y="150" fill="#b9185c" /><rect width="20" height="10" x="180" y="150" fill="#ffffff" /><rect width="20" height="10" x="200" y="150" fill="#000000" /><rect width="10" height="10" x="220" y="150" fill="#b9185c" /><rect width="60" height="10" x="100" y="160" fill="#b9185c" /><rect width="60" height="10" x="170" y="160" fill="#b9185c" /></svg>