<svg width="320" height="320" viewBox="0 0 320 320" xmlns="http://www.w3.org/2000/svg" shape-rendering="crispEdges"><rect width="100%" height="100%" fill="#d5d7e1" /><rect width="140" height="10" x="90" y="210" fill="#34ac80" /><rect width="140" height="10" x="90" y="220" fill="#34ac80" /><rect width="140" height="10" x="90" y="230" fill="#34ac80" /><rect width="140" height="10" x="90" y="240" fill="#34ac80" /><rect width="20" height="10" x="90" y="250" fill="#34ac80" /><rect width="110" height="10" x="120" y="250" fill="#34ac80" /><rect width="20" height="10" x="90" y="260" fill="#34ac80" /><rect width="110" height="10" x="120" y="260" fill="#34ac80" /><rect width="20" height="10" x="90" y="270" fill="#34ac80" /><rect width="110" height="10" x="120" y="270" fill="#34ac80" /><rect width="20" height="10" x="90" y="280" fill="#34ac80" /><rect width="110" height="10" x="120" y="280" fill="#34ac80" /><rect width="20" height="10" x="90" y="290" fill="#34ac80" /><rect width="110" height="10" x="120" y="290" fill="#34ac80" /><rect width="20" height="10" x="90" y="300" fill="#34ac80" /><rect width="110" height="10" x="120" y="300" fill="#34ac80" /><rect width="20" height="10" x="90" y="310" fill="#34ac80" /><rect width="110" height="10" x="120" y="310" fill="#34ac80" /><rect width="10" height="10" x="90" y="210" fill="#235476" /><rect width="10" height="10" x="130" y="210" fill="#235476" /><rect width="10" height="10" x="160" y="210" fill="#235476" /><rect width="10" height="10" x="180" y="210" fill="#235476" /><rect width="10" height="10" x="210" y="210" fill="#235476" /><rect width="10" height="10" x="100" y="220" fill="#235476" /><rect width="10" height="10" x="130" y="220" fill="#235476" /><rect width="10" height="10" x="150" y="220" fill="#235476" /><rect width="10" height="10" x="170" y="220" fill="#235476" /><rect width="10" height="10" x="210" y="220" fill="#235476" /><rect width="30" height="10" x="110" y="230" fill="#235476" /><rect width="20" height="10" x="150" y="230" fill="#235476" /><rect width="20" height="10" x="190" y="230" fill="#235476" /><rect width="20" height="10" x="90" y="240" fill="#235476" /><rect width="30" height="10" x="130" y="240" fill="#235476" /><rect width="20" height="10" x="170" y="240" fill="#235476" /><rect width="10" height="10" x="200" y="240" fill="#235476" /><rect width="50" height="10" x="120" y="250" fill="#235476" /><rect width="10" height="10" x="210" y="250" fill="#235476" /><rect width="10" height="10" x="100" y="260" fill="#235476" /><rect width="60" height="10" x="130" y="260" fill="#235476" /><rect width="10" height="10" x="220" y="260" fill="#235476" /><rect width="10" height="10" x="90" y="270" fill="#235476" /><rect width="10" height="10" x="120" y="270" fill="#235476" /><rect width="10" height="10" x="140" y="270" fill="#235476" /><rect width="10" height="10" x="160" y="270" fill="#235476" /><rect width="30" height="10" x="190" y="270" fill="#235476" /><rect width="20" height="10" x="140" y="280" fill="#235476" /><rect width="10" height="10" x="170" y="280" fill="#235476" /><rect width="10" height="10" x="220" y="280" fill="#235476" /><rect width="10" height="10" x="100" y="290" fill="#235476" /><rect width="10" height="10" x="130" y="290" fill="#235476" /><rect width="10" height="10" x="150" y="290" fill="#235476" /><rect width="10" height="10" x="180" y="290" fill="#235476" /><rect width="20" height="10" x="210" y="290" fill="#235476" /><rect width="10" height="10" x="90" y="300" fill="#235476" /><rect width="10" height="10" x="130" y="300" fill="#235476" /><rect width="10" height="10" x="150" y="300" fill="#235476" /><rect width="20" height="10" x="190" y="300" fill="#235476" /><rect width="10" height="10" x="120" y="310" fill="#235476" /><rect width="10" height="10" x="150" y="310" fill="#235476" /><rect width="10" height="10" x="190" y="310" fill="#235476" /><rect width="10" height="10" x="220" y="310" fill="#235476" /><rect width="60" height="10" x="110" y="10" fill="#eff2fa" /><rect width="10" height="10" x="190" y="10" fill="#eff2fa" /><rect width="30" height="10" x="90" y="20" fill="#eff2fa" /><rect width="10" height="10" x="160" y="20" fill="#eff2fa" /><rect width="20" height="10" x="200" y="20" fill="#eff2fa" /><rect width="10" height="10" x="230" y="20" fill="#eff2fa" /><rect width="10" height="10" x="80" y="30" fill="#eff2fa" /><rect width="30" height="10" x="110" y="30" fill="#eff2fa" /><rect width="30" height="10" x="170" y="30" fill="#eff2fa" /><rect width="20" height="10" x="90" y="40" fill="#eff2fa" /><rect width="10" height="10" x="120" y="40" fill="#eff2fa" /><rect width="180" height="10" x="70" y="60" fill="#adc8cc" /><rect width="30" height="10" x="70" y="70" fill="#adc8cc" /><rect width="150" height="10" x="100" y="70" fill="#00499c" /><rect width="30" height="10" x="70" y="80" fill="#00499c" /><rect width="150" height="10" x="100" y="80" fill="#adc8cc" /><rect width="90" height="10" x="70" y="90" fill="#adc8cc" /><rect width="90" height="10" x="160" y="90" fill="#00499c" /><rect width="40" height="10" x="70" y="100" fill="#adc8cc" /><rect width="50" height="10" x="110" y="100" fill="#00499c" /><rect width="90" height="10" x="160" y="100" fill="#adc8cc" /><rect width="40" height="10" x="70" y="110" fill="#00499c" /><rect width="140" height="10" x="110" y="110" fill="#adc8cc" /><rect width="180" height="10" x="70" y="120" fill="#adc8cc" /><rect width="180" height="10" x="70" y="130" fill="#adc8cc" /><rect width="180" height="10" x="70" y="140" fill="#adc8cc" /><rect width="50" height="10" x="70" y="150" fill="#adc8cc" /><rect width="130" height="10" x="120" y="150" fill="#00499c" /><rect width="50" height="10" x="70" y="160" fill="#00499c" /><rect width="130" height="10" x="120" y="160" fill="#adc8cc" /><rect width="160" height="10" x="80" y="170" fill="#adc8cc" /><rect width="60" height="10" x="80" y="180" fill="#adc8cc" /><rect width="100" height="10" x="140" y="180" fill="#00499c" /><rect width="60" height="10" x="80" y="190" fill="#00499c" /><rect width="100" height="10" x="140" y="190" fill="#adc8cc" /><rect width="140" height="10" x="90" y="200" fill="#9cb4b8" /><rect width="60" height="10" x="100" y="110" fill="#000000" /><rect width="60" height="10" x="170" y="110" fill="#000000" /><rect width="30" height="10" x="100" y="120" fill="#000000" /><rect width="10" height="10" x="130" y="120" fill="#ff0e0e" /><rect width="20" height="10" x="140" y="120" fill="#000000" /><rect width="30" height="10" x="170" y="120" fill="#000000" /><rect width="10" height="10" x="200" y="120" fill="#ff0e0e" /><rect width="20" height="10" x="210" y="120" fill="#000000" /><rect width="160" height="10" x="70" y="130" fill="#000000" /><rect width="10" height="10" x="70" y="140" fill="#000000" /><rect width="10" height="10" x="100" y="140" fill="#000000" /><rect width="10" height="10" x="110" y="140" fill="#0adc4d" /><rect width="20" height="10" x="120" y="140" fill="#000000" /><rect width="10" height="10" x="140" y="140" fill="#1929f4" /><rect width="10" height="10" x="150" y="140" fill="#000000" /><rect width="10" height="10" x="170" y="140" fill="#000000" /><rect width="10" height="10" x="180" y="140" fill="#0adc4d" /><rect width="20" height="10" x="190" y="140" fill="#000000" /><rect width="10" height="10" x="210" y="140" fill="#1929f4" /><rect width="10" height="10" x="220" y="140" fill="#000000" /><rect width="10" height="10" x="70" y="150" fill="#000000" /><rect width="60" height="10" x="100" y="150" fill="#000000" /><rect width="60" height="10" x="170" y="150" fill="#000000" /><rect width="60" height="10" x="100" y="160" fill="#000000" /><rect width="60" height="10" x="170" y="160" fill="#000000" /></svg>