<svg width="320" height="320" viewBox="0 0 320 320" xmlns="http://www.w3.org/2000/svg" shape-rendering="crispEdges"><rect width="100%" height="100%" fill="#e1d7d5" /><rect width="140" height="10" x="90" y="210" fill="#80a72d" /><rect width="140" height="10" x="90" y="220" fill="#80a72d" /><rect width="140" height="10" x="90" y="230" fill="#80a72d" /><rect width="140" height="10" x="90" y="240" fill="#80a72d" /><rect width="20" height="10" x="90" y="250" fill="#80a72d" /><rect width="110" height="10" x="120" y="250" fill="#80a72d" /><rect width="20" height="10" x="90" y="260" fill="#80a72d" /><rect width="110" height="10" x="120" y="260" fill="#80a72d" /><rect width="20" height="10" x="90" y="270" fill="#80a72d" /><rect width="110" height="10" x="120" y="270" fill="#80a72d" /><rect width="20" height="10" x="90" y="280" fill="#80a72d" /><rect width="110" height="10" x="120" y="280" fill="#80a72d" /><rect width="20" height="10" x="90" y="290" fill="#80a72d" /><rect width="110" height="10" x="120" y="290" fill="#80a72d" /><rect width="20" height="10" x="90" y="300" fill="#80a72d" /><rect width="110" height="10" x="120" y="300" fill="#80a72d" /><rect width="20" height="10" x="90" y="310" fill="#80a72d" /><rect width="110" height="10" x="120" y="310" fill="#80a72d" /><rect width="30" height="10" x="160" y="230" fill="#f71248" /><rect width="10" height="10" x="130" y="240" fill="#cbc1bc" /><rect width="50" height="10" x="150" y="240" fill="#f20422" /><rect width="10" height="10" x="140" y="250" fill="#cbc1bc" /><rect width="50" height="10" x="150" y="250" fill="#ffffff" /><rect width="10" height="10" x="140" y="260" fill="#b8ced2" /><rect width="10" height="10" x="150" y="260" fill="#8bc0c5" /><rect width="40" height="10" x="160" y="260" fill="#97f2fb" /><rect width="10" height="10" x="200" y="260" fill="#b8ced2" /><rect width="10" height="10" x="140" y="270" fill="#b8ced2" /><rect width="10" height="10" x="150" y="270" fill="#97f2fb" /><rect width="10" height="10" x="160" y="270" fill="#8bc0c5" /><rect width="30" height="10" x="170" y="270" fill="#97f2fb" /><rect width="10" height="10" x="200" y="270" fill="#b8ced2" /><rect width="50" height="10" x="150" y="280" fill="#b8ced2" /><rect width="10" height="10" x="170" y="290" fill="#b8ced2" /><rect width="30" height="10" x="160" y="300" fill="#b8ced2" /><rect width="200" height="10" x="60" y="50" fill="#fff0be" /><rect width="200" height="10" x="60" y="60" fill="#fff0be" /><rect width="240" height="10" x="40" y="70" fill="#f8ddb0" /><rect width="240" height="10" x="40" y="80" fill="#f8ddb0" /><rect width="10" height="10" x="30" y="90" fill="#5a423f" /><rect width="10" height="10" x="40" y="90" fill="#876f69" /><rect width="10" height="10" x="50" y="90" fill="#5a423f" /><rect width="20" height="10" x="60" y="90" fill="#876f69" /><rect width="30" height="10" x="80" y="90" fill="#5a423f" /><rect width="30" height="10" x="110" y="90" fill="#876f69" /><rect width="10" height="10" x="140" y="90" fill="#5a423f" /><rect width="20" height="10" x="150" y="90" fill="#876f69" /><rect width="20" height="10" x="170" y="90" fill="#5a423f" /><rect width="20" height="10" x="190" y="90" fill="#876f69" /><rect width="30" height="10" x="210" y="90" fill="#5a423f" /><rect width="20" height="10" x="240" y="90" fill="#876f69" /><rect width="10" height="10" x="260" y="90" fill="#5a423f" /><rect width="10" height="10" x="270" y="90" fill="#876f69" /><rect width="10" height="10" x="280" y="90" fill="#5a423f" /><rect width="10" height="10" x="30" y="100" fill="#876f69" /><rect width="10" height="10" x="40" y="100" fill="#5a423f" /><rect width="10" height="10" x="50" y="100" fill="#876f69" /><rect width="20" height="10" x="60" y="100" fill="#5a423f" /><rect width="30" height="10" x="80" y="100" fill="#876f69" /><rect width="30" height="10" x="110" y="100" fill="#5a423f" /><rect width="10" height="10" x="140" y="100" fill="#876f69" /><rect width="20" height="10" x="150" y="100" fill="#5a423f" /><rect width="20" height="10" x="170" y="100" fill="#876f69" /><rect width="20" height="10" x="190" y="100" fill="#5a423f" /><rect width="30" height="10" x="210" y="100" fill="#876f69" /><rect width="20" height="10" x="240" y="100" fill="#5a423f" /><rect width="10" height="10" x="260" y="100" fill="#876f69" /><rect width="10" height="10" x="270" y="100" fill="#5a423f" /><rect width="10" height="10" x="280" y="100" fill="#876f69" /><rect width="220" height="10" x="50" y="110" fill="#ffffff" /><rect width="220" height="10" x="50" y="120" fill="#ffffff" /><rect width="200" height="10" x="60" y="130" fill="#ffffff" /><rect width="220" height="10" x="50" y="140" fill="#ffffff" /><rect width="220" height="10" x="50" y="150" fill="#ffffff" /><rect width="200" height="10" x="60" y="160" fill="#ffffff" /><rect width="220" height="10" x="50" y="170" fill="#ffffff" /><rect width="100" height="10" x="50" y="180" fill="#ffffff" /><rect width="30" height="10" x="150" y="180" fill="#dcd8d3" /><rect width="90" height="10" x="180" y="180" fill="#ffffff" /><rect width="200" height="10" x="60" y="190" fill="#ffffff" /><rect width="180" height="10" x="70" y="200" fill="#ffffff" /><rect width="60" height="10" x="100" y="110" fill="#f3322c" /><rect width="60" height="10" x="170" y="110" fill="#f3322c" /><rect width="10" height="10" x="100" y="120" fill="#f3322c" /><rect width="20" height="10" x="110" y="120" fill="#ffffff" /><rect width="20" height="10" x="130" y="120" fill="#000000" /><rect width="10" height="10" x="150" y="120" fill="#f3322c" /><rect width="10" height="10" x="170" y="120" fill="#f3322c" /><rect width="20" height="10" x="180" y="120" fill="#ffffff" /><rect width="20" height="10" x="200" y="120" fill="#000000" /><rect width="10" height="10" x="220" y="120" fill="#f3322c" /><rect width="40" height="10" x="70" y="130" fill="#f3322c" /><rect width="20" height="10" x="110" y="130" fill="#ffffff" /><rect width="20" height="10" x="130" y="130" fill="#000000" /><rect width="30" height="10" x="150" y="130" fill="#f3322c" /><rect width="20" height="10" x="180" y="130" fill="#ffffff" /><rect width="20" height="10" x="200" y="130" fill="#000000" /><rect width="10" height="10" x="220" y="130" fill="#f3322c" /><rect width="10" height="10" x="70" y="140" fill="#f3322c" /><rect width="10" height="10" x="100" y="140" fill="#f3322c" /><rect width="20" height="10" x="110" y="140" fill="#ffffff" /><rect width="20" height="10" x="130" y="140" fill="#000000" /><rect width="10" height="10" x="150" y="140" fill="#f3322c" /><rect width="10" height="10" x="170" y="140" fill="#f3322c" /><rect width="20" height="10" x="180" y="140" fill="#ffffff" /><rect width="20" height="10" x="200" y="140" fill="#000000" /><rect width="10" height="10" x="220" y="140" fill="#f3322c" /><rect width="10" height="10" x="70" y="150" fill="#f3322c" /><rect width="10" height="10" x="100" y="150" fill="#f3322c" /><rect width="20" height="10" x="110" y="150" fill="#ffffff" /><rect width="20" height="10" x="130" y="150" fill="#000000" /><rect width="10" height="10" x="150" y="150" fill="#f3322c" /><rect width="10" height="10" x="170" y="150" fill="#f3322c" /><rect width="20" height="10" x="180" y="150" fill="#ffffff" /><rect width="20" height="10" x="200" y="150" fill="#000000" /><rect width="10" height="10" x="220" y="150" fill="#f3322c" /><rect width="60" height="10" x="100" y="160" fill="#f3322c" /><rect width="60" height="10" x="170" y="160" fill="#f3322c" /></svg>