<svg width="320" height="320" viewBox="0 0 320 320" xmlns="http://www.w3.org/2000/svg" shape-rendering="crispEdges"><rect width="100%" height="100%" fill="#e1d7d5" /><rect width="140" height="10" x="90" y="210" fill="#4b4949" /><rect width="140" height="10" x="90" y="220" fill="#4b4949" /><rect width="140" height="10" x="90" y="230" fill="#4b4949" /><rect width="140" height="10" x="90" y="240" fill="#4b4949" /><rect width="20" height="10" x="90" y="250" fill="#4b4949" /><rect width="110" height="10" x="120" y="250" fill="#4b4949" /><rect width="20" height="10" x="90" y="260" fill="#4b4949" /><rect width="110" height="10" x="120" y="260" fill="#4b4949" /><rect width="20" height="10" x="90" y="270" fill="#4b4949" /><rect width="110" height="10" x="120" y="270" fill="#4b4949" /><rect width="20" height="10" x="90" y="280" fill="#4b4949" /><rect width="110" height="10" x="120" y="280" fill="#4b4949" /><rect width="20" height="10" x="90" y="290" fill="#4b4949" /><rect width="110" height="10" x="120" y="290" fill="#4b4949" /><rect width="20" height="10" x="90" y="300" fill="#4b4949" /><rect width="110" height="10" x="120" y="300" fill="#4b4949" /><rect width="20" height="10" x="90" y="310" fill="#4b4949" /><rect width="110" height="10" x="120" y="310" fill="#4b4949" /><rect width="10" height="10" x="130" y="220" fill="#c5b9a1" /><rect width="10" height="10" x="130" y="240" fill="#c5b9a1" /><rect width="10" height="10" x="150" y="240" fill="#ff1a0b" /><rect width="50" height="10" x="160" y="240" fill="#018146" /><rect width="10" height="10" x="210" y="250" fill="#018146" /><rect width="40" height="10" x="150" y="260" fill="#018146" /><rect width="10" height="10" x="210" y="260" fill="#018146" /><rect width="10" height="10" x="140" y="270" fill="#018146" /><rect width="10" height="10" x="190" y="270" fill="#018146" /><rect width="10" height="10" x="210" y="270" fill="#018146" /><rect width="10" height="10" x="140" y="280" fill="#018146" /><rect width="30" height="10" x="160" y="280" fill="#018146" /><rect width="10" height="10" x="210" y="280" fill="#018146" /><rect width="10" height="10" x="140" y="290" fill="#018146" /><rect width="10" height="10" x="210" y="290" fill="#018146" /><rect width="60" height="10" x="150" y="300" fill="#018146" /><rect width="10" height="10" x="80" y="50" fill="#7d635e" /><rect width="10" height="10" x="90" y="50" fill="#fff0ee" /><rect width="10" height="10" x="100" y="50" fill="#5a423f" /><rect width="10" height="10" x="110" y="50" fill="#7d635e" /><rect width="120" height="10" x="120" y="50" fill="#5a423f" /><rect width="30" height="10" x="60" y="60" fill="#fff0ee" /><rect width="20" height="10" x="90" y="60" fill="#7d635e" /><rect width="30" height="10" x="110" y="60" fill="#5a423f" /><rect width="70" height="10" x="140" y="60" fill="#fff0ee" /><rect width="50" height="10" x="210" y="60" fill="#5a423f" /><rect width="40" height="10" x="40" y="70" fill="#fff0ee" /><rect width="10" height="10" x="80" y="70" fill="#7d635e" /><rect width="10" height="10" x="90" y="70" fill="#fff0ee" /><rect width="10" height="10" x="100" y="70" fill="#5a423f" /><rect width="10" height="10" x="110" y="70" fill="#7d635e" /><rect width="90" height="10" x="120" y="70" fill="#5a423f" /><rect width="40" height="10" x="210" y="70" fill="#fff0ee" /><rect width="30" height="10" x="250" y="70" fill="#5a423f" /><rect width="50" height="10" x="40" y="80" fill="#fff0ee" /><rect width="20" height="10" x="90" y="80" fill="#7d635e" /><rect width="140" height="10" x="110" y="80" fill="#5a423f" /><rect width="20" height="10" x="250" y="80" fill="#fff0ee" /><rect width="20" height="10" x="270" y="80" fill="#5a423f" /><rect width="40" height="10" x="40" y="90" fill="#fff0ee" /><rect width="10" height="10" x="80" y="90" fill="#7d635e" /><rect width="10" height="10" x="90" y="90" fill="#fff0ee" /><rect width="10" height="10" x="100" y="90" fill="#5a423f" /><rect width="10" height="10" x="110" y="90" fill="#7d635e" /><rect width="150" height="10" x="120" y="90" fill="#5a423f" /><rect width="10" height="10" x="270" y="90" fill="#fff0ee" /><rect width="20" height="10" x="280" y="90" fill="#5a423f" /><rect width="30" height="10" x="40" y="100" fill="#fff0ee" /><rect width="180" height="10" x="70" y="100" fill="#ffffff" /><rect width="50" height="10" x="250" y="100" fill="#5a423f" /><rect width="220" height="10" x="50" y="110" fill="#ffffff" /><rect width="20" height="10" x="280" y="110" fill="#5a423f" /><rect width="220" height="10" x="50" y="120" fill="#ffffff" /><rect width="20" height="10" x="280" y="120" fill="#5a423f" /><rect width="200" height="10" x="60" y="130" fill="#ffffff" /><rect width="20" height="10" x="280" y="130" fill="#5a423f" /><rect width="220" height="10" x="50" y="140" fill="#ffffff" /><rect width="10" height="10" x="290" y="140" fill="#5a423f" /><rect width="220" height="10" x="50" y="150" fill="#ffffff" /><rect width="10" height="10" x="290" y="150" fill="#5a423f" /><rect width="200" height="10" x="60" y="160" fill="#ffffff" /><rect width="10" height="10" x="300" y="160" fill="#5a423f" /><rect width="220" height="10" x="50" y="170" fill="#ffffff" /><rect width="110" height="10" x="50" y="180" fill="#ffffff" /><rect width="20" height="10" x="160" y="180" fill="#dcd8d3" /><rect width="90" height="10" x="180" y="180" fill="#ffffff" /><rect width="200" height="10" x="60" y="190" fill="#ffffff" /><rect width="180" height="10" x="70" y="200" fill="#ffffff" /><rect width="60" height="10" x="100" y="110" fill="#000000" /><rect width="60" height="10" x="170" y="110" fill="#000000" /><rect width="30" height="10" x="100" y="120" fill="#000000" /><rect width="10" height="10" x="130" y="120" fill="#ff0e0e" /><rect width="20" height="10" x="140" y="120" fill="#000000" /><rect width="30" height="10" x="170" y="120" fill="#000000" /><rect width="10" height="10" x="200" y="120" fill="#ff0e0e" /><rect width="20" height="10" x="210" y="120" fill="#000000" /><rect width="160" height="10" x="70" y="130" fill="#000000" /><rect width="10" height="10" x="70" y="140" fill="#000000" /><rect width="10" height="10" x="100" y="140" fill="#000000" /><rect width="10" height="10" x="110" y="140" fill="#0adc4d" /><rect width="20" height="10" x="120" y="140" fill="#000000" /><rect width="10" height="10" x="140" y="140" fill="#1929f4" /><rect width="10" height="10" x="150" y="140" fill="#000000" /><rect width="10" height="10" x="170" y="140" fill="#000000" /><rect width="10" height="10" x="180" y="140" fill="#0adc4d" /><rect width="20" height="10" x="190" y="140" fill="#000000" /><rect width="10" height="10" x="210" y="140" fill="#1929f4" /><rect width="10" height="10" x="220" y="140" fill="#000000" /><rect width="10" height="10" x="70" y="150" fill="#000000" /><rect width="60" height="10" x="100" y="150" fill="#000000" /><rect width="60" height="10" x="170" y="150" fill="#000000" /><rect width="60" height="10" x="100" y="160" fill="#000000" /><rect width="60" height="10" x="170" y="160" fill="#000000" /></svg>