<svg width="320" height="320" viewBox="0 0 320 320" xmlns="http://www.w3.org/2000/svg" shape-rendering="crispEdges"><rect width="100%" height="100%" fill="#d5d7e1" /><rect width="140" height="10" x="90" y="210" fill="#e9265c" /><rect width="140" height="10" x="90" y="220" fill="#e9265c" /><rect width="140" height="10" x="90" y="230" fill="#e9265c" /><rect width="140" height="10" x="90" y="240" fill="#e9265c" /><rect width="20" height="10" x="90" y="250" fill="#e9265c" /><rect width="110" height="10" x="120" y="250" fill="#e9265c" /><rect width="20" height="10" x="90" y="260" fill="#e9265c" /><rect width="110" height="10" x="120" y="260" fill="#e9265c" /><rect width="20" height="10" x="90" y="270" fill="#e9265c" /><rect width="110" height="10" x="120" y="270" fill="#e9265c" /><rect width="20" height="10" x="90" y="280" fill="#e9265c" /><rect width="110" height="10" x="120" y="280" fill="#e9265c" /><rect width="20" height="10" x="90" y="290" fill="#e9265c" /><rect width="110" height="10" x="120" y="290" fill="#e9265c" /><rect width="20" height="10" x="90" y="300" fill="#e9265c" /><rect width="110" height="10" x="120" y="300" fill="#e9265c" /><rect width="20" height="10" x="90" y="310" fill="#e9265c" /><rect width="110" height="10" x="120" y="310" fill="#e9265c" /><rect width="20" height="10" x="150" y="220" fill="#ff0e0e" /><rect width="40" height="10" x="140" y="230" fill="#ff0e0e" /><rect width="30" height="10" x="130" y="240" fill="#ff0e0e" /><rect width="30" height="10" x="160" y="240" fill="#ffffff" /><rect width="30" height="10" x="130" y="250" fill="#ff0e0e" /><rect width="30" height="10" x="160" y="250" fill="#ffffff" /><rect width="20" height="10" x="140" y="260" fill="#ff0e0e" /><rect width="30" height="10" x="160" y="260" fill="#0079fc" /><rect width="50" height="10" x="150" y="270" fill="#0079fc" /><rect width="70" height="10" x="140" y="280" fill="#0079fc" /><rect width="70" height="10" x="140" y="290" fill="#0079fc" /><rect width="90" height="10" x="130" y="300" fill="#0079fc" /><rect width="20" height="10" x="30" y="90" fill="#ffffff" /><rect width="210" height="10" x="50" y="90" fill="#2b2834" /><rect width="40" height="10" x="20" y="100" fill="#ffffff" /><rect width="210" height="10" x="60" y="100" fill="#2b2834" /><rect width="60" height="10" x="10" y="110" fill="#ffffff" /><rect width="210" height="10" x="70" y="110" fill="#2b2834" /><rect width="60" height="10" x="10" y="120" fill="#ffffff" /><rect width="210" height="10" x="70" y="120" fill="#2b2834" /><rect width="20" height="10" x="10" y="130" fill="#ffffff" /><rect width="20" height="10" x="30" y="130" fill="#018146" /><rect width="20" height="10" x="50" y="130" fill="#ffffff" /><rect width="210" height="10" x="70" y="130" fill="#2b2834" /><rect width="10" height="10" x="10" y="140" fill="#ffffff" /><rect width="10" height="10" x="20" y="140" fill="#018146" /><rect width="20" height="10" x="30" y="140" fill="#70e890" /><rect width="20" height="10" x="50" y="140" fill="#ffffff" /><rect width="210" height="10" x="70" y="140" fill="#2b2834" /><rect width="10" height="10" x="10" y="150" fill="#ffffff" /><rect width="10" height="10" x="20" y="150" fill="#018146" /><rect width="20" height="10" x="30" y="150" fill="#70e890" /><rect width="20" height="10" x="50" y="150" fill="#ffffff" /><rect width="210" height="10" x="70" y="150" fill="#2b2834" /><rect width="20" height="10" x="10" y="160" fill="#ffffff" /><rect width="20" height="10" x="30" y="160" fill="#018146" /><rect width="20" height="10" x="50" y="160" fill="#ffffff" /><rect width="210" height="10" x="70" y="160" fill="#2b2834" /><rect width="60" height="10" x="10" y="170" fill="#ffffff" /><rect width="210" height="10" x="70" y="170" fill="#2b2834" /><rect width="60" height="10" x="10" y="180" fill="#ffffff" /><rect width="60" height="10" x="70" y="180" fill="#2b2834" /><rect width="10" height="10" x="130" y="180" fill="#000000" /><rect width="10" height="10" x="140" y="180" fill="#ffffff" /><rect width="40" height="10" x="150" y="180" fill="#000000" /><rect width="90" height="10" x="190" y="180" fill="#2b2834" /><rect width="40" height="10" x="20" y="190" fill="#ffffff" /><rect width="80" height="10" x="60" y="190" fill="#2b2834" /><rect width="40" height="10" x="140" y="190" fill="#000000" /><rect width="90" height="10" x="180" y="190" fill="#2b2834" /><rect width="20" height="10" x="30" y="200" fill="#ffffff" /><rect width="210" height="10" x="50" y="200" fill="#2b2834" /><rect width="60" height="10" x="100" y="110" fill="#ffef16" /><rect width="60" height="10" x="170" y="110" fill="#ffef16" /><rect width="10" height="10" x="100" y="120" fill="#ffef16" /><rect width="20" height="10" x="110" y="120" fill="#ffffff" /><rect width="20" height="10" x="130" y="120" fill="#000000" /><rect width="10" height="10" x="150" y="120" fill="#ffef16" /><rect width="10" height="10" x="170" y="120" fill="#ffef16" /><rect width="20" height="10" x="180" y="120" fill="#ffffff" /><rect width="20" height="10" x="200" y="120" fill="#000000" /><rect width="10" height="10" x="220" y="120" fill="#ffef16" /><rect width="40" height="10" x="70" y="130" fill="#ffef16" /><rect width="20" height="10" x="110" y="130" fill="#ffffff" /><rect width="20" height="10" x="130" y="130" fill="#000000" /><rect width="30" height="10" x="150" y="130" fill="#ffef16" /><rect width="20" height="10" x="180" y="130" fill="#ffffff" /><rect width="20" height="10" x="200" y="130" fill="#000000" /><rect width="10" height="10" x="220" y="130" fill="#ffef16" /><rect width="10" height="10" x="70" y="140" fill="#ffef16" /><rect width="10" height="10" x="100" y="140" fill="#ffef16" /><rect width="20" height="10" x="110" y="140" fill="#ffffff" /><rect width="20" height="10" x="130" y="140" fill="#000000" /><rect width="10" height="10" x="150" y="140" fill="#ffef16" /><rect width="10" height="10" x="170" y="140" fill="#ffef16" /><rect width="20" height="10" x="180" y="140" fill="#ffffff" /><rect width="20" height="10" x="200" y="140" fill="#000000" /><rect width="10" height="10" x="220" y="140" fill="#ffef16" /><rect width="10" height="10" x="70" y="150" fill="#ffef16" /><rect width="10" height="10" x="100" y="150" fill="#ffef16" /><rect width="20" height="10" x="110" y="150" fill="#ffffff" /><rect width="20" height="10" x="130" y="150" fill="#000000" /><rect width="10" height="10" x="150" y="150" fill="#ffef16" /><rect width="10" height="10" x="170" y="150" fill="#ffef16" /><rect width="20" height="10" x="180" y="150" fill="#ffffff" /><rect width="20" height="10" x="200" y="150" fill="#000000" /><rect width="10" height="10" x="220" y="150" fill="#ffef16" /><rect width="60" height="10" x="100" y="160" fill="#ffef16" /><rect width="60" height="10" x="170" y="160" fill="#ffef16" /></svg>