<svg width="320" height="320" viewBox="0 0 320 320" xmlns="http://www.w3.org/2000/svg" shape-rendering="crispEdges"><rect width="100%" height="100%" fill="#d5d7e1" /><rect width="140" height="10" x="90" y="210" fill="#068940" /><rect width="140" height="10" x="90" y="220" fill="#068940" /><rect width="140" height="10" x="90" y="230" fill="#068940" /><rect width="140" height="10" x="90" y="240" fill="#068940" /><rect width="20" height="10" x="90" y="250" fill="#068940" /><rect width="110" height="10" x="120" y="250" fill="#068940" /><rect width="20" height="10" x="90" y="260" fill="#068940" /><rect width="110" height="10" x="120" y="260" fill="#068940" /><rect width="20" height="10" x="90" y="270" fill="#068940" /><rect width="110" height="10" x="120" y="270" fill="#068940" /><rect width="20" height="10" x="90" y="280" fill="#068940" /><rect width="110" height="10" x="120" y="280" fill="#068940" /><rect width="20" height="10" x="90" y="290" fill="#068940" /><rect width="110" height="10" x="120" y="290" fill="#068940" /><rect width="20" height="10" x="90" y="300" fill="#068940" /><rect width="110" height="10" x="120" y="300" fill="#068940" /><rect width="20" height="10" x="90" y="310" fill="#068940" /><rect width="110" height="10" x="120" y="310" fill="#068940" /><rect width="10" height="10" x="140" y="220" fill="#fdcef2" /><rect width="10" height="10" x="200" y="220" fill="#fdcef2" /><rect width="10" height="10" x="130" y="230" fill="#fdcef2" /><rect width="10" height="10" x="140" y="230" fill="#ffffff" /><rect width="10" height="10" x="150" y="230" fill="#fdcef2" /><rect width="10" height="10" x="190" y="230" fill="#fdcef2" /><rect width="10" height="10" x="200" y="230" fill="#ffffff" /><rect width="10" height="10" x="210" y="230" fill="#fdcef2" /><rect width="10" height="10" x="140" y="240" fill="#fdcef2" /><rect width="10" height="10" x="200" y="240" fill="#fdcef2" /><rect width="10" height="10" x="170" y="250" fill="#fdcef2" /><rect width="10" height="10" x="160" y="260" fill="#fdcef2" /><rect width="10" height="10" x="170" y="260" fill="#ffffff" /><rect width="10" height="10" x="180" y="260" fill="#fdcef2" /><rect width="10" height="10" x="170" y="270" fill="#fdcef2" /><rect width="10" height="10" x="140" y="280" fill="#fdcef2" /><rect width="10" height="10" x="200" y="280" fill="#fdcef2" /><rect width="10" height="10" x="130" y="290" fill="#fdcef2" /><rect width="10" height="10" x="140" y="290" fill="#ffffff" /><rect width="10" height="10" x="150" y="290" fill="#fdcef2" /><rect width="10" height="10" x="190" y="290" fill="#fdcef2" /><rect width="10" height="10" x="200" y="290" fill="#ffffff" /><rect width="10" height="10" x="210" y="290" fill="#fdcef2" /><rect width="10" height="10" x="140" y="300" fill="#fdcef2" /><rect width="10" height="10" x="200" y="300" fill="#fdcef2" /><rect width="120" height="10" x="100" y="40" fill="#f3322c" /><rect width="10" height="10" x="100" y="50" fill="#5a423f" /><rect width="10" height="10" x="110" y="50" fill="#c54e38" /><rect width="10" height="10" x="120" y="50" fill="#5a423f" /><rect width="20" height="10" x="130" y="50" fill="#c54e38" /><rect width="30" height="10" x="150" y="50" fill="#5a423f" /><rect width="10" height="10" x="180" y="50" fill="#c54e38" /><rect width="10" height="10" x="190" y="50" fill="#5a423f" /><rect width="20" height="10" x="200" y="50" fill="#c54e38" /><rect width="10" height="10" x="100" y="60" fill="#c54e38" /><rect width="20" height="10" x="110" y="60" fill="#5a423f" /><rect width="10" height="10" x="130" y="60" fill="#c54e38" /><rect width="10" height="10" x="140" y="60" fill="#5a423f" /><rect width="10" height="10" x="150" y="60" fill="#c54e38" /><rect width="10" height="10" x="160" y="60" fill="#5a423f" /><rect width="10" height="10" x="170" y="60" fill="#c54e38" /><rect width="20" height="10" x="180" y="60" fill="#5a423f" /><rect width="10" height="10" x="200" y="60" fill="#c54e38" /><rect width="10" height="10" x="210" y="60" fill="#5a423f" /><rect width="140" height="10" x="90" y="70" fill="#f3322c" /><rect width="140" height="10" x="90" y="80" fill="#5a423f" /><rect width="20" height="10" x="90" y="90" fill="#5a423f" /><rect width="10" height="10" x="110" y="90" fill="#c54e38" /><rect width="10" height="10" x="120" y="90" fill="#5a423f" /><rect width="20" height="10" x="130" y="90" fill="#c54e38" /><rect width="30" height="10" x="150" y="90" fill="#5a423f" /><rect width="10" height="10" x="180" y="90" fill="#c54e38" /><rect width="10" height="10" x="190" y="90" fill="#5a423f" /><rect width="20" height="10" x="200" y="90" fill="#c54e38" /><rect width="10" height="10" x="220" y="90" fill="#5a423f" /><rect width="10" height="10" x="90" y="100" fill="#5a423f" /><rect width="10" height="10" x="100" y="100" fill="#c54e38" /><rect width="20" height="10" x="110" y="100" fill="#5a423f" /><rect width="10" height="10" x="130" y="100" fill="#c54e38" /><rect width="10" height="10" x="140" y="100" fill="#5a423f" /><rect width="10" height="10" x="150" y="100" fill="#c54e38" /><rect width="10" height="10" x="160" y="100" fill="#5a423f" /><rect width="10" height="10" x="170" y="100" fill="#c54e38" /><rect width="20" height="10" x="180" y="100" fill="#5a423f" /><rect width="10" height="10" x="200" y="100" fill="#c54e38" /><rect width="10" height="10" x="210" y="100" fill="#5a423f" /><rect width="10" height="10" x="220" y="100" fill="#c54e38" /><rect width="140" height="10" x="90" y="110" fill="#5a423f" /><rect width="160" height="10" x="80" y="120" fill="#f3322c" /><rect width="160" height="10" x="80" y="130" fill="#5a423f" /><rect width="10" height="10" x="80" y="140" fill="#5a423f" /><rect width="10" height="10" x="90" y="140" fill="#c54e38" /><rect width="10" height="10" x="100" y="140" fill="#5a423f" /><rect width="20" height="10" x="110" y="140" fill="#c54e38" /><rect width="30" height="10" x="130" y="140" fill="#5a423f" /><rect width="10" height="10" x="160" y="140" fill="#c54e38" /><rect width="10" height="10" x="170" y="140" fill="#5a423f" /><rect width="20" height="10" x="180" y="140" fill="#c54e38" /><rect width="30" height="10" x="200" y="140" fill="#5a423f" /><rect width="10" height="10" x="230" y="140" fill="#c54e38" /><rect width="10" height="10" x="80" y="150" fill="#c54e38" /><rect width="20" height="10" x="90" y="150" fill="#5a423f" /><rect width="10" height="10" x="110" y="150" fill="#c54e38" /><rect width="10" height="10" x="120" y="150" fill="#5a423f" /><rect width="10" height="10" x="130" y="150" fill="#c54e38" /><rect width="10" height="10" x="140" y="150" fill="#5a423f" /><rect width="10" height="10" x="150" y="150" fill="#c54e38" /><rect width="20" height="10" x="160" y="150" fill="#5a423f" /><rect width="10" height="10" x="180" y="150" fill="#c54e38" /><rect width="10" height="10" x="190" y="150" fill="#5a423f" /><rect width="10" height="10" x="200" y="150" fill="#c54e38" /><rect width="10" height="10" x="210" y="150" fill="#5a423f" /><rect width="10" height="10" x="220" y="150" fill="#c54e38" /><rect width="10" height="10" x="230" y="150" fill="#5a423f" /><rect width="160" height="10" x="80" y="160" fill="#5a423f" /><rect width="180" height="10" x="70" y="170" fill="#f3322c" /><rect width="180" height="10" x="70" y="180" fill="#5a423f" /><rect width="10" height="10" x="70" y="190" fill="#c54e38" /><rect width="30" height="10" x="80" y="190" fill="#5a423f" /><rect width="10" height="10" x="110" y="190" fill="#c54e38" /><rect width="10" height="10" x="120" y="190" fill="#5a423f" /><rect width="20" height="10" x="130" y="190" fill="#c54e38" /><rect width="30" height="10" x="150" y="190" fill="#5a423f" /><rect width="10" height="10" x="180" y="190" fill="#fbc800" /><rect width="10" height="10" x="190" y="190" fill="#5a423f" /><rect width="20" height="10" x="200" y="190" fill="#c54e38" /><rect width="30" height="10" x="220" y="190" fill="#5a423f" /><rect width="10" height="10" x="70" y="200" fill="#5a423f" /><rect width="10" height="10" x="80" y="200" fill="#c54e38" /><rect width="10" height="10" x="90" y="200" fill="#5a423f" /><rect width="10" height="10" x="100" y="200" fill="#c54e38" /><rect width="20" height="10" x="110" y="200" fill="#5a423f" /><rect width="10" height="10" x="130" y="200" fill="#c54e38" /><rect width="10" height="10" x="140" y="200" fill="#5a423f" /><rect width="10" height="10" x="150" y="200" fill="#c54e38" /><rect width="10" height="10" x="160" y="200" fill="#5a423f" /><rect width="10" height="10" x="170" y="200" fill="#fbc800" /><rect width="20" height="10" x="180" y="200" fill="#5a423f" /><rect width="10" height="10" x="200" y="200" fill="#c54e38" /><rect width="10" height="10" x="210" y="200" fill="#5a423f" /><rect width="10" height="10" x="220" y="200" fill="#c54e38" /><rect width="10" height="10" x="230" y="200" fill="#5a423f" /><rect width="10" height="10" x="240" y="200" fill="#c54e38" /><rect width="180" height="10" x="70" y="210" fill="#5a423f" /><rect width="60" height="10" x="100" y="110" fill="#e8705b" /><rect width="60" height="10" x="170" y="110" fill="#e8705b" /><rect width="10" height="10" x="100" y="120" fill="#e8705b" /><rect width="20" height="10" x="110" y="120" fill="#ffffff" /><rect width="20" height="10" x="130" y="120" fill="#000000" /><rect width="10" height="10" x="150" y="120" fill="#e8705b" /><rect width="10" height="10" x="170" y="120" fill="#e8705b" /><rect width="20" height="10" x="180" y="120" fill="#ffffff" /><rect width="20" height="10" x="200" y="120" fill="#000000" /><rect width="10" height="10" x="220" y="120" fill="#e8705b" /><rect width="40" height="10" x="70" y="130" fill="#e8705b" /><rect width="20" height="10" x="110" y="130" fill="#ffffff" /><rect width="20" height="10" x="130" y="130" fill="#000000" /><rect width="30" height="10" x="150" y="130" fill="#e8705b" /><rect width="20" height="10" x="180" y="130" fill="#ffffff" /><rect width="20" height="10" x="200" y="130" fill="#000000" /><rect width="10" height="10" x="220" y="130" fill="#e8705b" /><rect width="10" height="10" x="70" y="140" fill="#e8705b" /><rect width="10" height="10" x="100" y="140" fill="#e8705b" /><rect width="20" height="10" x="110" y="140" fill="#ffffff" /><rect width="20" height="10" x="130" y="140" fill="#000000" /><rect width="10" height="10" x="150" y="140" fill="#e8705b" /><rect width="10" height="10" x="170" y="140" fill="#e8705b" /><rect width="20" height="10" x="180" y="140" fill="#ffffff" /><rect width="20" height="10" x="200" y="140" fill="#000000" /><rect width="10" height="10" x="220" y="140" fill="#e8705b" /><rect width="10" height="10" x="70" y="150" fill="#e8705b" /><rect width="10" height="10" x="100" y="150" fill="#e8705b" /><rect width="20" height="10" x="110" y="150" fill="#ffffff" /><rect width="20" height="10" x="130" y="150" fill="#000000" /><rect width="10" height="10" x="150" y="150" fill="#e8705b" /><rect width="10" height="10" x="170" y="150" fill="#e8705b" /><rect width="20" height="10" x="180" y="150" fill="#ffffff" /><rect width="20" height="10" x="200" y="150" fill="#000000" /><rect width="10" height="10" x="220" y="150" fill="#e8705b" /><rect width="60" height="10" x="100" y="160" fill="#e8705b" /><rect width="60" height="10" x="170" y="160" fill="#e8705b" /></svg>