<svg width="320" height="320" viewBox="0 0 320 320" xmlns="http://www.w3.org/2000/svg" shape-rendering="crispEdges"><rect width="100%" height="100%" fill="#e1d7d5" /><rect width="140" height="10" x="90" y="210" fill="#4bea69" /><rect width="140" height="10" x="90" y="220" fill="#4bea69" /><rect width="140" height="10" x="90" y="230" fill="#4bea69" /><rect width="140" height="10" x="90" y="240" fill="#4bea69" /><rect width="20" height="10" x="90" y="250" fill="#4bea69" /><rect width="110" height="10" x="120" y="250" fill="#4bea69" /><rect width="20" height="10" x="90" y="260" fill="#4bea69" /><rect width="110" height="10" x="120" y="260" fill="#4bea69" /><rect width="20" height="10" x="90" y="270" fill="#4bea69" /><rect width="110" height="10" x="120" y="270" fill="#4bea69" /><rect width="20" height="10" x="90" y="280" fill="#4bea69" /><rect width="110" height="10" x="120" y="280" fill="#4bea69" /><rect width="20" height="10" x="90" y="290" fill="#4bea69" /><rect width="110" height="10" x="120" y="290" fill="#4bea69" /><rect width="20" height="10" x="90" y="300" fill="#4bea69" /><rect width="110" height="10" x="120" y="300" fill="#4bea69" /><rect width="20" height="10" x="90" y="310" fill="#4bea69" /><rect width="110" height="10" x="120" y="310" fill="#4bea69" /><rect width="90" height="10" x="130" y="220" fill="#e8e8e2" /><rect width="10" height="10" x="130" y="230" fill="#e8e8e2" /><rect width="70" height="10" x="140" y="230" fill="#ffffff" /><rect width="10" height="10" x="210" y="230" fill="#e8e8e2" /><rect width="10" height="10" x="130" y="240" fill="#e8e8e2" /><rect width="10" height="10" x="140" y="240" fill="#ffffff" /><rect width="10" height="10" x="150" y="240" fill="#4b4949" /><rect width="50" height="10" x="160" y="240" fill="#ffffff" /><rect width="10" height="10" x="210" y="240" fill="#e8e8e2" /><rect width="10" height="10" x="130" y="250" fill="#e8e8e2" /><rect width="70" height="10" x="140" y="250" fill="#ffffff" /><rect width="10" height="10" x="210" y="250" fill="#e8e8e2" /><rect width="10" height="10" x="130" y="260" fill="#e8e8e2" /><rect width="70" height="10" x="140" y="260" fill="#ffffff" /><rect width="10" height="10" x="210" y="260" fill="#e8e8e2" /><rect width="10" height="10" x="130" y="270" fill="#e8e8e2" /><rect width="70" height="10" x="140" y="270" fill="#ffffff" /><rect width="10" height="10" x="210" y="270" fill="#e8e8e2" /><rect width="10" height="10" x="130" y="280" fill="#e8e8e2" /><rect width="50" height="10" x="140" y="280" fill="#ffffff" /><rect width="10" height="10" x="190" y="280" fill="#4b4949" /><rect width="10" height="10" x="200" y="280" fill="#ffffff" /><rect width="10" height="10" x="210" y="280" fill="#e8e8e2" /><rect width="10" height="10" x="130" y="290" fill="#e8e8e2" /><rect width="70" height="10" x="140" y="290" fill="#ffffff" /><rect width="10" height="10" x="210" y="290" fill="#e8e8e2" /><rect width="90" height="10" x="130" y="300" fill="#e8e8e2" /><rect width="90" height="10" x="40" y="40" fill="#f8ddb0" /><rect width="20" height="10" x="30" y="50" fill="#f8ddb0" /><rect width="50" height="10" x="50" y="50" fill="#fff0be" /><rect width="10" height="10" x="100" y="50" fill="#f8ddb0" /><rect width="10" height="10" x="110" y="50" fill="#fff0be" /><rect width="30" height="10" x="120" y="50" fill="#f8ddb0" /><rect width="30" height="10" x="150" y="50" fill="#2b2834" /><rect width="70" height="10" x="180" y="50" fill="#f8ddb0" /><rect width="10" height="10" x="250" y="50" fill="#fff0be" /><rect width="10" height="10" x="260" y="50" fill="#58565c" /><rect width="10" height="10" x="30" y="60" fill="#f8ddb0" /><rect width="30" height="10" x="40" y="60" fill="#fff0be" /><rect width="80" height="10" x="70" y="60" fill="#f8ddb0" /><rect width="30" height="10" x="150" y="60" fill="#2b2834" /><rect width="80" height="10" x="180" y="60" fill="#f8ddb0" /><rect width="10" height="10" x="260" y="60" fill="#fff0be" /><rect width="10" height="10" x="270" y="60" fill="#58565c" /><rect width="120" height="10" x="30" y="70" fill="#f8ddb0" /><rect width="30" height="10" x="150" y="70" fill="#2b2834" /><rect width="30" height="10" x="180" y="70" fill="#f8ddb0" /><rect width="10" height="10" x="210" y="70" fill="#fff0be" /><rect width="10" height="10" x="220" y="70" fill="#58565c" /><rect width="20" height="10" x="230" y="70" fill="#f8ddb0" /><rect width="10" height="10" x="250" y="70" fill="#58565c" /><rect width="10" height="10" x="260" y="70" fill="#f8ddb0" /><rect width="10" height="10" x="270" y="70" fill="#fff0be" /><rect width="10" height="10" x="280" y="70" fill="#58565c" /><rect width="90" height="10" x="30" y="80" fill="#f8ddb0" /><rect width="30" height="10" x="120" y="80" fill="#58565c" /><rect width="30" height="10" x="150" y="80" fill="#2b2834" /><rect width="20" height="10" x="180" y="80" fill="#58565c" /><rect width="20" height="10" x="200" y="80" fill="#f8ddb0" /><rect width="10" height="10" x="220" y="80" fill="#fff0be" /><rect width="10" height="10" x="230" y="80" fill="#58565c" /><rect width="10" height="10" x="240" y="80" fill="#f8ddb0" /><rect width="10" height="10" x="250" y="80" fill="#fff0be" /><rect width="10" height="10" x="260" y="80" fill="#58565c" /><rect width="10" height="10" x="270" y="80" fill="#f8ddb0" /><rect width="10" height="10" x="280" y="80" fill="#58565c" /><rect width="40" height="10" x="30" y="90" fill="#f8ddb0" /><rect width="50" height="10" x="70" y="90" fill="#58565c" /><rect width="30" height="10" x="120" y="90" fill="#ffffff" /><rect width="30" height="10" x="150" y="90" fill="#2b2834" /><rect width="20" height="10" x="180" y="90" fill="#ffffff" /><rect width="50" height="10" x="200" y="90" fill="#58565c" /><rect width="10" height="10" x="250" y="90" fill="#f8ddb0" /><rect width="10" height="10" x="260" y="90" fill="#fff0be" /><rect width="20" height="10" x="270" y="90" fill="#58565c" /><rect width="30" height="10" x="40" y="100" fill="#f8ddb0" /><rect width="80" height="10" x="70" y="100" fill="#ffffff" /><rect width="30" height="10" x="150" y="100" fill="#2b2834" /><rect width="70" height="10" x="180" y="100" fill="#ffffff" /><rect width="30" height="10" x="250" y="100" fill="#58565c" /><rect width="100" height="10" x="50" y="110" fill="#ffffff" /><rect width="30" height="10" x="150" y="110" fill="#2b2834" /><rect width="90" height="10" x="180" y="110" fill="#ffffff" /><rect width="100" height="10" x="50" y="120" fill="#ffffff" /><rect width="30" height="10" x="150" y="120" fill="#2b2834" /><rect width="90" height="10" x="180" y="120" fill="#ffffff" /><rect width="90" height="10" x="60" y="130" fill="#ffffff" /><rect width="30" height="10" x="150" y="130" fill="#2b2834" /><rect width="80" height="10" x="180" y="130" fill="#ffffff" /><rect width="100" height="10" x="50" y="140" fill="#ffffff" /><rect width="30" height="10" x="150" y="140" fill="#2b2834" /><rect width="90" height="10" x="180" y="140" fill="#ffffff" /><rect width="100" height="10" x="50" y="150" fill="#ffffff" /><rect width="30" height="10" x="150" y="150" fill="#2b2834" /><rect width="90" height="10" x="180" y="150" fill="#ffffff" /><rect width="90" height="10" x="60" y="160" fill="#ffffff" /><rect width="30" height="10" x="150" y="160" fill="#2b2834" /><rect width="80" height="10" x="180" y="160" fill="#ffffff" /><rect width="100" height="10" x="50" y="170" fill="#ffffff" /><rect width="30" height="10" x="150" y="170" fill="#2b2834" /><rect width="90" height="10" x="180" y="170" fill="#ffffff" /><rect width="100" height="10" x="50" y="180" fill="#ffffff" /><rect width="30" height="10" x="150" y="180" fill="#dcd8d3" /><rect width="90" height="10" x="180" y="180" fill="#ffffff" /><rect width="90" height="10" x="60" y="190" fill="#ffffff" /><rect width="30" height="10" x="150" y="190" fill="#1f1d29" /><rect width="80" height="10" x="180" y="190" fill="#ffffff" /><rect width="80" height="10" x="70" y="200" fill="#ffffff" /><rect width="30" height="10" x="150" y="200" fill="#1f1d29" /><rect width="70" height="10" x="180" y="200" fill="#ffffff" /><rect width="60" height="10" x="100" y="110" fill="#000000" /><rect width="60" height="10" x="170" y="110" fill="#000000" /><rect width="10" height="10" x="100" y="120" fill="#000000" /><rect width="20" height="10" x="110" y="120" fill="#ffffff" /><rect width="20" height="10" x="130" y="120" fill="#ff0e0e" /><rect width="10" height="10" x="150" y="120" fill="#000000" /><rect width="10" height="10" x="170" y="120" fill="#000000" /><rect width="20" height="10" x="180" y="120" fill="#ffffff" /><rect width="20" height="10" x="200" y="120" fill="#ff0e0e" /><rect width="10" height="10" x="220" y="120" fill="#000000" /><rect width="40" height="10" x="70" y="130" fill="#000000" /><rect width="20" height="10" x="110" y="130" fill="#ffffff" /><rect width="20" height="10" x="130" y="130" fill="#ff0e0e" /><rect width="30" height="10" x="150" y="130" fill="#000000" /><rect width="20" height="10" x="180" y="130" fill="#ffffff" /><rect width="20" height="10" x="200" y="130" fill="#ff0e0e" /><rect width="10" height="10" x="220" y="130" fill="#000000" /><rect width="10" height="10" x="70" y="140" fill="#000000" /><rect width="10" height="10" x="100" y="140" fill="#000000" /><rect width="20" height="10" x="110" y="140" fill="#ffffff" /><rect width="20" height="10" x="130" y="140" fill="#ff0e0e" /><rect width="10" height="10" x="150" y="140" fill="#000000" /><rect width="10" height="10" x="170" y="140" fill="#000000" /><rect width="20" height="10" x="180" y="140" fill="#ffffff" /><rect width="20" height="10" x="200" y="140" fill="#ff0e0e" /><rect width="10" height="10" x="220" y="140" fill="#000000" /><rect width="10" height="10" x="70" y="150" fill="#000000" /><rect width="10" height="10" x="100" y="150" fill="#000000" /><rect width="20" height="10" x="110" y="150" fill="#ffffff" /><rect width="20" height="10" x="130" y="150" fill="#ff0e0e" /><rect width="10" height="10" x="150" y="150" fill="#000000" /><rect width="10" height="10" x="170" y="150" fill="#000000" /><rect width="20" height="10" x="180" y="150" fill="#ffffff" /><rect width="20" height="10" x="200" y="150" fill="#ff0e0e" /><rect width="10" height="10" x="220" y="150" fill="#000000" /><rect width="60" height="10" x="100" y="160" fill="#000000" /><rect width="60" height="10" x="170" y="160" fill="#000000" /></svg>