<svg width="320" height="320" viewBox="0 0 320 320" xmlns="http://www.w3.org/2000/svg" shape-rendering="crispEdges"><rect width="100%" height="100%" fill="#d5d7e1" /><rect width="140" height="10" x="90" y="210" fill="#b9185c" /><rect width="140" height="10" x="90" y="220" fill="#b9185c" /><rect width="140" height="10" x="90" y="230" fill="#b9185c" /><rect width="140" height="10" x="90" y="240" fill="#b9185c" /><rect width="20" height="10" x="90" y="250" fill="#b9185c" /><rect width="110" height="10" x="120" y="250" fill="#b9185c" /><rect width="20" height="10" x="90" y="260" fill="#b9185c" /><rect width="110" height="10" x="120" y="260" fill="#b9185c" /><rect width="20" height="10" x="90" y="270" fill="#b9185c" /><rect width="110" height="10" x="120" y="270" fill="#b9185c" /><rect width="20" height="10" x="90" y="280" fill="#b9185c" /><rect width="110" height="10" x="120" y="280" fill="#b9185c" /><rect width="20" height="10" x="90" y="290" fill="#b9185c" /><rect width="110" height="10" x="120" y="290" fill="#b9185c" /><rect width="20" height="10" x="90" y="300" fill="#b9185c" /><rect width="110" height="10" x="120" y="300" fill="#b9185c" /><rect width="20" height="10" x="90" y="310" fill="#b9185c" /><rect width="110" height="10" x="120" y="310" fill="#b9185c" /><rect width="10" height="10" x="160" y="240" fill="#fccf25" /><rect width="10" height="10" x="170" y="240" fill="#4b4949" /><rect width="10" height="10" x="180" y="240" fill="#fccf25" /><rect width="10" height="10" x="160" y="250" fill="#ffffff" /><rect width="10" height="10" x="170" y="250" fill="#4b4949" /><rect width="10" height="10" x="180" y="250" fill="#ffffff" /><rect width="70" height="10" x="140" y="260" fill="#d4a015" /><rect width="10" height="10" x="150" y="270" fill="#d4a015" /><rect width="10" height="10" x="190" y="270" fill="#d4a015" /><rect width="20" height="10" x="50" y="50" fill="#f9e8dd" /><rect width="10" height="10" x="70" y="50" fill="#f86100" /><rect width="20" height="10" x="80" y="50" fill="#f9e8dd" /><rect width="10" height="10" x="100" y="50" fill="#f86100" /><rect width="20" height="10" x="110" y="50" fill="#f9e8dd" /><rect width="10" height="10" x="130" y="50" fill="#f86100" /><rect width="20" height="10" x="140" y="50" fill="#f9e8dd" /><rect width="10" height="10" x="160" y="50" fill="#f86100" /><rect width="20" height="10" x="170" y="50" fill="#f9e8dd" /><rect width="10" height="10" x="190" y="50" fill="#f86100" /><rect width="20" height="10" x="200" y="50" fill="#f9e8dd" /><rect width="10" height="10" x="220" y="50" fill="#f86100" /><rect width="10" height="10" x="230" y="50" fill="#f9e8dd" /><rect width="40" height="10" x="40" y="60" fill="#f9e8dd" /><rect width="10" height="10" x="80" y="60" fill="#f86100" /><rect width="20" height="10" x="90" y="60" fill="#f9e8dd" /><rect width="10" height="10" x="110" y="60" fill="#f86100" /><rect width="20" height="10" x="120" y="60" fill="#f9e8dd" /><rect width="10" height="10" x="140" y="60" fill="#f86100" /><rect width="20" height="10" x="150" y="60" fill="#f9e8dd" /><rect width="10" height="10" x="170" y="60" fill="#f86100" /><rect width="20" height="10" x="180" y="60" fill="#f9e8dd" /><rect width="10" height="10" x="200" y="60" fill="#f86100" /><rect width="20" height="10" x="210" y="60" fill="#f9e8dd" /><rect width="10" height="10" x="230" y="60" fill="#f86100" /><rect width="10" height="10" x="240" y="60" fill="#f9e8dd" /><rect width="20" height="10" x="250" y="60" fill="#f83001" /><rect width="50" height="10" x="30" y="70" fill="#f9e8dd" /><rect width="10" height="10" x="80" y="70" fill="#f86100" /><rect width="20" height="10" x="90" y="70" fill="#f9e8dd" /><rect width="10" height="10" x="110" y="70" fill="#f86100" /><rect width="20" height="10" x="120" y="70" fill="#f9e8dd" /><rect width="10" height="10" x="140" y="70" fill="#f86100" /><rect width="20" height="10" x="150" y="70" fill="#f9e8dd" /><rect width="10" height="10" x="170" y="70" fill="#f86100" /><rect width="20" height="10" x="180" y="70" fill="#f9e8dd" /><rect width="10" height="10" x="200" y="70" fill="#f86100" /><rect width="20" height="10" x="210" y="70" fill="#f9e8dd" /><rect width="10" height="10" x="230" y="70" fill="#f86100" /><rect width="10" height="10" x="240" y="70" fill="#f9e8dd" /><rect width="40" height="10" x="250" y="70" fill="#f83001" /><rect width="40" height="10" x="30" y="80" fill="#f9e8dd" /><rect width="10" height="10" x="70" y="80" fill="#f86100" /><rect width="20" height="10" x="80" y="80" fill="#f9e8dd" /><rect width="10" height="10" x="100" y="80" fill="#f86100" /><rect width="20" height="10" x="110" y="80" fill="#f9e8dd" /><rect width="10" height="10" x="130" y="80" fill="#f86100" /><rect width="20" height="10" x="140" y="80" fill="#f9e8dd" /><rect width="10" height="10" x="160" y="80" fill="#f86100" /><rect width="20" height="10" x="170" y="80" fill="#f9e8dd" /><rect width="10" height="10" x="190" y="80" fill="#f86100" /><rect width="20" height="10" x="200" y="80" fill="#f9e8dd" /><rect width="10" height="10" x="220" y="80" fill="#f86100" /><rect width="20" height="10" x="230" y="80" fill="#f9e8dd" /><rect width="50" height="10" x="250" y="80" fill="#f83001" /><rect width="210" height="10" x="30" y="90" fill="#f9e8dd" /><rect width="30" height="10" x="240" y="90" fill="#ffffff" /><rect width="10" height="10" x="280" y="90" fill="#f83001" /><rect width="10" height="10" x="300" y="90" fill="#f83001" /><rect width="20" height="10" x="40" y="100" fill="#f9e8dd" /><rect width="200" height="10" x="60" y="100" fill="#ffffff" /><rect width="10" height="10" x="290" y="100" fill="#f83001" /><rect width="220" height="10" x="50" y="110" fill="#ffffff" /><rect width="220" height="10" x="50" y="120" fill="#ffffff" /><rect width="200" height="10" x="60" y="130" fill="#ffffff" /><rect width="220" height="10" x="50" y="140" fill="#ffffff" /><rect width="220" height="10" x="50" y="150" fill="#ffffff" /><rect width="200" height="10" x="60" y="160" fill="#ffffff" /><rect width="220" height="10" x="50" y="170" fill="#ffffff" /><rect width="100" height="10" x="50" y="180" fill="#ffffff" /><rect width="30" height="10" x="150" y="180" fill="#dcd8d3" /><rect width="90" height="10" x="180" y="180" fill="#ffffff" /><rect width="200" height="10" x="60" y="190" fill="#ffffff" /><rect width="180" height="10" x="70" y="200" fill="#ffffff" /><rect width="60" height="10" x="100" y="110" fill="#9cb4b8" /><rect width="60" height="10" x="170" y="110" fill="#9cb4b8" /><rect width="10" height="10" x="100" y="120" fill="#9cb4b8" /><rect width="20" height="10" x="110" y="120" fill="#ffffff" /><rect width="20" height="10" x="130" y="120" fill="#000000" /><rect width="10" height="10" x="150" y="120" fill="#9cb4b8" /><rect width="10" height="10" x="170" y="120" fill="#9cb4b8" /><rect width="20" height="10" x="180" y="120" fill="#ffffff" /><rect width="20" height="10" x="200" y="120" fill="#000000" /><rect width="10" height="10" x="220" y="120" fill="#9cb4b8" /><rect width="40" height="10" x="70" y="130" fill="#9cb4b8" /><rect width="20" height="10" x="110" y="130" fill="#ffffff" /><rect width="20" height="10" x="130" y="130" fill="#000000" /><rect width="30" height="10" x="150" y="130" fill="#9cb4b8" /><rect width="20" height="10" x="180" y="130" fill="#ffffff" /><rect width="20" height="10" x="200" y="130" fill="#000000" /><rect width="10" height="10" x="220" y="130" fill="#9cb4b8" /><rect width="10" height="10" x="70" y="140" fill="#9cb4b8" /><rect width="10" height="10" x="100" y="140" fill="#9cb4b8" /><rect width="20" height="10" x="110" y="140" fill="#ffffff" /><rect width="20" height="10" x="130" y="140" fill="#000000" /><rect width="10" height="10" x="150" y="140" fill="#9cb4b8" /><rect width="10" height="10" x="170" y="140" fill="#9cb4b8" /><rect width="20" height="10" x="180" y="140" fill="#ffffff" /><rect width="20" height="10" x="200" y="140" fill="#000000" /><rect width="10" height="10" x="220" y="140" fill="#9cb4b8" /><rect width="10" height="10" x="70" y="150" fill="#9cb4b8" /><rect width="10" height="10" x="100" y="150" fill="#9cb4b8" /><rect width="20" height="10" x="110" y="150" fill="#ffffff" /><rect width="20" height="10" x="130" y="150" fill="#000000" /><rect width="10" height="10" x="150" y="150" fill="#9cb4b8" /><rect width="10" height="10" x="170" y="150" fill="#9cb4b8" /><rect width="20" height="10" x="180" y="150" fill="#ffffff" /><rect width="20" height="10" x="200" y="150" fill="#000000" /><rect width="10" height="10" x="220" y="150" fill="#9cb4b8" /><rect width="60" height="10" x="100" y="160" fill="#9cb4b8" /><rect width="60" height="10" x="170" y="160" fill="#9cb4b8" /></svg>