<svg width="320" height="320" viewBox="0 0 320 320" xmlns="http://www.w3.org/2000/svg" shape-rendering="crispEdges"><rect width="100%" height="100%" fill="#d5d7e1" /><rect width="140" height="10" x="90" y="210" fill="#fe500c" /><rect width="140" height="10" x="90" y="220" fill="#fe500c" /><rect width="140" height="10" x="90" y="230" fill="#fe500c" /><rect width="140" height="10" x="90" y="240" fill="#fe500c" /><rect width="20" height="10" x="90" y="250" fill="#fe500c" /><rect width="110" height="10" x="120" y="250" fill="#fe500c" /><rect width="20" height="10" x="90" y="260" fill="#fe500c" /><rect width="110" height="10" x="120" y="260" fill="#fe500c" /><rect width="20" height="10" x="90" y="270" fill="#fe500c" /><rect width="110" height="10" x="120" y="270" fill="#fe500c" /><rect width="20" height="10" x="90" y="280" fill="#fe500c" /><rect width="110" height="10" x="120" y="280" fill="#fe500c" /><rect width="20" height="10" x="90" y="290" fill="#fe500c" /><rect width="110" height="10" x="120" y="290" fill="#fe500c" /><rect width="20" height="10" x="90" y="300" fill="#fe500c" /><rect width="110" height="10" x="120" y="300" fill="#fe500c" /><rect width="20" height="10" x="90" y="310" fill="#fe500c" /><rect width="110" height="10" x="120" y="310" fill="#fe500c" /><rect width="10" height="10" x="140" y="220" fill="#fdcef2" /><rect width="10" height="10" x="200" y="220" fill="#fdcef2" /><rect width="10" height="10" x="130" y="230" fill="#fdcef2" /><rect width="10" height="10" x="140" y="230" fill="#ffffff" /><rect width="10" height="10" x="150" y="230" fill="#fdcef2" /><rect width="10" height="10" x="190" y="230" fill="#fdcef2" /><rect width="10" height="10" x="200" y="230" fill="#ffffff" /><rect width="10" height="10" x="210" y="230" fill="#fdcef2" /><rect width="10" height="10" x="140" y="240" fill="#fdcef2" /><rect width="10" height="10" x="200" y="240" fill="#fdcef2" /><rect width="10" height="10" x="170" y="250" fill="#fdcef2" /><rect width="10" height="10" x="160" y="260" fill="#fdcef2" /><rect width="10" height="10" x="170" y="260" fill="#ffffff" /><rect width="10" height="10" x="180" y="260" fill="#fdcef2" /><rect width="10" height="10" x="170" y="270" fill="#fdcef2" /><rect width="10" height="10" x="140" y="280" fill="#fdcef2" /><rect width="10" height="10" x="200" y="280" fill="#fdcef2" /><rect width="10" height="10" x="130" y="290" fill="#fdcef2" /><rect width="10" height="10" x="140" y="290" fill="#ffffff" /><rect width="10" height="10" x="150" y="290" fill="#fdcef2" /><rect width="10" height="10" x="190" y="290" fill="#fdcef2" /><rect width="10" height="10" x="200" y="290" fill="#ffffff" /><rect width="10" height="10" x="210" y="290" fill="#fdcef2" /><rect width="10" height="10" x="140" y="300" fill="#fdcef2" /><rect width="10" height="10" x="200" y="300" fill="#fdcef2" /><rect width="120" height="10" x="100" y="60" fill="#ffffff" /><rect width="50" height="10" x="80" y="70" fill="#ffffff" /><rect width="40" height="10" x="130" y="70" fill="#e11833" /><rect width="30" height="10" x="170" y="70" fill="#c5030e" /><rect width="40" height="10" x="200" y="70" fill="#ffffff" /><rect width="50" height="10" x="70" y="80" fill="#ffffff" /><rect width="40" height="10" x="120" y="80" fill="#e11833" /><rect width="50" height="10" x="160" y="80" fill="#c5030e" /><rect width="40" height="10" x="210" y="80" fill="#ffffff" /><rect width="10" height="10" x="70" y="90" fill="#1f1d29" /><rect width="50" height="10" x="80" y="90" fill="#ffffff" /><rect width="30" height="10" x="130" y="90" fill="#e11833" /><rect width="40" height="10" x="160" y="90" fill="#c5030e" /><rect width="40" height="10" x="200" y="90" fill="#ffffff" /><rect width="10" height="10" x="240" y="90" fill="#2b2834" /><rect width="30" height="10" x="70" y="100" fill="#1f1d29" /><rect width="120" height="10" x="100" y="100" fill="#ffffff" /><rect width="30" height="10" x="220" y="100" fill="#2b2834" /><rect width="30" height="10" x="70" y="110" fill="#1f1d29" /><rect width="150" height="10" x="100" y="110" fill="#2b2834" /><rect width="30" height="10" x="70" y="120" fill="#1f1d29" /><rect width="150" height="10" x="100" y="120" fill="#2b2834" /><rect width="30" height="10" x="70" y="130" fill="#1f1d29" /><rect width="150" height="10" x="100" y="130" fill="#2b2834" /><rect width="30" height="10" x="70" y="140" fill="#1f1d29" /><rect width="150" height="10" x="100" y="140" fill="#2b2834" /><rect width="30" height="10" x="70" y="150" fill="#1f1d29" /><rect width="150" height="10" x="100" y="150" fill="#2b2834" /><rect width="30" height="10" x="70" y="160" fill="#1f1d29" /><rect width="150" height="10" x="100" y="160" fill="#2b2834" /><rect width="30" height="10" x="70" y="170" fill="#1f1d29" /><rect width="150" height="10" x="100" y="170" fill="#2b2834" /><rect width="30" height="10" x="70" y="180" fill="#1f1d29" /><rect width="70" height="10" x="100" y="180" fill="#2b2834" /><rect width="10" height="10" x="170" y="180" fill="#ffffff" /><rect width="70" height="10" x="180" y="180" fill="#2b2834" /><rect width="30" height="10" x="70" y="190" fill="#1f1d29" /><rect width="60" height="10" x="100" y="190" fill="#2b2834" /><rect width="10" height="10" x="160" y="190" fill="#ffffff" /><rect width="80" height="10" x="170" y="190" fill="#2b2834" /><rect width="20" height="10" x="80" y="200" fill="#1f1d29" /><rect width="140" height="10" x="100" y="200" fill="#2b2834" /><rect width="120" height="10" x="100" y="210" fill="#2b2834" /><rect width="60" height="10" x="100" y="110" fill="#000000" /><rect width="60" height="10" x="170" y="110" fill="#000000" /><rect width="40" height="10" x="100" y="120" fill="#000000" /><rect width="10" height="10" x="140" y="120" fill="#ffffff" /><rect width="10" height="10" x="150" y="120" fill="#000000" /><rect width="40" height="10" x="170" y="120" fill="#000000" /><rect width="10" height="10" x="210" y="120" fill="#ffffff" /><rect width="10" height="10" x="220" y="120" fill="#000000" /><rect width="70" height="10" x="70" y="130" fill="#000000" /><rect width="10" height="10" x="140" y="130" fill="#ffffff" /><rect width="60" height="10" x="150" y="130" fill="#000000" /><rect width="10" height="10" x="210" y="130" fill="#ffffff" /><rect width="10" height="10" x="220" y="130" fill="#000000" /><rect width="10" height="10" x="70" y="140" fill="#000000" /><rect width="60" height="10" x="100" y="140" fill="#000000" /><rect width="60" height="10" x="170" y="140" fill="#000000" /><rect width="10" height="10" x="70" y="150" fill="#000000" /><rect width="60" height="10" x="100" y="150" fill="#000000" /><rect width="60" height="10" x="170" y="150" fill="#000000" /><rect width="60" height="10" x="100" y="160" fill="#000000" /><rect width="60" height="10" x="170" y="160" fill="#000000" /></svg>