<svg width="320" height="320" viewBox="0 0 320 320" xmlns="http://www.w3.org/2000/svg" shape-rendering="crispEdges"><rect width="100%" height="100%" fill="#d5d7e1" /><rect width="140" height="10" x="90" y="210" fill="#807f7e" /><rect width="140" height="10" x="90" y="220" fill="#807f7e" /><rect width="140" height="10" x="90" y="230" fill="#807f7e" /><rect width="140" height="10" x="90" y="240" fill="#807f7e" /><rect width="20" height="10" x="90" y="250" fill="#807f7e" /><rect width="110" height="10" x="120" y="250" fill="#807f7e" /><rect width="20" height="10" x="90" y="260" fill="#807f7e" /><rect width="110" height="10" x="120" y="260" fill="#807f7e" /><rect width="20" height="10" x="90" y="270" fill="#807f7e" /><rect width="110" height="10" x="120" y="270" fill="#807f7e" /><rect width="20" height="10" x="90" y="280" fill="#807f7e" /><rect width="110" height="10" x="120" y="280" fill="#807f7e" /><rect width="20" height="10" x="90" y="290" fill="#807f7e" /><rect width="110" height="10" x="120" y="290" fill="#807f7e" /><rect width="20" height="10" x="90" y="300" fill="#807f7e" /><rect width="110" height="10" x="120" y="300" fill="#807f7e" /><rect width="20" height="10" x="90" y="310" fill="#807f7e" /><rect width="110" height="10" x="120" y="310" fill="#807f7e" /><rect width="10" height="10" x="160" y="240" fill="#fccf25" /><rect width="10" height="10" x="170" y="240" fill="#4b4949" /><rect width="10" height="10" x="180" y="240" fill="#fccf25" /><rect width="10" height="10" x="160" y="250" fill="#ffffff" /><rect width="10" height="10" x="170" y="250" fill="#4b4949" /><rect width="10" height="10" x="180" y="250" fill="#ffffff" /><rect width="70" height="10" x="140" y="260" fill="#d4a015" /><rect width="10" height="10" x="150" y="270" fill="#d4a015" /><rect width="10" height="10" x="190" y="270" fill="#d4a015" /><rect width="160" height="10" x="80" y="40" fill="#fbc800" /><rect width="200" height="10" x="60" y="50" fill="#fbc800" /><rect width="30" height="10" x="50" y="60" fill="#fbc800" /><rect width="20" height="10" x="80" y="60" fill="#ffffff" /><rect width="10" height="10" x="100" y="60" fill="#fbc800" /><rect width="20" height="10" x="110" y="60" fill="#ffffff" /><rect width="10" height="10" x="130" y="60" fill="#fbc800" /><rect width="20" height="10" x="140" y="60" fill="#ffffff" /><rect width="10" height="10" x="160" y="60" fill="#fbc800" /><rect width="20" height="10" x="170" y="60" fill="#ffffff" /><rect width="10" height="10" x="190" y="60" fill="#fbc800" /><rect width="20" height="10" x="200" y="60" fill="#ffffff" /><rect width="10" height="10" x="220" y="60" fill="#fbc800" /><rect width="20" height="10" x="230" y="60" fill="#ffffff" /><rect width="20" height="10" x="250" y="60" fill="#fbc800" /><rect width="30" height="10" x="40" y="70" fill="#fbc800" /><rect width="180" height="10" x="70" y="70" fill="#ffffff" /><rect width="30" height="10" x="250" y="70" fill="#fbc800" /><rect width="30" height="10" x="30" y="80" fill="#fbc800" /><rect width="80" height="10" x="60" y="80" fill="#ffffff" /><rect width="20" height="10" x="140" y="80" fill="#068940" /><rect width="100" height="10" x="160" y="80" fill="#ffffff" /><rect width="30" height="10" x="260" y="80" fill="#fbc800" /><rect width="30" height="10" x="30" y="90" fill="#fbc800" /><rect width="70" height="10" x="60" y="90" fill="#ffffff" /><rect width="50" height="10" x="130" y="90" fill="#068940" /><rect width="80" height="10" x="180" y="90" fill="#ffffff" /><rect width="30" height="10" x="260" y="90" fill="#fbc800" /><rect width="30" height="10" x="30" y="100" fill="#fbc800" /><rect width="60" height="10" x="60" y="100" fill="#ffffff" /><rect width="80" height="10" x="120" y="100" fill="#068940" /><rect width="60" height="10" x="200" y="100" fill="#ffffff" /><rect width="30" height="10" x="260" y="100" fill="#fbc800" /><rect width="20" height="10" x="30" y="110" fill="#fbc800" /><rect width="110" height="10" x="50" y="110" fill="#ffffff" /><rect width="20" height="10" x="160" y="110" fill="#b2958d" /><rect width="90" height="10" x="180" y="110" fill="#ffffff" /><rect width="20" height="10" x="270" y="110" fill="#fbc800" /><rect width="20" height="10" x="30" y="120" fill="#fbc800" /><rect width="100" height="10" x="50" y="120" fill="#ffffff" /><rect width="20" height="10" x="150" y="120" fill="#b2958d" /><rect width="100" height="10" x="170" y="120" fill="#ffffff" /><rect width="20" height="10" x="270" y="120" fill="#fbc800" /><rect width="30" height="10" x="30" y="130" fill="#fbc800" /><rect width="90" height="10" x="60" y="130" fill="#ffffff" /><rect width="20" height="10" x="150" y="130" fill="#b2958d" /><rect width="90" height="10" x="170" y="130" fill="#ffffff" /><rect width="30" height="10" x="260" y="130" fill="#fbc800" /><rect width="20" height="10" x="30" y="140" fill="#fbc800" /><rect width="40" height="10" x="50" y="140" fill="#ffffff" /><rect width="60" height="10" x="90" y="140" fill="#068940" /><rect width="20" height="10" x="150" y="140" fill="#b2958d" /><rect width="20" height="10" x="170" y="140" fill="#ffffff" /><rect width="50" height="10" x="190" y="140" fill="#068940" /><rect width="30" height="10" x="240" y="140" fill="#ffffff" /><rect width="20" height="10" x="270" y="140" fill="#fbc800" /><rect width="20" height="10" x="30" y="150" fill="#fbc800" /><rect width="40" height="10" x="50" y="150" fill="#ffffff" /><rect width="20" height="10" x="90" y="150" fill="#2b2834" /><rect width="40" height="10" x="110" y="150" fill="#068940" /><rect width="20" height="10" x="150" y="150" fill="#b2958d" /><rect width="50" height="10" x="170" y="150" fill="#068940" /><rect width="20" height="10" x="220" y="150" fill="#2b2834" /><rect width="30" height="10" x="240" y="150" fill="#ffffff" /><rect width="20" height="10" x="270" y="150" fill="#fbc800" /><rect width="30" height="10" x="30" y="160" fill="#fbc800" /><rect width="50" height="10" x="60" y="160" fill="#ffffff" /><rect width="30" height="10" x="110" y="160" fill="#2b2834" /><rect width="10" height="10" x="140" y="160" fill="#068940" /><rect width="30" height="10" x="150" y="160" fill="#b2958d" /><rect width="20" height="10" x="180" y="160" fill="#068940" /><rect width="20" height="10" x="200" y="160" fill="#2b2834" /><rect width="40" height="10" x="220" y="160" fill="#ffffff" /><rect width="30" height="10" x="260" y="160" fill="#fbc800" /><rect width="20" height="10" x="30" y="170" fill="#fbc800" /><rect width="90" height="10" x="50" y="170" fill="#ffffff" /><rect width="10" height="10" x="140" y="170" fill="#2b2834" /><rect width="30" height="10" x="150" y="170" fill="#b2958d" /><rect width="20" height="10" x="180" y="170" fill="#2b2834" /><rect width="70" height="10" x="200" y="170" fill="#ffffff" /><rect width="20" height="10" x="270" y="170" fill="#fbc800" /><rect width="20" height="10" x="30" y="180" fill="#fbc800" /><rect width="100" height="10" x="50" y="180" fill="#ffffff" /><rect width="30" height="10" x="150" y="180" fill="#2b2834" /><rect width="90" height="10" x="180" y="180" fill="#ffffff" /><rect width="20" height="10" x="270" y="180" fill="#fbc800" /><rect width="30" height="10" x="30" y="190" fill="#fbc800" /><rect width="200" height="10" x="60" y="190" fill="#ffffff" /><rect width="30" height="10" x="260" y="190" fill="#fbc800" /><rect width="30" height="10" x="40" y="200" fill="#fbc800" /><rect width="180" height="10" x="70" y="200" fill="#ffffff" /><rect width="30" height="10" x="250" y="200" fill="#fbc800" /><rect width="60" height="10" x="100" y="110" fill="#fe500c" /><rect width="60" height="10" x="170" y="110" fill="#fe500c" /><rect width="10" height="10" x="100" y="120" fill="#fe500c" /><rect width="20" height="10" x="110" y="120" fill="#ffffff" /><rect width="20" height="10" x="130" y="120" fill="#000000" /><rect width="10" height="10" x="150" y="120" fill="#fe500c" /><rect width="10" height="10" x="170" y="120" fill="#fe500c" /><rect width="20" height="10" x="180" y="120" fill="#ffffff" /><rect width="20" height="10" x="200" y="120" fill="#000000" /><rect width="10" height="10" x="220" y="120" fill="#fe500c" /><rect width="40" height="10" x="70" y="130" fill="#fe500c" /><rect width="20" height="10" x="110" y="130" fill="#ffffff" /><rect width="20" height="10" x="130" y="130" fill="#000000" /><rect width="30" height="10" x="150" y="130" fill="#fe500c" /><rect width="20" height="10" x="180" y="130" fill="#ffffff" /><rect width="20" height="10" x="200" y="130" fill="#000000" /><rect width="10" height="10" x="220" y="130" fill="#fe500c" /><rect width="10" height="10" x="70" y="140" fill="#fe500c" /><rect width="10" height="10" x="100" y="140" fill="#fe500c" /><rect width="20" height="10" x="110" y="140" fill="#ffffff" /><rect width="20" height="10" x="130" y="140" fill="#000000" /><rect width="10" height="10" x="150" y="140" fill="#fe500c" /><rect width="10" height="10" x="170" y="140" fill="#fe500c" /><rect width="20" height="10" x="180" y="140" fill="#ffffff" /><rect width="20" height="10" x="200" y="140" fill="#000000" /><rect width="10" height="10" x="220" y="140" fill="#fe500c" /><rect width="10" height="10" x="70" y="150" fill="#fe500c" /><rect width="10" height="10" x="100" y="150" fill="#fe500c" /><rect width="20" height="10" x="110" y="150" fill="#ffffff" /><rect width="20" height="10" x="130" y="150" fill="#000000" /><rect width="10" height="10" x="150" y="150" fill="#fe500c" /><rect width="10" height="10" x="170" y="150" fill="#fe500c" /><rect width="20" height="10" x="180" y="150" fill="#ffffff" /><rect width="20" height="10" x="200" y="150" fill="#000000" /><rect width="10" height="10" x="220" y="150" fill="#fe500c" /><rect width="60" height="10" x="100" y="160" fill="#fe500c" /><rect width="60" height="10" x="170" y="160" fill="#fe500c" /></svg>