<svg width="320" height="320" viewBox="0 0 320 320" xmlns="http://www.w3.org/2000/svg" shape-rendering="crispEdges"><rect width="100%" height="100%" fill="#e1d7d5" /><rect width="140" height="10" x="90" y="210" fill="#cfc2ab" /><rect width="140" height="10" x="90" y="220" fill="#cfc2ab" /><rect width="140" height="10" x="90" y="230" fill="#cfc2ab" /><rect width="140" height="10" x="90" y="240" fill="#cfc2ab" /><rect width="20" height="10" x="90" y="250" fill="#cfc2ab" /><rect width="110" height="10" x="120" y="250" fill="#cfc2ab" /><rect width="20" height="10" x="90" y="260" fill="#cfc2ab" /><rect width="110" height="10" x="120" y="260" fill="#cfc2ab" /><rect width="20" height="10" x="90" y="270" fill="#cfc2ab" /><rect width="110" height="10" x="120" y="270" fill="#cfc2ab" /><rect width="20" height="10" x="90" y="280" fill="#cfc2ab" /><rect width="110" height="10" x="120" y="280" fill="#cfc2ab" /><rect width="20" height="10" x="90" y="290" fill="#cfc2ab" /><rect width="110" height="10" x="120" y="290" fill="#cfc2ab" /><rect width="20" height="10" x="90" y="300" fill="#cfc2ab" /><rect width="110" height="10" x="120" y="300" fill="#cfc2ab" /><rect width="20" height="10" x="90" y="310" fill="#cfc2ab" /><rect width="110" height="10" x="120" y="310" fill="#cfc2ab" /><rect width="90" height="10" x="130" y="220" fill="#e8e8e2" /><rect width="10" height="10" x="130" y="230" fill="#e8e8e2" /><rect width="70" height="10" x="140" y="230" fill="#ffffff" /><rect width="10" height="10" x="210" y="230" fill="#e8e8e2" /><rect width="10" height="10" x="130" y="240" fill="#e8e8e2" /><rect width="10" height="10" x="140" y="240" fill="#ffffff" /><rect width="10" height="10" x="150" y="240" fill="#4b4949" /><rect width="30" height="10" x="160" y="240" fill="#ffffff" /><rect width="10" height="10" x="190" y="240" fill="#4b4949" /><rect width="10" height="10" x="200" y="240" fill="#ffffff" /><rect width="10" height="10" x="210" y="240" fill="#e8e8e2" /><rect width="10" height="10" x="130" y="250" fill="#e8e8e2" /><rect width="70" height="10" x="140" y="250" fill="#ffffff" /><rect width="10" height="10" x="210" y="250" fill="#e8e8e2" /><rect width="10" height="10" x="130" y="260" fill="#e8e8e2" /><rect width="30" height="10" x="140" y="260" fill="#ffffff" /><rect width="10" height="10" x="170" y="260" fill="#4b4949" /><rect width="30" height="10" x="180" y="260" fill="#ffffff" /><rect width="10" height="10" x="210" y="260" fill="#e8e8e2" /><rect width="10" height="10" x="130" y="270" fill="#e8e8e2" /><rect width="70" height="10" x="140" y="270" fill="#ffffff" /><rect width="10" height="10" x="210" y="270" fill="#e8e8e2" /><rect width="10" height="10" x="130" y="280" fill="#e8e8e2" /><rect width="10" height="10" x="140" y="280" fill="#ffffff" /><rect width="10" height="10" x="150" y="280" fill="#4b4949" /><rect width="30" height="10" x="160" y="280" fill="#ffffff" /><rect width="10" height="10" x="190" y="280" fill="#4b4949" /><rect width="10" height="10" x="200" y="280" fill="#ffffff" /><rect width="10" height="10" x="210" y="280" fill="#e8e8e2" /><rect width="10" height="10" x="130" y="290" fill="#e8e8e2" /><rect width="70" height="10" x="140" y="290" fill="#ffffff" /><rect width="10" height="10" x="210" y="290" fill="#e8e8e2" /><rect width="90" height="10" x="130" y="300" fill="#e8e8e2" /><rect width="20" height="10" x="150" y="60" fill="#a19c9a" /><rect width="20" height="10" x="200" y="60" fill="#a19c9a" /><rect width="10" height="10" x="120" y="70" fill="#a19c9a" /><rect width="10" height="10" x="140" y="70" fill="#a19c9a" /><rect width="20" height="10" x="150" y="70" fill="#f39d44" /><rect width="10" height="10" x="170" y="70" fill="#a19c9a" /><rect width="10" height="10" x="190" y="70" fill="#a19c9a" /><rect width="20" height="10" x="200" y="70" fill="#f39d44" /><rect width="10" height="10" x="220" y="70" fill="#a19c9a" /><rect width="10" height="10" x="110" y="80" fill="#a19c9a" /><rect width="10" height="10" x="120" y="80" fill="#f39d44" /><rect width="10" height="10" x="130" y="80" fill="#a19c9a" /><rect width="40" height="10" x="140" y="80" fill="#f39d44" /><rect width="10" height="10" x="180" y="80" fill="#a19c9a" /><rect width="40" height="10" x="190" y="80" fill="#f39d44" /><rect width="10" height="10" x="230" y="80" fill="#a19c9a" /><rect width="20" height="10" x="90" y="90" fill="#a19c9a" /><rect width="20" height="10" x="110" y="90" fill="#f39d44" /><rect width="10" height="10" x="130" y="90" fill="#a19c9a" /><rect width="40" height="10" x="140" y="90" fill="#f39d44" /><rect width="10" height="10" x="180" y="90" fill="#a19c9a" /><rect width="40" height="10" x="190" y="90" fill="#f39d44" /><rect width="30" height="10" x="230" y="90" fill="#a19c9a" /><rect width="10" height="10" x="80" y="100" fill="#a19c9a" /><rect width="10" height="10" x="90" y="100" fill="#f39d44" /><rect width="10" height="10" x="100" y="100" fill="#a19c9a" /><rect width="20" height="10" x="110" y="100" fill="#f39d44" /><rect width="10" height="10" x="130" y="100" fill="#a19c9a" /><rect width="40" height="10" x="140" y="100" fill="#f39d44" /><rect width="10" height="10" x="180" y="100" fill="#a19c9a" /><rect width="40" height="10" x="190" y="100" fill="#f39d44" /><rect width="40" height="10" x="230" y="100" fill="#a19c9a" /><rect width="10" height="10" x="70" y="110" fill="#a19c9a" /><rect width="20" height="10" x="80" y="110" fill="#f39d44" /><rect width="10" height="10" x="100" y="110" fill="#a19c9a" /><rect width="20" height="10" x="110" y="110" fill="#f39d44" /><rect width="10" height="10" x="130" y="110" fill="#a19c9a" /><rect width="40" height="10" x="140" y="110" fill="#f39d44" /><rect width="10" height="10" x="180" y="110" fill="#a19c9a" /><rect width="40" height="10" x="190" y="110" fill="#f39d44" /><rect width="50" height="10" x="230" y="110" fill="#a19c9a" /><rect width="20" height="10" x="30" y="120" fill="#b2a8a5" /><rect width="30" height="10" x="50" y="120" fill="#a19c9a" /><rect width="20" height="10" x="80" y="120" fill="#f39d44" /><rect width="10" height="10" x="100" y="120" fill="#a19c9a" /><rect width="20" height="10" x="110" y="120" fill="#f39d44" /><rect width="10" height="10" x="130" y="120" fill="#a19c9a" /><rect width="40" height="10" x="140" y="120" fill="#f39d44" /><rect width="10" height="10" x="180" y="120" fill="#a19c9a" /><rect width="40" height="10" x="190" y="120" fill="#f39d44" /><rect width="50" height="10" x="230" y="120" fill="#a19c9a" /><rect width="20" height="10" x="30" y="130" fill="#807f7e" /><rect width="20" height="10" x="50" y="130" fill="#a19c9a" /><rect width="10" height="10" x="230" y="130" fill="#fff0ee" /><rect width="10" height="10" x="240" y="130" fill="#b2a8a5" /><rect width="10" height="10" x="250" y="130" fill="#fff0ee" /><rect width="10" height="10" x="260" y="130" fill="#e8e8e2" /><rect width="10" height="10" x="270" y="130" fill="#b2a8a5" /><rect width="10" height="10" x="280" y="130" fill="#a19c9a" /><rect width="20" height="10" x="30" y="140" fill="#b2a8a5" /><rect width="30" height="10" x="50" y="140" fill="#fff0ee" /><rect width="20" height="10" x="80" y="140" fill="#f39d44" /><rect width="10" height="10" x="100" y="140" fill="#fff0ee" /><rect width="20" height="10" x="110" y="140" fill="#f39d44" /><rect width="10" height="10" x="130" y="140" fill="#fff0ee" /><rect width="40" height="10" x="140" y="140" fill="#f39d44" /><rect width="10" height="10" x="180" y="140" fill="#fff0ee" /><rect width="40" height="10" x="190" y="140" fill="#f39d44" /><rect width="10" height="10" x="230" y="140" fill="#b2a8a5" /><rect width="20" height="10" x="240" y="140" fill="#fff0ee" /><rect width="20" height="10" x="260" y="140" fill="#e8e8e2" /><rect width="10" height="10" x="280" y="140" fill="#fff0ee" /><rect width="20" height="10" x="30" y="150" fill="#807f7e" /><rect width="30" height="10" x="50" y="150" fill="#fff0ee" /><rect width="20" height="10" x="80" y="150" fill="#f39d44" /><rect width="10" height="10" x="100" y="150" fill="#fff0ee" /><rect width="20" height="10" x="110" y="150" fill="#f39d44" /><rect width="10" height="10" x="130" y="150" fill="#fff0ee" /><rect width="40" height="10" x="140" y="150" fill="#f39d44" /><rect width="10" height="10" x="180" y="150" fill="#fff0ee" /><rect width="40" height="10" x="190" y="150" fill="#f39d44" /><rect width="10" height="10" x="230" y="150" fill="#b2a8a5" /><rect width="60" height="10" x="240" y="150" fill="#fff0ee" /><rect width="20" height="10" x="60" y="160" fill="#fff0ee" /><rect width="20" height="10" x="80" y="160" fill="#f39d44" /><rect width="10" height="10" x="100" y="160" fill="#fff0ee" /><rect width="20" height="10" x="110" y="160" fill="#f39d44" /><rect width="10" height="10" x="130" y="160" fill="#fff0ee" /><rect width="40" height="10" x="140" y="160" fill="#f39d44" /><rect width="10" height="10" x="180" y="160" fill="#fff0ee" /><rect width="40" height="10" x="190" y="160" fill="#f39d44" /><rect width="10" height="10" x="230" y="160" fill="#b2a8a5" /><rect width="40" height="10" x="240" y="160" fill="#fff0ee" /><rect width="10" height="10" x="70" y="170" fill="#fff0ee" /><rect width="20" height="10" x="80" y="170" fill="#f39d44" /><rect width="10" height="10" x="100" y="170" fill="#fff0ee" /><rect width="20" height="10" x="110" y="170" fill="#f39d44" /><rect width="10" height="10" x="130" y="170" fill="#fff0ee" /><rect width="40" height="10" x="140" y="170" fill="#f39d44" /><rect width="10" height="10" x="180" y="170" fill="#fff0ee" /><rect width="40" height="10" x="190" y="170" fill="#f39d44" /><rect width="10" height="10" x="230" y="170" fill="#fff0ee" /><rect width="10" height="10" x="240" y="170" fill="#b2a8a5" /><rect width="50" height="10" x="250" y="170" fill="#fff0ee" /><rect width="10" height="10" x="80" y="180" fill="#fff0ee" /><rect width="10" height="10" x="90" y="180" fill="#f39d44" /><rect width="10" height="10" x="100" y="180" fill="#fff0ee" /><rect width="20" height="10" x="110" y="180" fill="#f39d44" /><rect width="10" height="10" x="130" y="180" fill="#fff0ee" /><rect width="10" height="10" x="140" y="180" fill="#db8323" /><rect width="30" height="10" x="150" y="180" fill="#f39d44" /><rect width="10" height="10" x="180" y="180" fill="#fff0ee" /><rect width="40" height="10" x="190" y="180" fill="#f39d44" /><rect width="50" height="10" x="230" y="180" fill="#fff0ee" /><rect width="20" height="10" x="90" y="190" fill="#fff0ee" /><rect width="20" height="10" x="110" y="190" fill="#f39d44" /><rect width="10" height="10" x="130" y="190" fill="#fff0ee" /><rect width="10" height="10" x="140" y="190" fill="#f39d44" /><rect width="20" height="10" x="150" y="190" fill="#db8323" /><rect width="10" height="10" x="170" y="190" fill="#f39d44" /><rect width="10" height="10" x="180" y="190" fill="#fff0ee" /><rect width="40" height="10" x="190" y="190" fill="#f39d44" /><rect width="40" height="10" x="230" y="190" fill="#fff0ee" /><rect width="10" height="10" x="110" y="200" fill="#fff0ee" /><rect width="10" height="10" x="120" y="200" fill="#f39d44" /><rect width="20" height="10" x="130" y="200" fill="#fff0ee" /><rect width="20" height="10" x="150" y="200" fill="#f39d44" /><rect width="30" height="10" x="170" y="200" fill="#fff0ee" /><rect width="20" height="10" x="200" y="200" fill="#f39d44" /><rect width="10" height="10" x="220" y="200" fill="#fff0ee" /><rect width="60" height="10" x="100" y="110" fill="#d7d3cd" /><rect width="60" height="10" x="170" y="110" fill="#d7d3cd" /><rect width="10" height="10" x="100" y="120" fill="#d7d3cd" /><rect width="20" height="10" x="110" y="120" fill="#fdf8ff" /><rect width="20" height="10" x="130" y="120" fill="#000000" /><rect width="10" height="10" x="150" y="120" fill="#d7d3cd" /><rect width="10" height="10" x="170" y="120" fill="#d7d3cd" /><rect width="20" height="10" x="180" y="120" fill="#fdf8ff" /><rect width="20" height="10" x="200" y="120" fill="#000000" /><rect width="10" height="10" x="220" y="120" fill="#d7d3cd" /><rect width="40" height="10" x="70" y="130" fill="#d7d3cd" /><rect width="20" height="10" x="110" y="130" fill="#fdf8ff" /><rect width="20" height="10" x="130" y="130" fill="#000000" /><rect width="30" height="10" x="150" y="130" fill="#d7d3cd" /><rect width="20" height="10" x="180" y="130" fill="#fdf8ff" /><rect width="20" height="10" x="200" y="130" fill="#000000" /><rect width="10" height="10" x="220" y="130" fill="#d7d3cd" /><rect width="10" height="10" x="70" y="140" fill="#d7d3cd" /><rect width="10" height="10" x="100" y="140" fill="#d7d3cd" /><rect width="20" height="10" x="110" y="140" fill="#fdf8ff" /><rect width="20" height="10" x="130" y="140" fill="#000000" /><rect width="10" height="10" x="150" y="140" fill="#d7d3cd" /><rect width="10" height="10" x="170" y="140" fill="#d7d3cd" /><rect width="20" height="10" x="180" y="140" fill="#fdf8ff" /><rect width="20" height="10" x="200" y="140" fill="#000000" /><rect width="10" height="10" x="220" y="140" fill="#d7d3cd" /><rect width="10" height="10" x="70" y="150" fill="#d7d3cd" /><rect width="10" height="10" x="100" y="150" fill="#d7d3cd" /><rect width="20" height="10" x="110" y="150" fill="#fdf8ff" /><rect width="20" height="10" x="130" y="150" fill="#000000" /><rect width="10" height="10" x="150" y="150" fill="#d7d3cd" /><rect width="10" height="10" x="170" y="150" fill="#d7d3cd" /><rect width="20" height="10" x="180" y="150" fill="#fdf8ff" /><rect width="20" height="10" x="200" y="150" fill="#000000" /><rect width="10" height="10" x="220" y="150" fill="#d7d3cd" /><rect width="60" height="10" x="100" y="160" fill="#d7d3cd" /><rect width="60" height="10" x="170" y="160" fill="#d7d3cd" /></svg>