<svg width="320" height="320" viewBox="0 0 320 320" xmlns="http://www.w3.org/2000/svg" shape-rendering="crispEdges"><rect width="100%" height="100%" fill="#d5d7e1" /><rect width="140" height="10" x="90" y="210" fill="#fffdf2" /><rect width="140" height="10" x="90" y="220" fill="#fffdf2" /><rect width="140" height="10" x="90" y="230" fill="#fffdf2" /><rect width="140" height="10" x="90" y="240" fill="#fffdf2" /><rect width="20" height="10" x="90" y="250" fill="#fffdf2" /><rect width="110" height="10" x="120" y="250" fill="#fffdf2" /><rect width="20" height="10" x="90" y="260" fill="#fffdf2" /><rect width="110" height="10" x="120" y="260" fill="#fffdf2" /><rect width="20" height="10" x="90" y="270" fill="#fffdf2" /><rect width="110" height="10" x="120" y="270" fill="#fffdf2" /><rect width="20" height="10" x="90" y="280" fill="#fffdf2" /><rect width="110" height="10" x="120" y="280" fill="#fffdf2" /><rect width="20" height="10" x="90" y="290" fill="#fffdf2" /><rect width="110" height="10" x="120" y="290" fill="#fffdf2" /><rect width="20" height="10" x="90" y="300" fill="#fffdf2" /><rect width="110" height="10" x="120" y="300" fill="#fffdf2" /><rect width="20" height="10" x="90" y="310" fill="#fffdf2" /><rect width="110" height="10" x="120" y="310" fill="#fffdf2" /><rect width="10" height="10" x="90" y="210" fill="#f5fcff" /><rect width="10" height="10" x="130" y="210" fill="#f5fcff" /><rect width="10" height="10" x="170" y="210" fill="#f5fcff" /><rect width="10" height="10" x="210" y="210" fill="#f5fcff" /><rect width="10" height="10" x="100" y="220" fill="#f5fcff" /><rect width="10" height="10" x="120" y="220" fill="#f5fcff" /><rect width="10" height="10" x="180" y="220" fill="#f5fcff" /><rect width="10" height="10" x="200" y="220" fill="#f5fcff" /><rect width="10" height="10" x="100" y="230" fill="#f5fcff" /><rect width="10" height="10" x="120" y="230" fill="#f5fcff" /><rect width="10" height="10" x="180" y="230" fill="#f5fcff" /><rect width="10" height="10" x="200" y="230" fill="#f5fcff" /><rect width="10" height="10" x="90" y="240" fill="#f5fcff" /><rect width="10" height="10" x="130" y="240" fill="#f5fcff" /><rect width="10" height="10" x="170" y="240" fill="#f5fcff" /><rect width="10" height="10" x="210" y="240" fill="#f5fcff" /><rect width="10" height="10" x="140" y="250" fill="#f5fcff" /><rect width="10" height="10" x="160" y="250" fill="#f5fcff" /><rect width="10" height="10" x="220" y="250" fill="#f5fcff" /><rect width="10" height="10" x="140" y="260" fill="#f5fcff" /><rect width="10" height="10" x="160" y="260" fill="#f5fcff" /><rect width="10" height="10" x="220" y="260" fill="#f5fcff" /><rect width="10" height="10" x="90" y="270" fill="#f5fcff" /><rect width="10" height="10" x="130" y="270" fill="#f5fcff" /><rect width="10" height="10" x="170" y="270" fill="#f5fcff" /><rect width="10" height="10" x="210" y="270" fill="#f5fcff" /><rect width="10" height="10" x="100" y="280" fill="#f5fcff" /><rect width="10" height="10" x="120" y="280" fill="#f5fcff" /><rect width="10" height="10" x="180" y="280" fill="#f5fcff" /><rect width="10" height="10" x="200" y="280" fill="#f5fcff" /><rect width="10" height="10" x="100" y="290" fill="#f5fcff" /><rect width="10" height="10" x="120" y="290" fill="#f5fcff" /><rect width="10" height="10" x="180" y="290" fill="#f5fcff" /><rect width="10" height="10" x="200" y="290" fill="#f5fcff" /><rect width="10" height="10" x="90" y="300" fill="#f5fcff" /><rect width="10" height="10" x="130" y="300" fill="#f5fcff" /><rect width="10" height="10" x="170" y="300" fill="#f5fcff" /><rect width="10" height="10" x="210" y="300" fill="#f5fcff" /><rect width="10" height="10" x="140" y="310" fill="#f5fcff" /><rect width="10" height="10" x="160" y="310" fill="#f5fcff" /><rect width="10" height="10" x="220" y="310" fill="#f5fcff" /><rect width="10" height="10" x="150" y="10" fill="#f86100" /><rect width="10" height="10" x="170" y="10" fill="#f86100" /><rect width="30" height="10" x="150" y="20" fill="#f86100" /><rect width="30" height="10" x="150" y="30" fill="#f86100" /><rect width="30" height="10" x="150" y="40" fill="#e9ba12" /><rect width="50" height="10" x="140" y="50" fill="#e9ba12" /><rect width="50" height="10" x="140" y="60" fill="#e9ba12" /><rect width="70" height="10" x="130" y="70" fill="#e9ba12" /><rect width="20" height="10" x="90" y="80" fill="#ffffff" /><rect width="20" height="10" x="120" y="80" fill="#ffffff" /><rect width="10" height="10" x="140" y="80" fill="#e9ba12" /><rect width="20" height="10" x="150" y="80" fill="#ffffff" /><rect width="10" height="10" x="170" y="80" fill="#e9ba12" /><rect width="20" height="10" x="180" y="80" fill="#ffffff" /><rect width="20" height="10" x="210" y="80" fill="#ffffff" /><rect width="180" height="10" x="70" y="90" fill="#ffffff" /><rect width="180" height="10" x="70" y="100" fill="#2b2834" /><rect width="180" height="10" x="70" y="110" fill="#2b2834" /><rect width="180" height="10" x="70" y="120" fill="#2b2834" /><rect width="180" height="10" x="70" y="130" fill="#2b2834" /><rect width="180" height="10" x="70" y="140" fill="#2b2834" /><rect width="180" height="10" x="70" y="150" fill="#2b2834" /><rect width="180" height="10" x="70" y="160" fill="#2b2834" /><rect width="180" height="10" x="70" y="170" fill="#2b2834" /><rect width="70" height="10" x="70" y="180" fill="#2b2834" /><rect width="10" height="10" x="140" y="180" fill="#ffffff" /><rect width="10" height="10" x="150" y="180" fill="#2b2834" /><rect width="10" height="10" x="160" y="180" fill="#ffffff" /><rect width="10" height="10" x="170" y="180" fill="#2b2834" /><rect width="10" height="10" x="180" y="180" fill="#ffffff" /><rect width="60" height="10" x="190" y="180" fill="#2b2834" /><rect width="180" height="10" x="70" y="190" fill="#2b2834" /><rect width="180" height="10" x="70" y="200" fill="#2b2834" /><rect width="60" height="10" x="100" y="110" fill="#ffc110" /><rect width="60" height="10" x="170" y="110" fill="#f98f30" /><rect width="10" height="10" x="100" y="120" fill="#ffc110" /><rect width="20" height="10" x="110" y="120" fill="#ffffff" /><rect width="20" height="10" x="130" y="120" fill="#000000" /><rect width="10" height="10" x="150" y="120" fill="#ffc110" /><rect width="10" height="10" x="170" y="120" fill="#f98f30" /><rect width="20" height="10" x="180" y="120" fill="#ffffff" /><rect width="20" height="10" x="200" y="120" fill="#000000" /><rect width="10" height="10" x="220" y="120" fill="#f98f30" /><rect width="30" height="10" x="70" y="130" fill="#f78a18" /><rect width="10" height="10" x="100" y="130" fill="#ffc110" /><rect width="20" height="10" x="110" y="130" fill="#ffffff" /><rect width="20" height="10" x="130" y="130" fill="#000000" /><rect width="10" height="10" x="150" y="130" fill="#ffc110" /><rect width="10" height="10" x="160" y="130" fill="#f78a18" /><rect width="10" height="10" x="170" y="130" fill="#f98f30" /><rect width="20" height="10" x="180" y="130" fill="#ffffff" /><rect width="20" height="10" x="200" y="130" fill="#000000" /><rect width="10" height="10" x="220" y="130" fill="#f98f30" /><rect width="10" height="10" x="70" y="140" fill="#ffc110" /><rect width="10" height="10" x="100" y="140" fill="#ffc110" /><rect width="20" height="10" x="110" y="140" fill="#ffffff" /><rect width="20" height="10" x="130" y="140" fill="#000000" /><rect width="10" height="10" x="150" y="140" fill="#ffc110" /><rect width="10" height="10" x="170" y="140" fill="#f98f30" /><rect width="20" height="10" x="180" y="140" fill="#ffffff" /><rect width="20" height="10" x="200" y="140" fill="#000000" /><rect width="10" height="10" x="220" y="140" fill="#f98f30" /><rect width="10" height="10" x="70" y="150" fill="#ffc110" /><rect width="10" height="10" x="100" y="150" fill="#ffc110" /><rect width="20" height="10" x="110" y="150" fill="#ffffff" /><rect width="20" height="10" x="130" y="150" fill="#000000" /><rect width="10" height="10" x="150" y="150" fill="#ffc110" /><rect width="10" height="10" x="170" y="150" fill="#f98f30" /><rect width="20" height="10" x="180" y="150" fill="#ffffff" /><rect width="20" height="10" x="200" y="150" fill="#000000" /><rect width="10" height="10" x="220" y="150" fill="#f98f30" /><rect width="60" height="10" x="100" y="160" fill="#ffc110" /><rect width="60" height="10" x="170" y="160" fill="#f98f30" /></svg>