<svg width="320" height="320" viewBox="0 0 320 320" xmlns="http://www.w3.org/2000/svg" shape-rendering="crispEdges"><rect width="100%" height="100%" fill="#e1d7d5" /><rect width="140" height="10" x="90" y="210" fill="#4b4949" /><rect width="140" height="10" x="90" y="220" fill="#4b4949" /><rect width="140" height="10" x="90" y="230" fill="#4b4949" /><rect width="140" height="10" x="90" y="240" fill="#4b4949" /><rect width="20" height="10" x="90" y="250" fill="#4b4949" /><rect width="110" height="10" x="120" y="250" fill="#4b4949" /><rect width="20" height="10" x="90" y="260" fill="#4b4949" /><rect width="110" height="10" x="120" y="260" fill="#4b4949" /><rect width="20" height="10" x="90" y="270" fill="#4b4949" /><rect width="110" height="10" x="120" y="270" fill="#4b4949" /><rect width="20" height="10" x="90" y="280" fill="#4b4949" /><rect width="110" height="10" x="120" y="280" fill="#4b4949" /><rect width="20" height="10" x="90" y="290" fill="#4b4949" /><rect width="110" height="10" x="120" y="290" fill="#4b4949" /><rect width="20" height="10" x="90" y="300" fill="#4b4949" /><rect width="110" height="10" x="120" y="300" fill="#4b4949" /><rect width="20" height="10" x="90" y="310" fill="#4b4949" /><rect width="110" height="10" x="120" y="310" fill="#4b4949" /><rect width="90" height="10" x="130" y="220" fill="#e8e8e2" /><rect width="10" height="10" x="130" y="230" fill="#e8e8e2" /><rect width="70" height="10" x="140" y="230" fill="#ffffff" /><rect width="10" height="10" x="210" y="230" fill="#e8e8e2" /><rect width="10" height="10" x="130" y="240" fill="#e8e8e2" /><rect width="10" height="10" x="140" y="240" fill="#ffffff" /><rect width="10" height="10" x="150" y="240" fill="#4b4949" /><rect width="30" height="10" x="160" y="240" fill="#ffffff" /><rect width="10" height="10" x="190" y="240" fill="#4b4949" /><rect width="10" height="10" x="200" y="240" fill="#ffffff" /><rect width="10" height="10" x="210" y="240" fill="#e8e8e2" /><rect width="10" height="10" x="130" y="250" fill="#e8e8e2" /><rect width="70" height="10" x="140" y="250" fill="#ffffff" /><rect width="10" height="10" x="210" y="250" fill="#e8e8e2" /><rect width="10" height="10" x="130" y="260" fill="#e8e8e2" /><rect width="10" height="10" x="140" y="260" fill="#ffffff" /><rect width="10" height="10" x="150" y="260" fill="#4b4949" /><rect width="30" height="10" x="160" y="260" fill="#ffffff" /><rect width="10" height="10" x="190" y="260" fill="#4b4949" /><rect width="10" height="10" x="200" y="260" fill="#ffffff" /><rect width="10" height="10" x="210" y="260" fill="#e8e8e2" /><rect width="10" height="10" x="130" y="270" fill="#e8e8e2" /><rect width="70" height="10" x="140" y="270" fill="#ffffff" /><rect width="10" height="10" x="210" y="270" fill="#e8e8e2" /><rect width="10" height="10" x="130" y="280" fill="#e8e8e2" /><rect width="10" height="10" x="140" y="280" fill="#ffffff" /><rect width="10" height="10" x="150" y="280" fill="#4b4949" /><rect width="30" height="10" x="160" y="280" fill="#ffffff" /><rect width="10" height="10" x="190" y="280" fill="#4b4949" /><rect width="10" height="10" x="200" y="280" fill="#ffffff" /><rect width="10" height="10" x="210" y="280" fill="#e8e8e2" /><rect width="10" height="10" x="130" y="290" fill="#e8e8e2" /><rect width="70" height="10" x="140" y="290" fill="#ffffff" /><rect width="10" height="10" x="210" y="290" fill="#e8e8e2" /><rect width="90" height="10" x="130" y="300" fill="#e8e8e2" /><rect width="50" height="10" x="110" y="30" fill="#ffffff" /><rect width="20" height="10" x="160" y="30" fill="#f38b7c" /><rect width="50" height="10" x="110" y="40" fill="#ffffff" /><rect width="10" height="10" x="160" y="40" fill="#f38b7c" /><rect width="10" height="10" x="170" y="40" fill="#e4a499" /><rect width="50" height="10" x="110" y="50" fill="#ffffff" /><rect width="10" height="10" x="160" y="50" fill="#e4a499" /><rect width="20" height="10" x="170" y="50" fill="#f38b7c" /><rect width="50" height="10" x="100" y="60" fill="#ffffff" /><rect width="40" height="10" x="150" y="60" fill="#f38b7c" /><rect width="50" height="10" x="100" y="70" fill="#ffffff" /><rect width="20" height="10" x="150" y="70" fill="#f38b7c" /><rect width="30" height="10" x="170" y="70" fill="#e4a499" /><rect width="50" height="10" x="100" y="80" fill="#ffffff" /><rect width="20" height="10" x="150" y="80" fill="#e4a499" /><rect width="30" height="10" x="170" y="80" fill="#f38b7c" /><rect width="50" height="10" x="90" y="90" fill="#ffffff" /><rect width="70" height="10" x="140" y="90" fill="#f38b7c" /><rect width="50" height="10" x="90" y="100" fill="#ffffff" /><rect width="30" height="10" x="140" y="100" fill="#f38b7c" /><rect width="40" height="10" x="170" y="100" fill="#e4a499" /><rect width="50" height="10" x="90" y="110" fill="#ffffff" /><rect width="30" height="10" x="140" y="110" fill="#e4a499" /><rect width="50" height="10" x="170" y="110" fill="#f38b7c" /><rect width="50" height="10" x="80" y="120" fill="#ffffff" /><rect width="90" height="10" x="130" y="120" fill="#f38b7c" /><rect width="50" height="10" x="80" y="130" fill="#ffffff" /><rect width="80" height="10" x="130" y="130" fill="#f38b7c" /><rect width="20" height="10" x="210" y="130" fill="#e4a499" /><rect width="50" height="10" x="80" y="140" fill="#ffffff" /><rect width="40" height="10" x="130" y="140" fill="#f38b7c" /><rect width="40" height="10" x="170" y="140" fill="#e4a499" /><rect width="20" height="10" x="210" y="140" fill="#f38b7c" /><rect width="50" height="10" x="70" y="150" fill="#ffffff" /><rect width="50" height="10" x="120" y="150" fill="#e4a499" /><rect width="70" height="10" x="170" y="150" fill="#f38b7c" /><rect width="50" height="10" x="70" y="160" fill="#ffffff" /><rect width="120" height="10" x="120" y="160" fill="#f38b7c" /><rect width="50" height="10" x="70" y="170" fill="#ffffff" /><rect width="90" height="10" x="120" y="170" fill="#f38b7c" /><rect width="40" height="10" x="210" y="170" fill="#e4a499" /><rect width="50" height="10" x="60" y="180" fill="#ffffff" /><rect width="60" height="10" x="110" y="180" fill="#f38b7c" /><rect width="40" height="10" x="170" y="180" fill="#e4a499" /><rect width="40" height="10" x="210" y="180" fill="#f38b7c" /><rect width="50" height="10" x="60" y="190" fill="#ffffff" /><rect width="60" height="10" x="110" y="190" fill="#e4a499" /><rect width="90" height="10" x="170" y="190" fill="#f38b7c" /><rect width="50" height="10" x="60" y="200" fill="#ffffff" /><rect width="150" height="10" x="110" y="200" fill="#f38b7c" /><rect width="60" height="10" x="100" y="110" fill="#068940" /><rect width="60" height="10" x="170" y="110" fill="#257ced" /><rect width="10" height="10" x="100" y="120" fill="#068940" /><rect width="20" height="10" x="110" y="120" fill="#ffffff" /><rect width="20" height="10" x="130" y="120" fill="#000000" /><rect width="10" height="10" x="150" y="120" fill="#068940" /><rect width="10" height="10" x="170" y="120" fill="#257ced" /><rect width="20" height="10" x="180" y="120" fill="#ffffff" /><rect width="20" height="10" x="200" y="120" fill="#000000" /><rect width="10" height="10" x="220" y="120" fill="#257ced" /><rect width="30" height="10" x="70" y="130" fill="#254efb" /><rect width="10" height="10" x="100" y="130" fill="#068940" /><rect width="20" height="10" x="110" y="130" fill="#ffffff" /><rect width="20" height="10" x="130" y="130" fill="#000000" /><rect width="10" height="10" x="150" y="130" fill="#068940" /><rect width="10" height="10" x="160" y="130" fill="#254efb" /><rect width="10" height="10" x="170" y="130" fill="#257ced" /><rect width="20" height="10" x="180" y="130" fill="#ffffff" /><rect width="20" height="10" x="200" y="130" fill="#000000" /><rect width="10" height="10" x="220" y="130" fill="#257ced" /><rect width="10" height="10" x="70" y="140" fill="#257ced" /><rect width="10" height="10" x="100" y="140" fill="#068940" /><rect width="20" height="10" x="110" y="140" fill="#ffffff" /><rect width="20" height="10" x="130" y="140" fill="#000000" /><rect width="10" height="10" x="150" y="140" fill="#068940" /><rect width="10" height="10" x="170" y="140" fill="#257ced" /><rect width="20" height="10" x="180" y="140" fill="#ffffff" /><rect width="20" height="10" x="200" y="140" fill="#000000" /><rect width="10" height="10" x="220" y="140" fill="#257ced" /><rect width="10" height="10" x="70" y="150" fill="#257ced" /><rect width="10" height="10" x="100" y="150" fill="#068940" /><rect width="20" height="10" x="110" y="150" fill="#ffffff" /><rect width="20" height="10" x="130" y="150" fill="#000000" /><rect width="10" height="10" x="150" y="150" fill="#068940" /><rect width="10" height="10" x="170" y="150" fill="#257ced" /><rect width="20" height="10" x="180" y="150" fill="#ffffff" /><rect width="20" height="10" x="200" y="150" fill="#000000" /><rect width="10" height="10" x="220" y="150" fill="#257ced" /><rect width="60" height="10" x="100" y="160" fill="#068940" /><rect width="60" height="10" x="170" y="160" fill="#257ced" /></svg>