<svg width="320" height="320" viewBox="0 0 320 320" xmlns="http://www.w3.org/2000/svg" shape-rendering="crispEdges"><rect width="100%" height="100%" fill="#d5d7e1" /><rect width="140" height="10" x="90" y="210" fill="#fe500c" /><rect width="140" height="10" x="90" y="220" fill="#fe500c" /><rect width="140" height="10" x="90" y="230" fill="#fe500c" /><rect width="140" height="10" x="90" y="240" fill="#fe500c" /><rect width="20" height="10" x="90" y="250" fill="#fe500c" /><rect width="110" height="10" x="120" y="250" fill="#fe500c" /><rect width="20" height="10" x="90" y="260" fill="#fe500c" /><rect width="110" height="10" x="120" y="260" fill="#fe500c" /><rect width="20" height="10" x="90" y="270" fill="#fe500c" /><rect width="110" height="10" x="120" y="270" fill="#fe500c" /><rect width="20" height="10" x="90" y="280" fill="#fe500c" /><rect width="110" height="10" x="120" y="280" fill="#fe500c" /><rect width="20" height="10" x="90" y="290" fill="#fe500c" /><rect width="110" height="10" x="120" y="290" fill="#fe500c" /><rect width="20" height="10" x="90" y="300" fill="#fe500c" /><rect width="110" height="10" x="120" y="300" fill="#fe500c" /><rect width="20" height="10" x="90" y="310" fill="#fe500c" /><rect width="110" height="10" x="120" y="310" fill="#fe500c" /><rect width="20" height="10" x="90" y="210" fill="#b9185c" /><rect width="40" height="10" x="120" y="210" fill="#b9185c" /><rect width="20" height="10" x="170" y="210" fill="#b9185c" /><rect width="30" height="10" x="200" y="210" fill="#b9185c" /><rect width="40" height="10" x="120" y="220" fill="#b9185c" /><rect width="30" height="10" x="200" y="220" fill="#b9185c" /><rect width="40" height="10" x="120" y="230" fill="#b9185c" /><rect width="30" height="10" x="200" y="230" fill="#b9185c" /><rect width="40" height="10" x="120" y="240" fill="#b9185c" /><rect width="30" height="10" x="200" y="240" fill="#b9185c" /><rect width="10" height="10" x="120" y="250" fill="#b9185c" /><rect width="10" height="10" x="150" y="250" fill="#b9185c" /><rect width="10" height="10" x="200" y="250" fill="#b9185c" /><rect width="10" height="10" x="160" y="260" fill="#b9185c" /><rect width="10" height="10" x="190" y="260" fill="#b9185c" /><rect width="20" height="10" x="90" y="270" fill="#b9185c" /><rect width="40" height="10" x="160" y="270" fill="#b9185c" /><rect width="20" height="10" x="90" y="280" fill="#b9185c" /><rect width="40" height="10" x="160" y="280" fill="#b9185c" /><rect width="20" height="10" x="90" y="290" fill="#b9185c" /><rect width="40" height="10" x="160" y="290" fill="#b9185c" /><rect width="20" height="10" x="90" y="300" fill="#b9185c" /><rect width="20" height="10" x="130" y="300" fill="#b9185c" /><rect width="40" height="10" x="160" y="300" fill="#b9185c" /><rect width="20" height="10" x="210" y="300" fill="#b9185c" /><rect width="20" height="10" x="90" y="310" fill="#b9185c" /><rect width="40" height="10" x="120" y="310" fill="#b9185c" /><rect width="20" height="10" x="170" y="310" fill="#b9185c" /><rect width="30" height="10" x="200" y="310" fill="#b9185c" /><rect width="10" height="10" x="120" y="40" fill="#3f9323" /><rect width="10" height="10" x="130" y="40" fill="#c4da53" /><rect width="10" height="10" x="140" y="40" fill="#3f9323" /><rect width="20" height="10" x="80" y="50" fill="#b91b43" /><rect width="10" height="10" x="100" y="50" fill="#d18687" /><rect width="10" height="10" x="110" y="50" fill="#3f9323" /><rect width="10" height="10" x="120" y="50" fill="#c4da53" /><rect width="10" height="10" x="130" y="50" fill="#3f9323" /><rect width="10" height="10" x="140" y="50" fill="#c4da53" /><rect width="10" height="10" x="150" y="50" fill="#3f9323" /><rect width="20" height="10" x="160" y="50" fill="#eed811" /><rect width="10" height="10" x="180" y="50" fill="#d18687" /><rect width="30" height="10" x="190" y="50" fill="#b91b43" /><rect width="10" height="10" x="220" y="50" fill="#d18687" /><rect width="10" height="10" x="230" y="50" fill="#b91b43" /><rect width="30" height="10" x="60" y="60" fill="#b91b43" /><rect width="10" height="10" x="90" y="60" fill="#d18687" /><rect width="20" height="10" x="100" y="60" fill="#b91b43" /><rect width="10" height="10" x="120" y="60" fill="#3f9323" /><rect width="10" height="10" x="130" y="60" fill="#c4da53" /><rect width="10" height="10" x="140" y="60" fill="#3f9323" /><rect width="40" height="10" x="150" y="60" fill="#eed811" /><rect width="20" height="10" x="190" y="60" fill="#b91b43" /><rect width="10" height="10" x="210" y="60" fill="#d18687" /><rect width="40" height="10" x="220" y="60" fill="#b91b43" /><rect width="40" height="10" x="40" y="70" fill="#b91b43" /><rect width="10" height="10" x="80" y="70" fill="#d18687" /><rect width="30" height="10" x="90" y="70" fill="#b91b43" /><rect width="10" height="10" x="120" y="70" fill="#d18687" /><rect width="30" height="10" x="130" y="70" fill="#b91b43" /><rect width="10" height="10" x="160" y="70" fill="#d18687" /><rect width="30" height="10" x="170" y="70" fill="#b91b43" /><rect width="10" height="10" x="200" y="70" fill="#d18687" /><rect width="70" height="10" x="210" y="70" fill="#b91b43" /><rect width="10" height="10" x="40" y="80" fill="#b91b43" /><rect width="200" height="10" x="50" y="80" fill="#4a5358" /><rect width="30" height="10" x="250" y="80" fill="#b91b43" /><rect width="220" height="10" x="40" y="90" fill="#343235" /><rect width="20" height="10" x="260" y="90" fill="#b91b43" /><rect width="30" height="10" x="40" y="100" fill="#343235" /><rect width="180" height="10" x="70" y="100" fill="#ffffff" /><rect width="20" height="10" x="250" y="100" fill="#343235" /><rect width="10" height="10" x="270" y="100" fill="#b91b43" /><rect width="220" height="10" x="50" y="110" fill="#ffffff" /><rect width="220" height="10" x="50" y="120" fill="#ffffff" /><rect width="200" height="10" x="60" y="130" fill="#ffffff" /><rect width="220" height="10" x="50" y="140" fill="#ffffff" /><rect width="220" height="10" x="50" y="150" fill="#ffffff" /><rect width="200" height="10" x="60" y="160" fill="#ffffff" /><rect width="220" height="10" x="50" y="170" fill="#ffffff" /><rect width="100" height="10" x="50" y="180" fill="#ffffff" /><rect width="30" height="10" x="150" y="180" fill="#dcd8d3" /><rect width="90" height="10" x="180" y="180" fill="#ffffff" /><rect width="200" height="10" x="60" y="190" fill="#ffffff" /><rect width="180" height="10" x="70" y="200" fill="#ffffff" /><rect width="60" height="10" x="100" y="110" fill="#e8705b" /><rect width="60" height="10" x="170" y="110" fill="#e8705b" /><rect width="10" height="10" x="100" y="120" fill="#e8705b" /><rect width="20" height="10" x="110" y="120" fill="#ffffff" /><rect width="20" height="10" x="130" y="120" fill="#000000" /><rect width="10" height="10" x="150" y="120" fill="#e8705b" /><rect width="10" height="10" x="170" y="120" fill="#e8705b" /><rect width="20" height="10" x="180" y="120" fill="#ffffff" /><rect width="20" height="10" x="200" y="120" fill="#000000" /><rect width="10" height="10" x="220" y="120" fill="#e8705b" /><rect width="40" height="10" x="70" y="130" fill="#e8705b" /><rect width="20" height="10" x="110" y="130" fill="#ffffff" /><rect width="20" height="10" x="130" y="130" fill="#000000" /><rect width="30" height="10" x="150" y="130" fill="#e8705b" /><rect width="20" height="10" x="180" y="130" fill="#ffffff" /><rect width="20" height="10" x="200" y="130" fill="#000000" /><rect width="10" height="10" x="220" y="130" fill="#e8705b" /><rect width="10" height="10" x="70" y="140" fill="#e8705b" /><rect width="10" height="10" x="100" y="140" fill="#e8705b" /><rect width="20" height="10" x="110" y="140" fill="#ffffff" /><rect width="20" height="10" x="130" y="140" fill="#000000" /><rect width="10" height="10" x="150" y="140" fill="#e8705b" /><rect width="10" height="10" x="170" y="140" fill="#e8705b" /><rect width="20" height="10" x="180" y="140" fill="#ffffff" /><rect width="20" height="10" x="200" y="140" fill="#000000" /><rect width="10" height="10" x="220" y="140" fill="#e8705b" /><rect width="10" height="10" x="70" y="150" fill="#e8705b" /><rect width="10" height="10" x="100" y="150" fill="#e8705b" /><rect width="20" height="10" x="110" y="150" fill="#ffffff" /><rect width="20" height="10" x="130" y="150" fill="#000000" /><rect width="10" height="10" x="150" y="150" fill="#e8705b" /><rect width="10" height="10" x="170" y="150" fill="#e8705b" /><rect width="20" height="10" x="180" y="150" fill="#ffffff" /><rect width="20" height="10" x="200" y="150" fill="#000000" /><rect width="10" height="10" x="220" y="150" fill="#e8705b" /><rect width="60" height="10" x="100" y="160" fill="#e8705b" /><rect width="60" height="10" x="170" y="160" fill="#e8705b" /></svg>