<svg width="320" height="320" viewBox="0 0 320 320" xmlns="http://www.w3.org/2000/svg" shape-rendering="crispEdges"><rect width="100%" height="100%" fill="#d5d7e1" /><rect width="140" height="10" x="90" y="210" fill="#fd8b5b" /><rect width="140" height="10" x="90" y="220" fill="#fd8b5b" /><rect width="140" height="10" x="90" y="230" fill="#fd8b5b" /><rect width="140" height="10" x="90" y="240" fill="#fd8b5b" /><rect width="20" height="10" x="90" y="250" fill="#fd8b5b" /><rect width="110" height="10" x="120" y="250" fill="#fd8b5b" /><rect width="20" height="10" x="90" y="260" fill="#fd8b5b" /><rect width="110" height="10" x="120" y="260" fill="#fd8b5b" /><rect width="20" height="10" x="90" y="270" fill="#fd8b5b" /><rect width="110" height="10" x="120" y="270" fill="#fd8b5b" /><rect width="20" height="10" x="90" y="280" fill="#fd8b5b" /><rect width="110" height="10" x="120" y="280" fill="#fd8b5b" /><rect width="20" height="10" x="90" y="290" fill="#fd8b5b" /><rect width="110" height="10" x="120" y="290" fill="#fd8b5b" /><rect width="20" height="10" x="90" y="300" fill="#fd8b5b" /><rect width="110" height="10" x="120" y="300" fill="#fd8b5b" /><rect width="20" height="10" x="90" y="310" fill="#fd8b5b" /><rect width="110" height="10" x="120" y="310" fill="#fd8b5b" /><rect width="30" height="10" x="150" y="210" fill="#fffdf4" /><rect width="30" height="10" x="120" y="220" fill="#fffdf4" /><rect width="30" height="10" x="180" y="220" fill="#fffdf4" /><rect width="30" height="10" x="90" y="230" fill="#fffdf4" /><rect width="20" height="10" x="210" y="230" fill="#fffdf4" /><rect width="30" height="10" x="120" y="240" fill="#fffdf4" /><rect width="30" height="10" x="180" y="240" fill="#fffdf4" /><rect width="30" height="10" x="150" y="250" fill="#fffdf4" /><rect width="30" height="10" x="120" y="260" fill="#fffdf4" /><rect width="30" height="10" x="180" y="260" fill="#fffdf4" /><rect width="20" height="10" x="90" y="270" fill="#fffdf4" /><rect width="20" height="10" x="210" y="270" fill="#fffdf4" /><rect width="30" height="10" x="120" y="280" fill="#fffdf4" /><rect width="30" height="10" x="180" y="280" fill="#fffdf4" /><rect width="30" height="10" x="150" y="290" fill="#fffdf4" /><rect width="30" height="10" x="120" y="300" fill="#fffdf4" /><rect width="30" height="10" x="180" y="300" fill="#fffdf4" /><rect width="20" height="10" x="90" y="310" fill="#fffdf4" /><rect width="20" height="10" x="210" y="310" fill="#fffdf4" /><rect width="20" height="10" x="160" y="40" fill="#eff2fa" /><rect width="170" height="10" x="80" y="50" fill="#eff2fa" /><rect width="170" height="10" x="80" y="60" fill="#d8dadf" /><rect width="170" height="10" x="80" y="70" fill="#eff2fa" /><rect width="20" height="10" x="260" y="70" fill="#eff2fa" /><rect width="180" height="10" x="80" y="80" fill="#eff2fa" /><rect width="180" height="10" x="80" y="90" fill="#eff2fa" /><rect width="170" height="10" x="80" y="100" fill="#eff2fa" /><rect width="170" height="10" x="80" y="110" fill="#eff2fa" /><rect width="170" height="10" x="80" y="120" fill="#eff2fa" /><rect width="170" height="10" x="80" y="130" fill="#eff2fa" /><rect width="170" height="10" x="80" y="140" fill="#eff2fa" /><rect width="170" height="10" x="80" y="150" fill="#eff2fa" /><rect width="170" height="10" x="80" y="160" fill="#eff2fa" /><rect width="10" height="10" x="80" y="170" fill="#00499c" /><rect width="150" height="10" x="90" y="170" fill="#eff2fa" /><rect width="10" height="10" x="240" y="170" fill="#00499c" /><rect width="150" height="10" x="90" y="180" fill="#00499c" /><rect width="150" height="10" x="90" y="190" fill="#9cb4b8" /><rect width="150" height="10" x="90" y="200" fill="#6b3f39" /><rect width="60" height="10" x="100" y="110" fill="#e8705b" /><rect width="60" height="10" x="170" y="110" fill="#e8705b" /><rect width="10" height="10" x="100" y="120" fill="#e8705b" /><rect width="20" height="10" x="110" y="120" fill="#ffffff" /><rect width="20" height="10" x="130" y="120" fill="#000000" /><rect width="10" height="10" x="150" y="120" fill="#e8705b" /><rect width="10" height="10" x="170" y="120" fill="#e8705b" /><rect width="20" height="10" x="180" y="120" fill="#ffffff" /><rect width="20" height="10" x="200" y="120" fill="#000000" /><rect width="10" height="10" x="220" y="120" fill="#e8705b" /><rect width="40" height="10" x="70" y="130" fill="#e8705b" /><rect width="20" height="10" x="110" y="130" fill="#ffffff" /><rect width="20" height="10" x="130" y="130" fill="#000000" /><rect width="30" height="10" x="150" y="130" fill="#e8705b" /><rect width="20" height="10" x="180" y="130" fill="#ffffff" /><rect width="20" height="10" x="200" y="130" fill="#000000" /><rect width="10" height="10" x="220" y="130" fill="#e8705b" /><rect width="10" height="10" x="70" y="140" fill="#e8705b" /><rect width="10" height="10" x="100" y="140" fill="#e8705b" /><rect width="20" height="10" x="110" y="140" fill="#ffffff" /><rect width="20" height="10" x="130" y="140" fill="#000000" /><rect width="10" height="10" x="150" y="140" fill="#e8705b" /><rect width="10" height="10" x="170" y="140" fill="#e8705b" /><rect width="20" height="10" x="180" y="140" fill="#ffffff" /><rect width="20" height="10" x="200" y="140" fill="#000000" /><rect width="10" height="10" x="220" y="140" fill="#e8705b" /><rect width="10" height="10" x="70" y="150" fill="#e8705b" /><rect width="10" height="10" x="100" y="150" fill="#e8705b" /><rect width="20" height="10" x="110" y="150" fill="#ffffff" /><rect width="20" height="10" x="130" y="150" fill="#000000" /><rect width="10" height="10" x="150" y="150" fill="#e8705b" /><rect width="10" height="10" x="170" y="150" fill="#e8705b" /><rect width="20" height="10" x="180" y="150" fill="#ffffff" /><rect width="20" height="10" x="200" y="150" fill="#000000" /><rect width="10" height="10" x="220" y="150" fill="#e8705b" /><rect width="60" height="10" x="100" y="160" fill="#e8705b" /><rect width="60" height="10" x="170" y="160" fill="#e8705b" /></svg>