<svg width="320" height="320" viewBox="0 0 320 320" xmlns="http://www.w3.org/2000/svg" shape-rendering="crispEdges"><rect width="100%" height="100%" fill="#e1d7d5" /><rect width="140" height="10" x="90" y="210" fill="#867c1d" /><rect width="140" height="10" x="90" y="220" fill="#867c1d" /><rect width="140" height="10" x="90" y="230" fill="#867c1d" /><rect width="140" height="10" x="90" y="240" fill="#867c1d" /><rect width="20" height="10" x="90" y="250" fill="#867c1d" /><rect width="110" height="10" x="120" y="250" fill="#867c1d" /><rect width="20" height="10" x="90" y="260" fill="#867c1d" /><rect width="110" height="10" x="120" y="260" fill="#867c1d" /><rect width="20" height="10" x="90" y="270" fill="#867c1d" /><rect width="110" height="10" x="120" y="270" fill="#867c1d" /><rect width="20" height="10" x="90" y="280" fill="#867c1d" /><rect width="110" height="10" x="120" y="280" fill="#867c1d" /><rect width="20" height="10" x="90" y="290" fill="#867c1d" /><rect width="110" height="10" x="120" y="290" fill="#867c1d" /><rect width="20" height="10" x="90" y="300" fill="#867c1d" /><rect width="110" height="10" x="120" y="300" fill="#867c1d" /><rect width="20" height="10" x="90" y="310" fill="#867c1d" /><rect width="110" height="10" x="120" y="310" fill="#867c1d" /><rect width="30" height="10" x="100" y="210" fill="#5a6b7b" /><rect width="10" height="10" x="170" y="210" fill="#5a6b7b" /><rect width="10" height="10" x="220" y="210" fill="#5a6b7b" /><rect width="60" height="10" x="90" y="220" fill="#5a6b7b" /><rect width="10" height="10" x="170" y="220" fill="#5a6b7b" /><rect width="30" height="10" x="200" y="220" fill="#5a6b7b" /><rect width="140" height="10" x="90" y="230" fill="#5a6b7b" /><rect width="60" height="10" x="90" y="240" fill="#5a6b7b" /><rect width="10" height="10" x="170" y="240" fill="#5a6b7b" /><rect width="30" height="10" x="200" y="240" fill="#5a6b7b" /><rect width="10" height="10" x="100" y="250" fill="#5a6b7b" /><rect width="10" height="10" x="120" y="250" fill="#5a6b7b" /><rect width="10" height="10" x="170" y="250" fill="#5a6b7b" /><rect width="10" height="10" x="220" y="250" fill="#5a6b7b" /><rect width="10" height="10" x="100" y="260" fill="#5a6b7b" /><rect width="10" height="10" x="120" y="260" fill="#5a6b7b" /><rect width="30" height="10" x="160" y="260" fill="#5a6b7b" /><rect width="10" height="10" x="220" y="260" fill="#5a6b7b" /><rect width="30" height="10" x="160" y="270" fill="#5a6b7b" /><rect width="70" height="10" x="140" y="280" fill="#5a6b7b" /><rect width="20" height="10" x="90" y="290" fill="#5a6b7b" /><rect width="110" height="10" x="120" y="290" fill="#5a6b7b" /><rect width="70" height="10" x="140" y="300" fill="#5a6b7b" /><rect width="30" height="10" x="160" y="310" fill="#5a6b7b" /><rect width="150" height="10" x="80" y="50" fill="#fde7f5" /><rect width="10" height="10" x="230" y="50" fill="#e4a499" /><rect width="40" height="10" x="60" y="60" fill="#fde7f5" /><rect width="10" height="10" x="100" y="60" fill="#fff0ee" /><rect width="20" height="10" x="110" y="60" fill="#efad81" /><rect width="10" height="10" x="130" y="60" fill="#fff0ee" /><rect width="20" height="10" x="140" y="60" fill="#c16710" /><rect width="10" height="10" x="160" y="60" fill="#fff0ee" /><rect width="20" height="10" x="170" y="60" fill="#c16710" /><rect width="10" height="10" x="190" y="60" fill="#fff0ee" /><rect width="10" height="10" x="200" y="60" fill="#c16710" /><rect width="10" height="10" x="210" y="60" fill="#efad81" /><rect width="10" height="10" x="220" y="60" fill="#fff0ee" /><rect width="20" height="10" x="230" y="60" fill="#e4a499" /><rect width="10" height="10" x="250" y="60" fill="#fde7f5" /><rect width="40" height="10" x="40" y="70" fill="#fde7f5" /><rect width="20" height="10" x="80" y="70" fill="#fff0ee" /><rect width="10" height="10" x="100" y="70" fill="#c16710" /><rect width="20" height="10" x="110" y="70" fill="#fff0ee" /><rect width="10" height="10" x="130" y="70" fill="#c16710" /><rect width="20" height="10" x="140" y="70" fill="#fff0ee" /><rect width="10" height="10" x="160" y="70" fill="#c16710" /><rect width="20" height="10" x="170" y="70" fill="#fff0ee" /><rect width="10" height="10" x="190" y="70" fill="#c16710" /><rect width="20" height="10" x="200" y="70" fill="#fff0ee" /><rect width="10" height="10" x="220" y="70" fill="#c16710" /><rect width="20" height="10" x="230" y="70" fill="#fff0ee" /><rect width="20" height="10" x="250" y="70" fill="#fde7f5" /><rect width="30" height="10" x="40" y="80" fill="#fde7f5" /><rect width="10" height="10" x="70" y="80" fill="#fff0ee" /><rect width="20" height="10" x="80" y="80" fill="#c16710" /><rect width="10" height="10" x="100" y="80" fill="#fff0ee" /><rect width="20" height="10" x="110" y="80" fill="#c16710" /><rect width="10" height="10" x="130" y="80" fill="#fff0ee" /><rect width="20" height="10" x="140" y="80" fill="#c16710" /><rect width="10" height="10" x="160" y="80" fill="#fff0ee" /><rect width="20" height="10" x="170" y="80" fill="#efad81" /><rect width="10" height="10" x="190" y="80" fill="#fff0ee" /><rect width="10" height="10" x="200" y="80" fill="#efad81" /><rect width="10" height="10" x="210" y="80" fill="#c16710" /><rect width="10" height="10" x="220" y="80" fill="#fff0ee" /><rect width="20" height="10" x="230" y="80" fill="#efad81" /><rect width="10" height="10" x="250" y="80" fill="#fff0ee" /><rect width="20" height="10" x="260" y="80" fill="#efad81" /><rect width="30" height="10" x="30" y="90" fill="#fde7f5" /><rect width="10" height="10" x="60" y="90" fill="#fff0ee" /><rect width="10" height="10" x="70" y="90" fill="#efad81" /><rect width="20" height="10" x="80" y="90" fill="#fff0ee" /><rect width="10" height="10" x="100" y="90" fill="#efad81" /><rect width="20" height="10" x="110" y="90" fill="#fff0ee" /><rect width="10" height="10" x="130" y="90" fill="#efad81" /><rect width="20" height="10" x="140" y="90" fill="#fff0ee" /><rect width="10" height="10" x="160" y="90" fill="#efad81" /><rect width="20" height="10" x="170" y="90" fill="#fff0ee" /><rect width="10" height="10" x="190" y="90" fill="#efad81" /><rect width="20" height="10" x="200" y="90" fill="#fff0ee" /><rect width="10" height="10" x="220" y="90" fill="#efad81" /><rect width="20" height="10" x="230" y="90" fill="#fff0ee" /><rect width="10" height="10" x="250" y="90" fill="#c16710" /><rect width="20" height="10" x="260" y="90" fill="#fff0ee" /><rect width="10" height="10" x="280" y="90" fill="#efad81" /><rect width="30" height="10" x="30" y="100" fill="#fde7f5" /><rect width="170" height="10" x="60" y="100" fill="#ffffff" /><rect width="10" height="10" x="230" y="100" fill="#efad81" /><rect width="10" height="10" x="240" y="100" fill="#c16710" /><rect width="10" height="10" x="250" y="100" fill="#fff0ee" /><rect width="20" height="10" x="260" y="100" fill="#efad81" /><rect width="10" height="10" x="280" y="100" fill="#fff0ee" /><rect width="190" height="10" x="50" y="110" fill="#ffffff" /><rect width="10" height="10" x="240" y="110" fill="#fff0ee" /><rect width="10" height="10" x="250" y="110" fill="#efad81" /><rect width="20" height="10" x="260" y="110" fill="#fff0ee" /><rect width="10" height="10" x="280" y="110" fill="#efad81" /><rect width="10" height="10" x="290" y="110" fill="#fff0ee" /><rect width="210" height="10" x="50" y="120" fill="#ffffff" /><rect width="20" height="10" x="260" y="120" fill="#efad81" /><rect width="10" height="10" x="280" y="120" fill="#fff0ee" /><rect width="10" height="10" x="290" y="120" fill="#efad81" /><rect width="200" height="10" x="60" y="130" fill="#ffffff" /><rect width="220" height="10" x="50" y="140" fill="#ffffff" /><rect width="220" height="10" x="50" y="150" fill="#ffffff" /><rect width="200" height="10" x="60" y="160" fill="#ffffff" /><rect width="220" height="10" x="50" y="170" fill="#ffffff" /><rect width="100" height="10" x="50" y="180" fill="#ffffff" /><rect width="30" height="10" x="150" y="180" fill="#dcd8d3" /><rect width="90" height="10" x="180" y="180" fill="#ffffff" /><rect width="200" height="10" x="60" y="190" fill="#ffffff" /><rect width="180" height="10" x="70" y="200" fill="#ffffff" /><rect width="60" height="10" x="100" y="110" fill="#8dd122" /><rect width="60" height="10" x="170" y="110" fill="#8dd122" /><rect width="10" height="10" x="100" y="120" fill="#8dd122" /><rect width="20" height="10" x="110" y="120" fill="#ffffff" /><rect width="20" height="10" x="130" y="120" fill="#000000" /><rect width="10" height="10" x="150" y="120" fill="#8dd122" /><rect width="10" height="10" x="170" y="120" fill="#8dd122" /><rect width="20" height="10" x="180" y="120" fill="#ffffff" /><rect width="20" height="10" x="200" y="120" fill="#000000" /><rect width="10" height="10" x="220" y="120" fill="#8dd122" /><rect width="40" height="10" x="70" y="130" fill="#8dd122" /><rect width="20" height="10" x="110" y="130" fill="#ffffff" /><rect width="20" height="10" x="130" y="130" fill="#000000" /><rect width="30" height="10" x="150" y="130" fill="#8dd122" /><rect width="20" height="10" x="180" y="130" fill="#ffffff" /><rect width="20" height="10" x="200" y="130" fill="#000000" /><rect width="10" height="10" x="220" y="130" fill="#8dd122" /><rect width="10" height="10" x="70" y="140" fill="#8dd122" /><rect width="10" height="10" x="100" y="140" fill="#8dd122" /><rect width="20" height="10" x="110" y="140" fill="#ffffff" /><rect width="20" height="10" x="130" y="140" fill="#000000" /><rect width="10" height="10" x="150" y="140" fill="#8dd122" /><rect width="10" height="10" x="170" y="140" fill="#8dd122" /><rect width="20" height="10" x="180" y="140" fill="#ffffff" /><rect width="20" height="10" x="200" y="140" fill="#000000" /><rect width="10" height="10" x="220" y="140" fill="#8dd122" /><rect width="10" height="10" x="70" y="150" fill="#8dd122" /><rect width="10" height="10" x="100" y="150" fill="#8dd122" /><rect width="20" height="10" x="110" y="150" fill="#ffffff" /><rect width="20" height="10" x="130" y="150" fill="#000000" /><rect width="10" height="10" x="150" y="150" fill="#8dd122" /><rect width="10" height="10" x="170" y="150" fill="#8dd122" /><rect width="20" height="10" x="180" y="150" fill="#ffffff" /><rect width="20" height="10" x="200" y="150" fill="#000000" /><rect width="10" height="10" x="220" y="150" fill="#8dd122" /><rect width="60" height="10" x="100" y="160" fill="#8dd122" /><rect width="60" height="10" x="170" y="160" fill="#8dd122" /></svg>