<svg width="320" height="320" viewBox="0 0 320 320" xmlns="http://www.w3.org/2000/svg" shape-rendering="crispEdges"><rect width="100%" height="100%" fill="#d5d7e1" /><rect width="140" height="10" x="90" y="210" fill="#d22209" /><rect width="140" height="10" x="90" y="220" fill="#d22209" /><rect width="140" height="10" x="90" y="230" fill="#d22209" /><rect width="140" height="10" x="90" y="240" fill="#d22209" /><rect width="20" height="10" x="90" y="250" fill="#d22209" /><rect width="110" height="10" x="120" y="250" fill="#d22209" /><rect width="20" height="10" x="90" y="260" fill="#d22209" /><rect width="110" height="10" x="120" y="260" fill="#d22209" /><rect width="20" height="10" x="90" y="270" fill="#d22209" /><rect width="110" height="10" x="120" y="270" fill="#d22209" /><rect width="20" height="10" x="90" y="280" fill="#d22209" /><rect width="110" height="10" x="120" y="280" fill="#d22209" /><rect width="20" height="10" x="90" y="290" fill="#d22209" /><rect width="110" height="10" x="120" y="290" fill="#d22209" /><rect width="20" height="10" x="90" y="300" fill="#d22209" /><rect width="110" height="10" x="120" y="300" fill="#d22209" /><rect width="20" height="10" x="90" y="310" fill="#d22209" /><rect width="110" height="10" x="120" y="310" fill="#d22209" /><rect width="10" height="10" x="110" y="210" fill="#ffffff" /><rect width="10" height="10" x="170" y="210" fill="#ffffff" /><rect width="10" height="10" x="100" y="220" fill="#ffffff" /><rect width="10" height="10" x="160" y="220" fill="#ffffff" /><rect width="10" height="10" x="180" y="220" fill="#ffffff" /><rect width="10" height="10" x="220" y="220" fill="#ffffff" /><rect width="10" height="10" x="90" y="230" fill="#ffffff" /><rect width="10" height="10" x="150" y="230" fill="#ffffff" /><rect width="10" height="10" x="190" y="230" fill="#ffffff" /><rect width="10" height="10" x="210" y="230" fill="#ffffff" /><rect width="10" height="10" x="140" y="240" fill="#ffffff" /><rect width="10" height="10" x="200" y="240" fill="#ffffff" /><rect width="10" height="10" x="90" y="250" fill="#ffffff" /><rect width="10" height="10" x="130" y="250" fill="#ffffff" /><rect width="10" height="10" x="150" y="250" fill="#ffffff" /><rect width="10" height="10" x="210" y="250" fill="#ffffff" /><rect width="10" height="10" x="100" y="260" fill="#ffffff" /><rect width="10" height="10" x="120" y="260" fill="#ffffff" /><rect width="10" height="10" x="160" y="260" fill="#ffffff" /><rect width="10" height="10" x="220" y="260" fill="#ffffff" /><rect width="10" height="10" x="170" y="270" fill="#ffffff" /><rect width="10" height="10" x="100" y="280" fill="#ffffff" /><rect width="10" height="10" x="160" y="280" fill="#ffffff" /><rect width="10" height="10" x="180" y="280" fill="#ffffff" /><rect width="10" height="10" x="220" y="280" fill="#ffffff" /><rect width="10" height="10" x="90" y="290" fill="#ffffff" /><rect width="10" height="10" x="150" y="290" fill="#ffffff" /><rect width="10" height="10" x="190" y="290" fill="#ffffff" /><rect width="10" height="10" x="210" y="290" fill="#ffffff" /><rect width="10" height="10" x="140" y="300" fill="#ffffff" /><rect width="10" height="10" x="200" y="300" fill="#ffffff" /><rect width="10" height="10" x="90" y="310" fill="#ffffff" /><rect width="10" height="10" x="130" y="310" fill="#ffffff" /><rect width="10" height="10" x="150" y="310" fill="#ffffff" /><rect width="10" height="10" x="210" y="310" fill="#ffffff" /><rect width="30" height="10" x="140" y="20" fill="#d32a09" /><rect width="30" height="10" x="130" y="30" fill="#d32a09" /><rect width="20" height="10" x="160" y="30" fill="#d56333" /><rect width="10" height="10" x="60" y="40" fill="#f9f6d1" /><rect width="10" height="10" x="80" y="40" fill="#f9f6d1" /><rect width="10" height="10" x="100" y="40" fill="#f9f6d1" /><rect width="10" height="10" x="120" y="40" fill="#f9f6d1" /><rect width="10" height="10" x="130" y="40" fill="#d32a09" /><rect width="10" height="10" x="140" y="40" fill="#f9f6d1" /><rect width="10" height="10" x="150" y="40" fill="#d32a09" /><rect width="10" height="10" x="160" y="40" fill="#f9f6d1" /><rect width="10" height="10" x="170" y="40" fill="#d56333" /><rect width="10" height="10" x="180" y="40" fill="#f9f6d1" /><rect width="10" height="10" x="200" y="40" fill="#f9f6d1" /><rect width="10" height="10" x="220" y="40" fill="#f9f6d1" /><rect width="10" height="10" x="240" y="40" fill="#f9f6d1" /><rect width="10" height="10" x="40" y="50" fill="#f9f6d1" /><rect width="10" height="10" x="60" y="50" fill="#f9f6d1" /><rect width="10" height="10" x="70" y="50" fill="#cfc2ab" /><rect width="10" height="10" x="80" y="50" fill="#f9f6d1" /><rect width="10" height="10" x="90" y="50" fill="#cfc2ab" /><rect width="10" height="10" x="100" y="50" fill="#f9f6d1" /><rect width="10" height="10" x="110" y="50" fill="#cfc2ab" /><rect width="10" height="10" x="120" y="50" fill="#f9f6d1" /><rect width="10" height="10" x="130" y="50" fill="#cfc2ab" /><rect width="10" height="10" x="140" y="50" fill="#f9f6d1" /><rect width="10" height="10" x="150" y="50" fill="#cfc2ab" /><rect width="10" height="10" x="160" y="50" fill="#f9f6d1" /><rect width="10" height="10" x="170" y="50" fill="#cfc2ab" /><rect width="10" height="10" x="180" y="50" fill="#f9f6d1" /><rect width="10" height="10" x="190" y="50" fill="#cfc2ab" /><rect width="10" height="10" x="200" y="50" fill="#f9f6d1" /><rect width="10" height="10" x="210" y="50" fill="#cfc2ab" /><rect width="10" height="10" x="220" y="50" fill="#f9f6d1" /><rect width="10" height="10" x="230" y="50" fill="#cfc2ab" /><rect width="10" height="10" x="240" y="50" fill="#f9f6d1" /><rect width="10" height="10" x="260" y="50" fill="#f9f6d1" /><rect width="20" height="10" x="30" y="60" fill="#f9f6d1" /><rect width="10" height="10" x="50" y="60" fill="#cfc2ab" /><rect width="10" height="10" x="60" y="60" fill="#f9f6d1" /><rect width="10" height="10" x="70" y="60" fill="#cfc2ab" /><rect width="10" height="10" x="80" y="60" fill="#f9f6d1" /><rect width="10" height="10" x="90" y="60" fill="#cfc2ab" /><rect width="10" height="10" x="100" y="60" fill="#f9f6d1" /><rect width="10" height="10" x="110" y="60" fill="#cfc2ab" /><rect width="10" height="10" x="120" y="60" fill="#f9f6d1" /><rect width="10" height="10" x="130" y="60" fill="#cfc2ab" /><rect width="10" height="10" x="140" y="60" fill="#f9f6d1" /><rect width="10" height="10" x="150" y="60" fill="#cfc2ab" /><rect width="10" height="10" x="160" y="60" fill="#f9f6d1" /><rect width="10" height="10" x="170" y="60" fill="#cfc2ab" /><rect width="10" height="10" x="180" y="60" fill="#f9f6d1" /><rect width="10" height="10" x="190" y="60" fill="#cfc2ab" /><rect width="10" height="10" x="200" y="60" fill="#f9f6d1" /><rect width="10" height="10" x="210" y="60" fill="#cfc2ab" /><rect width="10" height="10" x="220" y="60" fill="#f9f6d1" /><rect width="10" height="10" x="230" y="60" fill="#cfc2ab" /><rect width="10" height="10" x="240" y="60" fill="#f9f6d1" /><rect width="10" height="10" x="250" y="60" fill="#cfc2ab" /><rect width="20" height="10" x="260" y="60" fill="#f9f6d1" /><rect width="20" height="10" x="30" y="70" fill="#f9f6d1" /><rect width="10" height="10" x="50" y="70" fill="#cfc2ab" /><rect width="10" height="10" x="60" y="70" fill="#f9f6d1" /><rect width="10" height="10" x="70" y="70" fill="#cfc2ab" /><rect width="10" height="10" x="80" y="70" fill="#f9f6d1" /><rect width="10" height="10" x="90" y="70" fill="#cfc2ab" /><rect width="10" height="10" x="100" y="70" fill="#f9f6d1" /><rect width="10" height="10" x="110" y="70" fill="#cfc2ab" /><rect width="10" height="10" x="120" y="70" fill="#f9f6d1" /><rect width="10" height="10" x="130" y="70" fill="#cfc2ab" /><rect width="10" height="10" x="140" y="70" fill="#f9f6d1" /><rect width="10" height="10" x="150" y="70" fill="#cfc2ab" /><rect width="10" height="10" x="160" y="70" fill="#f9f6d1" /><rect width="10" height="10" x="170" y="70" fill="#cfc2ab" /><rect width="10" height="10" x="180" y="70" fill="#f9f6d1" /><rect width="10" height="10" x="190" y="70" fill="#cfc2ab" /><rect width="10" height="10" x="200" y="70" fill="#f9f6d1" /><rect width="10" height="10" x="210" y="70" fill="#cfc2ab" /><rect width="10" height="10" x="220" y="70" fill="#f9f6d1" /><rect width="10" height="10" x="230" y="70" fill="#cfc2ab" /><rect width="10" height="10" x="240" y="70" fill="#f9f6d1" /><rect width="10" height="10" x="250" y="70" fill="#cfc2ab" /><rect width="20" height="10" x="260" y="70" fill="#f9f6d1" /><rect width="20" height="10" x="30" y="80" fill="#f9f6d1" /><rect width="10" height="10" x="50" y="80" fill="#cfc2ab" /><rect width="10" height="10" x="60" y="80" fill="#f9f6d1" /><rect width="10" height="10" x="70" y="80" fill="#cfc2ab" /><rect width="10" height="10" x="80" y="80" fill="#f9f6d1" /><rect width="10" height="10" x="90" y="80" fill="#cfc2ab" /><rect width="10" height="10" x="100" y="80" fill="#f9f6d1" /><rect width="10" height="10" x="110" y="80" fill="#cfc2ab" /><rect width="10" height="10" x="120" y="80" fill="#f9f6d1" /><rect width="10" height="10" x="130" y="80" fill="#cfc2ab" /><rect width="10" height="10" x="140" y="80" fill="#f9f6d1" /><rect width="10" height="10" x="150" y="80" fill="#cfc2ab" /><rect width="10" height="10" x="160" y="80" fill="#f9f6d1" /><rect width="10" height="10" x="170" y="80" fill="#cfc2ab" /><rect width="10" height="10" x="180" y="80" fill="#f9f6d1" /><rect width="10" height="10" x="190" y="80" fill="#cfc2ab" /><rect width="10" height="10" x="200" y="80" fill="#f9f6d1" /><rect width="10" height="10" x="210" y="80" fill="#cfc2ab" /><rect width="10" height="10" x="220" y="80" fill="#f9f6d1" /><rect width="10" height="10" x="230" y="80" fill="#cfc2ab" /><rect width="10" height="10" x="240" y="80" fill="#f9f6d1" /><rect width="10" height="10" x="250" y="80" fill="#cfc2ab" /><rect width="20" height="10" x="260" y="80" fill="#f9f6d1" /><rect width="20" height="10" x="30" y="90" fill="#f9f6d1" /><rect width="10" height="10" x="50" y="90" fill="#cfc2ab" /><rect width="10" height="10" x="60" y="90" fill="#f9f6d1" /><rect width="10" height="10" x="70" y="90" fill="#cfc2ab" /><rect width="160" height="10" x="80" y="90" fill="#ffffff" /><rect width="10" height="10" x="240" y="90" fill="#f9f6d1" /><rect width="10" height="10" x="250" y="90" fill="#cfc2ab" /><rect width="20" height="10" x="260" y="90" fill="#f9f6d1" /><rect width="10" height="10" x="40" y="100" fill="#f9f6d1" /><rect width="10" height="10" x="50" y="100" fill="#cfc2ab" /><rect width="10" height="10" x="60" y="100" fill="#f9f6d1" /><rect width="180" height="10" x="70" y="100" fill="#ffffff" /><rect width="10" height="10" x="250" y="100" fill="#cfc2ab" /><rect width="10" height="10" x="260" y="100" fill="#f9f6d1" /><rect width="220" height="10" x="50" y="110" fill="#ffffff" /><rect width="200" height="10" x="60" y="120" fill="#ffffff" /><rect width="200" height="10" x="60" y="130" fill="#ffffff" /><rect width="220" height="10" x="50" y="140" fill="#ffffff" /><rect width="220" height="10" x="50" y="150" fill="#ffffff" /><rect width="200" height="10" x="60" y="160" fill="#ffffff" /><rect width="220" height="10" x="50" y="170" fill="#ffffff" /><rect width="100" height="10" x="50" y="180" fill="#ffffff" /><rect width="30" height="10" x="150" y="180" fill="#dcd8d3" /><rect width="90" height="10" x="180" y="180" fill="#ffffff" /><rect width="100" height="10" x="60" y="190" fill="#ffffff" /><rect width="10" height="10" x="160" y="190" fill="#dcd8d3" /><rect width="90" height="10" x="170" y="190" fill="#ffffff" /><rect width="180" height="10" x="70" y="200" fill="#ffffff" /><rect width="60" height="10" x="100" y="110" fill="#ffc110" /><rect width="60" height="10" x="170" y="110" fill="#f98f30" /><rect width="10" height="10" x="100" y="120" fill="#ffc110" /><rect width="20" height="10" x="110" y="120" fill="#ffffff" /><rect width="20" height="10" x="130" y="120" fill="#000000" /><rect width="10" height="10" x="150" y="120" fill="#ffc110" /><rect width="10" height="10" x="170" y="120" fill="#f98f30" /><rect width="20" height="10" x="180" y="120" fill="#ffffff" /><rect width="20" height="10" x="200" y="120" fill="#000000" /><rect width="10" height="10" x="220" y="120" fill="#f98f30" /><rect width="30" height="10" x="70" y="130" fill="#f78a18" /><rect width="10" height="10" x="100" y="130" fill="#ffc110" /><rect width="20" height="10" x="110" y="130" fill="#ffffff" /><rect width="20" height="10" x="130" y="130" fill="#000000" /><rect width="10" height="10" x="150" y="130" fill="#ffc110" /><rect width="10" height="10" x="160" y="130" fill="#f78a18" /><rect width="10" height="10" x="170" y="130" fill="#f98f30" /><rect width="20" height="10" x="180" y="130" fill="#ffffff" /><rect width="20" height="10" x="200" y="130" fill="#000000" /><rect width="10" height="10" x="220" y="130" fill="#f98f30" /><rect width="10" height="10" x="70" y="140" fill="#ffc110" /><rect width="10" height="10" x="100" y="140" fill="#ffc110" /><rect width="20" height="10" x="110" y="140" fill="#ffffff" /><rect width="20" height="10" x="130" y="140" fill="#000000" /><rect width="10" height="10" x="150" y="140" fill="#ffc110" /><rect width="10" height="10" x="170" y="140" fill="#f98f30" /><rect width="20" height="10" x="180" y="140" fill="#ffffff" /><rect width="20" height="10" x="200" y="140" fill="#000000" /><rect width="10" height="10" x="220" y="140" fill="#f98f30" /><rect width="10" height="10" x="70" y="150" fill="#ffc110" /><rect width="10" height="10" x="100" y="150" fill="#ffc110" /><rect width="20" height="10" x="110" y="150" fill="#ffffff" /><rect width="20" height="10" x="130" y="150" fill="#000000" /><rect width="10" height="10" x="150" y="150" fill="#ffc110" /><rect width="10" height="10" x="170" y="150" fill="#f98f30" /><rect width="20" height="10" x="180" y="150" fill="#ffffff" /><rect width="20" height="10" x="200" y="150" fill="#000000" /><rect width="10" height="10" x="220" y="150" fill="#f98f30" /><rect width="60" height="10" x="100" y="160" fill="#ffc110" /><rect width="60" height="10" x="170" y="160" fill="#f98f30" /></svg>