<svg width="320" height="320" viewBox="0 0 320 320" xmlns="http://www.w3.org/2000/svg" shape-rendering="crispEdges"><rect width="100%" height="100%" fill="#d5d7e1" /><rect width="140" height="10" x="90" y="210" fill="#fd8b5b" /><rect width="140" height="10" x="90" y="220" fill="#fd8b5b" /><rect width="140" height="10" x="90" y="230" fill="#fd8b5b" /><rect width="140" height="10" x="90" y="240" fill="#fd8b5b" /><rect width="20" height="10" x="90" y="250" fill="#fd8b5b" /><rect width="110" height="10" x="120" y="250" fill="#fd8b5b" /><rect width="20" height="10" x="90" y="260" fill="#fd8b5b" /><rect width="110" height="10" x="120" y="260" fill="#fd8b5b" /><rect width="20" height="10" x="90" y="270" fill="#fd8b5b" /><rect width="110" height="10" x="120" y="270" fill="#fd8b5b" /><rect width="20" height="10" x="90" y="280" fill="#fd8b5b" /><rect width="110" height="10" x="120" y="280" fill="#fd8b5b" /><rect width="20" height="10" x="90" y="290" fill="#fd8b5b" /><rect width="110" height="10" x="120" y="290" fill="#fd8b5b" /><rect width="20" height="10" x="90" y="300" fill="#fd8b5b" /><rect width="110" height="10" x="120" y="300" fill="#fd8b5b" /><rect width="20" height="10" x="90" y="310" fill="#fd8b5b" /><rect width="110" height="10" x="120" y="310" fill="#fd8b5b" /><rect width="10" height="10" x="120" y="210" fill="#f5fcff" /><rect width="10" height="10" x="200" y="210" fill="#f5fcff" /><rect width="10" height="10" x="120" y="220" fill="#f5fcff" /><rect width="10" height="10" x="200" y="220" fill="#f5fcff" /><rect width="10" height="10" x="120" y="230" fill="#f5fcff" /><rect width="10" height="10" x="200" y="230" fill="#f5fcff" /><rect width="10" height="10" x="120" y="240" fill="#f5fcff" /><rect width="10" height="10" x="200" y="240" fill="#f5fcff" /><rect width="10" height="10" x="120" y="250" fill="#f5fcff" /><rect width="10" height="10" x="200" y="250" fill="#f5fcff" /><rect width="10" height="10" x="120" y="260" fill="#f5fcff" /><rect width="10" height="10" x="200" y="260" fill="#f5fcff" /><rect width="20" height="10" x="90" y="270" fill="#f5fcff" /><rect width="110" height="10" x="120" y="270" fill="#f5fcff" /><rect width="10" height="10" x="120" y="280" fill="#f5fcff" /><rect width="10" height="10" x="200" y="280" fill="#f5fcff" /><rect width="10" height="10" x="120" y="290" fill="#f5fcff" /><rect width="10" height="10" x="200" y="290" fill="#f5fcff" /><rect width="10" height="10" x="120" y="300" fill="#f5fcff" /><rect width="10" height="10" x="200" y="300" fill="#f5fcff" /><rect width="10" height="10" x="120" y="310" fill="#f5fcff" /><rect width="10" height="10" x="200" y="310" fill="#f5fcff" /><rect width="40" height="10" x="140" y="60" fill="#7e5243" /><rect width="60" height="10" x="130" y="70" fill="#7e5243" /><rect width="80" height="10" x="120" y="80" fill="#7e5243" /><rect width="100" height="10" x="110" y="90" fill="#7e5243" /><rect width="120" height="10" x="100" y="100" fill="#7e5243" /><rect width="30" height="10" x="90" y="110" fill="#7e5243" /><rect width="80" height="10" x="120" y="110" fill="#85634f" /><rect width="30" height="10" x="200" y="110" fill="#7e5243" /><rect width="30" height="10" x="80" y="120" fill="#7e5243" /><rect width="100" height="10" x="110" y="120" fill="#85634f" /><rect width="30" height="10" x="210" y="120" fill="#7e5243" /><rect width="30" height="10" x="70" y="130" fill="#7e5243" /><rect width="120" height="10" x="100" y="130" fill="#85634f" /><rect width="30" height="10" x="220" y="130" fill="#7e5243" /><rect width="30" height="10" x="60" y="140" fill="#7e5243" /><rect width="140" height="10" x="90" y="140" fill="#85634f" /><rect width="30" height="10" x="230" y="140" fill="#7e5243" /><rect width="30" height="10" x="50" y="150" fill="#7e5243" /><rect width="160" height="10" x="80" y="150" fill="#85634f" /><rect width="30" height="10" x="240" y="150" fill="#7e5243" /><rect width="30" height="10" x="40" y="160" fill="#7e5243" /><rect width="180" height="10" x="70" y="160" fill="#85634f" /><rect width="30" height="10" x="250" y="160" fill="#7e5243" /><rect width="20" height="10" x="40" y="170" fill="#7e5243" /><rect width="200" height="10" x="60" y="170" fill="#85634f" /><rect width="20" height="10" x="260" y="170" fill="#7e5243" /><rect width="20" height="10" x="40" y="180" fill="#7e5243" /><rect width="50" height="10" x="60" y="180" fill="#85634f" /><rect width="10" height="10" x="110" y="180" fill="#7e5243" /><rect width="10" height="10" x="120" y="180" fill="#5a423f" /><rect width="10" height="10" x="130" y="180" fill="#7e5243" /><rect width="10" height="10" x="140" y="180" fill="#5a423f" /><rect width="10" height="10" x="150" y="180" fill="#7e5243" /><rect width="10" height="10" x="160" y="180" fill="#5a423f" /><rect width="90" height="10" x="170" y="180" fill="#85634f" /><rect width="20" height="10" x="260" y="180" fill="#7e5243" /><rect width="20" height="10" x="40" y="190" fill="#7e5243" /><rect width="200" height="10" x="60" y="190" fill="#85634f" /><rect width="20" height="10" x="260" y="190" fill="#7e5243" /><rect width="160" height="10" x="80" y="200" fill="#ffffff" /><rect width="60" height="10" x="100" y="110" fill="#000000" /><rect width="60" height="10" x="170" y="110" fill="#000000" /><rect width="30" height="10" x="100" y="120" fill="#000000" /><rect width="10" height="10" x="130" y="120" fill="#ff0e0e" /><rect width="20" height="10" x="140" y="120" fill="#000000" /><rect width="30" height="10" x="170" y="120" fill="#000000" /><rect width="10" height="10" x="200" y="120" fill="#ff0e0e" /><rect width="20" height="10" x="210" y="120" fill="#000000" /><rect width="160" height="10" x="70" y="130" fill="#000000" /><rect width="10" height="10" x="70" y="140" fill="#000000" /><rect width="10" height="10" x="100" y="140" fill="#000000" /><rect width="10" height="10" x="110" y="140" fill="#0adc4d" /><rect width="20" height="10" x="120" y="140" fill="#000000" /><rect width="10" height="10" x="140" y="140" fill="#1929f4" /><rect width="10" height="10" x="150" y="140" fill="#000000" /><rect width="10" height="10" x="170" y="140" fill="#000000" /><rect width="10" height="10" x="180" y="140" fill="#0adc4d" /><rect width="20" height="10" x="190" y="140" fill="#000000" /><rect width="10" height="10" x="210" y="140" fill="#1929f4" /><rect width="10" height="10" x="220" y="140" fill="#000000" /><rect width="10" height="10" x="70" y="150" fill="#000000" /><rect width="60" height="10" x="100" y="150" fill="#000000" /><rect width="60" height="10" x="170" y="150" fill="#000000" /><rect width="60" height="10" x="100" y="160" fill="#000000" /><rect width="60" height="10" x="170" y="160" fill="#000000" /></svg>