<svg width="320" height="320" viewBox="0 0 320 320" xmlns="http://www.w3.org/2000/svg" shape-rendering="crispEdges"><rect width="100%" height="100%" fill="#d5d7e1" /><rect width="140" height="10" x="90" y="210" fill="#5a65fa" /><rect width="140" height="10" x="90" y="220" fill="#5a65fa" /><rect width="140" height="10" x="90" y="230" fill="#5a65fa" /><rect width="140" height="10" x="90" y="240" fill="#5a65fa" /><rect width="20" height="10" x="90" y="250" fill="#5a65fa" /><rect width="110" height="10" x="120" y="250" fill="#5a65fa" /><rect width="20" height="10" x="90" y="260" fill="#5a65fa" /><rect width="110" height="10" x="120" y="260" fill="#5a65fa" /><rect width="20" height="10" x="90" y="270" fill="#5a65fa" /><rect width="110" height="10" x="120" y="270" fill="#5a65fa" /><rect width="20" height="10" x="90" y="280" fill="#5a65fa" /><rect width="110" height="10" x="120" y="280" fill="#5a65fa" /><rect width="20" height="10" x="90" y="290" fill="#5a65fa" /><rect width="110" height="10" x="120" y="290" fill="#5a65fa" /><rect width="20" height="10" x="90" y="300" fill="#5a65fa" /><rect width="110" height="10" x="120" y="300" fill="#5a65fa" /><rect width="20" height="10" x="90" y="310" fill="#5a65fa" /><rect width="110" height="10" x="120" y="310" fill="#5a65fa" /><rect width="30" height="10" x="160" y="230" fill="#343235" /><rect width="50" height="10" x="150" y="240" fill="#f82905" /><rect width="10" height="10" x="140" y="250" fill="#ff1a0b" /><rect width="30" height="10" x="150" y="250" fill="#f82905" /><rect width="10" height="10" x="180" y="250" fill="#343235" /><rect width="10" height="10" x="190" y="250" fill="#f82905" /><rect width="10" height="10" x="200" y="250" fill="#ff1a0b" /><rect width="10" height="10" x="140" y="260" fill="#ff1a0b" /><rect width="10" height="10" x="150" y="260" fill="#f82905" /><rect width="30" height="10" x="160" y="260" fill="#343235" /><rect width="10" height="10" x="190" y="260" fill="#f82905" /><rect width="10" height="10" x="200" y="260" fill="#ff1a0b" /><rect width="10" height="10" x="140" y="270" fill="#ff1a0b" /><rect width="20" height="10" x="150" y="270" fill="#f82905" /><rect width="20" height="10" x="170" y="270" fill="#343235" /><rect width="10" height="10" x="190" y="270" fill="#f82905" /><rect width="10" height="10" x="200" y="270" fill="#ff1a0b" /><rect width="10" height="10" x="140" y="280" fill="#ff1a0b" /><rect width="30" height="10" x="150" y="280" fill="#f82905" /><rect width="10" height="10" x="180" y="280" fill="#343235" /><rect width="10" height="10" x="190" y="280" fill="#f82905" /><rect width="10" height="10" x="200" y="280" fill="#ff1a0b" /><rect width="30" height="10" x="150" y="290" fill="#f82905" /><rect width="10" height="10" x="180" y="290" fill="#343235" /><rect width="10" height="10" x="190" y="290" fill="#f82905" /><rect width="30" height="10" x="160" y="300" fill="#343235" /><rect width="20" height="10" x="90" y="60" fill="#ffffff" /><rect width="20" height="10" x="120" y="60" fill="#ffffff" /><rect width="20" height="10" x="150" y="60" fill="#ffffff" /><rect width="20" height="10" x="180" y="60" fill="#ffffff" /><rect width="20" height="10" x="210" y="60" fill="#ffffff" /><rect width="20" height="10" x="240" y="60" fill="#ffffff" /><rect width="170" height="10" x="90" y="70" fill="#ffffff" /><rect width="190" height="10" x="80" y="80" fill="#f8d689" /><rect width="190" height="10" x="80" y="90" fill="#f8d689" /><rect width="70" height="10" x="80" y="100" fill="#c54e38" /><rect width="10" height="10" x="150" y="100" fill="#f89865" /><rect width="10" height="10" x="160" y="100" fill="#c54e38" /><rect width="10" height="10" x="170" y="100" fill="#f89865" /><rect width="90" height="10" x="180" y="100" fill="#c54e38" /><rect width="190" height="10" x="80" y="110" fill="#f8d689" /><rect width="190" height="10" x="80" y="120" fill="#f8d689" /><rect width="190" height="10" x="80" y="130" fill="#f8d689" /><rect width="190" height="10" x="80" y="140" fill="#f8d689" /><rect width="190" height="10" x="80" y="150" fill="#f8d689" /><rect width="190" height="10" x="80" y="160" fill="#f8d689" /><rect width="190" height="10" x="80" y="170" fill="#f8d689" /><rect width="90" height="10" x="80" y="180" fill="#c54e38" /><rect width="10" height="10" x="170" y="180" fill="#f89865" /><rect width="10" height="10" x="180" y="180" fill="#c54e38" /><rect width="10" height="10" x="190" y="180" fill="#f89865" /><rect width="10" height="10" x="200" y="180" fill="#c54e38" /><rect width="10" height="10" x="210" y="180" fill="#f89865" /><rect width="50" height="10" x="220" y="180" fill="#c54e38" /><rect width="190" height="10" x="80" y="190" fill="#ffd067" /><rect width="50" height="10" x="100" y="200" fill="#ffd067" /><rect width="50" height="10" x="200" y="200" fill="#ffd067" /><rect width="30" height="10" x="120" y="300" fill="#f8ddb0" /><rect width="20" height="10" x="70" y="310" fill="#f8ddb0" /><rect width="40" height="10" x="110" y="310" fill="#f8ddb0" /><rect width="60" height="10" x="100" y="110" fill="#b9185c" /><rect width="60" height="10" x="170" y="110" fill="#b9185c" /><rect width="10" height="10" x="100" y="120" fill="#b9185c" /><rect width="20" height="10" x="110" y="120" fill="#ffffff" /><rect width="20" height="10" x="130" y="120" fill="#000000" /><rect width="10" height="10" x="150" y="120" fill="#b9185c" /><rect width="10" height="10" x="170" y="120" fill="#b9185c" /><rect width="20" height="10" x="180" y="120" fill="#ffffff" /><rect width="20" height="10" x="200" y="120" fill="#000000" /><rect width="10" height="10" x="220" y="120" fill="#b9185c" /><rect width="40" height="10" x="70" y="130" fill="#b9185c" /><rect width="20" height="10" x="110" y="130" fill="#ffffff" /><rect width="20" height="10" x="130" y="130" fill="#000000" /><rect width="30" height="10" x="150" y="130" fill="#b9185c" /><rect width="20" height="10" x="180" y="130" fill="#ffffff" /><rect width="20" height="10" x="200" y="130" fill="#000000" /><rect width="10" height="10" x="220" y="130" fill="#b9185c" /><rect width="10" height="10" x="70" y="140" fill="#b9185c" /><rect width="10" height="10" x="100" y="140" fill="#b9185c" /><rect width="20" height="10" x="110" y="140" fill="#ffffff" /><rect width="20" height="10" x="130" y="140" fill="#000000" /><rect width="10" height="10" x="150" y="140" fill="#b9185c" /><rect width="10" height="10" x="170" y="140" fill="#b9185c" /><rect width="20" height="10" x="180" y="140" fill="#ffffff" /><rect width="20" height="10" x="200" y="140" fill="#000000" /><rect width="10" height="10" x="220" y="140" fill="#b9185c" /><rect width="10" height="10" x="70" y="150" fill="#b9185c" /><rect width="10" height="10" x="100" y="150" fill="#b9185c" /><rect width="20" height="10" x="110" y="150" fill="#ffffff" /><rect width="20" height="10" x="130" y="150" fill="#000000" /><rect width="10" height="10" x="150" y="150" fill="#b9185c" /><rect width="10" height="10" x="170" y="150" fill="#b9185c" /><rect width="20" height="10" x="180" y="150" fill="#ffffff" /><rect width="20" height="10" x="200" y="150" fill="#000000" /><rect width="10" height="10" x="220" y="150" fill="#b9185c" /><rect width="60" height="10" x="100" y="160" fill="#b9185c" /><rect width="60" height="10" x="170" y="160" fill="#b9185c" /></svg>