<svg width="320" height="320" viewBox="0 0 320 320" xmlns="http://www.w3.org/2000/svg" shape-rendering="crispEdges"><rect width="100%" height="100%" fill="#e1d7d5" /><rect width="140" height="10" x="90" y="210" fill="#d26451" /><rect width="140" height="10" x="90" y="220" fill="#d26451" /><rect width="140" height="10" x="90" y="230" fill="#d26451" /><rect width="140" height="10" x="90" y="240" fill="#d26451" /><rect width="20" height="10" x="90" y="250" fill="#d26451" /><rect width="110" height="10" x="120" y="250" fill="#d26451" /><rect width="20" height="10" x="90" y="260" fill="#d26451" /><rect width="110" height="10" x="120" y="260" fill="#d26451" /><rect width="20" height="10" x="90" y="270" fill="#d26451" /><rect width="110" height="10" x="120" y="270" fill="#d26451" /><rect width="20" height="10" x="90" y="280" fill="#d26451" /><rect width="110" height="10" x="120" y="280" fill="#d26451" /><rect width="20" height="10" x="90" y="290" fill="#d26451" /><rect width="110" height="10" x="120" y="290" fill="#d26451" /><rect width="20" height="10" x="90" y="300" fill="#d26451" /><rect width="110" height="10" x="120" y="300" fill="#d26451" /><rect width="20" height="10" x="90" y="310" fill="#d26451" /><rect width="110" height="10" x="120" y="310" fill="#d26451" /><rect width="140" height="10" x="90" y="210" fill="#0b5027" /><rect width="140" height="10" x="90" y="220" fill="#0b5027" /><rect width="140" height="10" x="90" y="230" fill="#ff7216" /><rect width="140" height="10" x="90" y="240" fill="#ff7216" /><rect width="20" height="10" x="90" y="250" fill="#0b5027" /><rect width="110" height="10" x="120" y="250" fill="#0b5027" /><rect width="20" height="10" x="90" y="260" fill="#0b5027" /><rect width="110" height="10" x="120" y="260" fill="#0b5027" /><rect width="20" height="10" x="90" y="270" fill="#ff7216" /><rect width="110" height="10" x="120" y="270" fill="#ff7216" /><rect width="20" height="10" x="90" y="280" fill="#ff7216" /><rect width="110" height="10" x="120" y="280" fill="#ff7216" /><rect width="20" height="10" x="90" y="290" fill="#0b5027" /><rect width="110" height="10" x="120" y="290" fill="#0b5027" /><rect width="20" height="10" x="90" y="300" fill="#0b5027" /><rect width="110" height="10" x="120" y="300" fill="#0b5027" /><rect width="20" height="10" x="90" y="310" fill="#ff7216" /><rect width="110" height="10" x="120" y="310" fill="#ff7216" /><rect width="30" height="10" x="170" y="20" fill="#068940" /><rect width="10" height="10" x="130" y="30" fill="#f938d8" /><rect width="30" height="10" x="170" y="30" fill="#068940" /><rect width="80" height="10" x="60" y="40" fill="#ffef16" /><rect width="20" height="10" x="140" y="40" fill="#f938d8" /><rect width="10" height="10" x="160" y="40" fill="#068940" /><rect width="90" height="10" x="170" y="40" fill="#ffef16" /><rect width="220" height="10" x="50" y="50" fill="#ffef16" /><rect width="10" height="10" x="40" y="60" fill="#ffef16" /><rect width="10" height="10" x="60" y="60" fill="#ffef16" /><rect width="10" height="10" x="70" y="60" fill="#eedc00" /><rect width="20" height="10" x="80" y="60" fill="#ffffff" /><rect width="10" height="10" x="100" y="60" fill="#eedc00" /><rect width="20" height="10" x="110" y="60" fill="#ffffff" /><rect width="10" height="10" x="130" y="60" fill="#eedc00" /><rect width="20" height="10" x="140" y="60" fill="#ffffff" /><rect width="10" height="10" x="160" y="60" fill="#eedc00" /><rect width="20" height="10" x="170" y="60" fill="#ffffff" /><rect width="10" height="10" x="190" y="60" fill="#eedc00" /><rect width="20" height="10" x="200" y="60" fill="#ffffff" /><rect width="10" height="10" x="220" y="60" fill="#eedc00" /><rect width="10" height="10" x="230" y="60" fill="#ffffff" /><rect width="10" height="10" x="240" y="60" fill="#eedc00" /><rect width="10" height="10" x="250" y="60" fill="#ffef16" /><rect width="10" height="10" x="270" y="60" fill="#ffef16" /><rect width="10" height="10" x="60" y="70" fill="#eedc00" /><rect width="180" height="10" x="70" y="70" fill="#ffffff" /><rect width="10" height="10" x="250" y="70" fill="#eedc00" /><rect width="200" height="10" x="60" y="80" fill="#ffffff" /><rect width="200" height="10" x="60" y="90" fill="#ffffff" /><rect width="200" height="10" x="60" y="100" fill="#ffffff" /><rect width="220" height="10" x="50" y="110" fill="#ffffff" /><rect width="10" height="10" x="50" y="120" fill="#ffffff" /><rect width="200" height="10" x="60" y="120" fill="#d4a015" /><rect width="10" height="10" x="260" y="120" fill="#ffffff" /><rect width="200" height="10" x="60" y="130" fill="#d4a015" /><rect width="220" height="10" x="50" y="140" fill="#ffffff" /><rect width="220" height="10" x="50" y="150" fill="#ffffff" /><rect width="200" height="10" x="60" y="160" fill="#ffffff" /><rect width="220" height="10" x="50" y="170" fill="#ffffff" /><rect width="110" height="10" x="50" y="180" fill="#ffffff" /><rect width="10" height="10" x="160" y="180" fill="#e8e8e2" /><rect width="100" height="10" x="170" y="180" fill="#ffffff" /><rect width="200" height="10" x="60" y="190" fill="#ffffff" /><rect width="180" height="10" x="70" y="200" fill="#ffffff" /><rect width="60" height="10" x="100" y="110" fill="#8dd122" /><rect width="60" height="10" x="170" y="110" fill="#8dd122" /><rect width="10" height="10" x="100" y="120" fill="#8dd122" /><rect width="20" height="10" x="110" y="120" fill="#ffffff" /><rect width="20" height="10" x="130" y="120" fill="#000000" /><rect width="10" height="10" x="150" y="120" fill="#8dd122" /><rect width="10" height="10" x="170" y="120" fill="#8dd122" /><rect width="20" height="10" x="180" y="120" fill="#ffffff" /><rect width="20" height="10" x="200" y="120" fill="#000000" /><rect width="10" height="10" x="220" y="120" fill="#8dd122" /><rect width="40" height="10" x="70" y="130" fill="#8dd122" /><rect width="20" height="10" x="110" y="130" fill="#ffffff" /><rect width="20" height="10" x="130" y="130" fill="#000000" /><rect width="30" height="10" x="150" y="130" fill="#8dd122" /><rect width="20" height="10" x="180" y="130" fill="#ffffff" /><rect width="20" height="10" x="200" y="130" fill="#000000" /><rect width="10" height="10" x="220" y="130" fill="#8dd122" /><rect width="10" height="10" x="70" y="140" fill="#8dd122" /><rect width="10" height="10" x="100" y="140" fill="#8dd122" /><rect width="20" height="10" x="110" y="140" fill="#ffffff" /><rect width="20" height="10" x="130" y="140" fill="#000000" /><rect width="10" height="10" x="150" y="140" fill="#8dd122" /><rect width="10" height="10" x="170" y="140" fill="#8dd122" /><rect width="20" height="10" x="180" y="140" fill="#ffffff" /><rect width="20" height="10" x="200" y="140" fill="#000000" /><rect width="10" height="10" x="220" y="140" fill="#8dd122" /><rect width="10" height="10" x="70" y="150" fill="#8dd122" /><rect width="10" height="10" x="100" y="150" fill="#8dd122" /><rect width="20" height="10" x="110" y="150" fill="#ffffff" /><rect width="20" height="10" x="130" y="150" fill="#000000" /><rect width="10" height="10" x="150" y="150" fill="#8dd122" /><rect width="10" height="10" x="170" y="150" fill="#8dd122" /><rect width="20" height="10" x="180" y="150" fill="#ffffff" /><rect width="20" height="10" x="200" y="150" fill="#000000" /><rect width="10" height="10" x="220" y="150" fill="#8dd122" /><rect width="60" height="10" x="100" y="160" fill="#8dd122" /><rect width="60" height="10" x="170" y="160" fill="#8dd122" /></svg>