<svg width="320" height="320" viewBox="0 0 320 320" xmlns="http://www.w3.org/2000/svg" shape-rendering="crispEdges"><rect width="100%" height="100%" fill="#d5d7e1" /><rect width="140" height="10" x="90" y="210" fill="#4b4949" /><rect width="140" height="10" x="90" y="220" fill="#4b4949" /><rect width="140" height="10" x="90" y="230" fill="#4b4949" /><rect width="140" height="10" x="90" y="240" fill="#4b4949" /><rect width="20" height="10" x="90" y="250" fill="#4b4949" /><rect width="110" height="10" x="120" y="250" fill="#4b4949" /><rect width="20" height="10" x="90" y="260" fill="#4b4949" /><rect width="110" height="10" x="120" y="260" fill="#4b4949" /><rect width="20" height="10" x="90" y="270" fill="#4b4949" /><rect width="110" height="10" x="120" y="270" fill="#4b4949" /><rect width="20" height="10" x="90" y="280" fill="#4b4949" /><rect width="110" height="10" x="120" y="280" fill="#4b4949" /><rect width="20" height="10" x="90" y="290" fill="#4b4949" /><rect width="110" height="10" x="120" y="290" fill="#4b4949" /><rect width="20" height="10" x="90" y="300" fill="#4b4949" /><rect width="110" height="10" x="120" y="300" fill="#4b4949" /><rect width="20" height="10" x="90" y="310" fill="#4b4949" /><rect width="110" height="10" x="120" y="310" fill="#4b4949" /><rect width="10" height="10" x="90" y="210" fill="#d08b11" /><rect width="10" height="10" x="100" y="210" fill="#d4a015" /><rect width="10" height="10" x="110" y="210" fill="#d08b11" /><rect width="10" height="10" x="120" y="210" fill="#d4a015" /><rect width="10" height="10" x="130" y="210" fill="#d08b11" /><rect width="10" height="10" x="140" y="210" fill="#d4a015" /><rect width="10" height="10" x="150" y="210" fill="#d08b11" /><rect width="10" height="10" x="160" y="210" fill="#d4a015" /><rect width="10" height="10" x="170" y="210" fill="#d08b11" /><rect width="10" height="10" x="180" y="210" fill="#d4a015" /><rect width="10" height="10" x="190" y="210" fill="#d08b11" /><rect width="10" height="10" x="200" y="210" fill="#d4a015" /><rect width="10" height="10" x="210" y="210" fill="#d08b11" /><rect width="10" height="10" x="220" y="210" fill="#d4a015" /><rect width="140" height="10" x="90" y="220" fill="#b87b11" /><rect width="10" height="10" x="90" y="230" fill="#d08b11" /><rect width="10" height="10" x="100" y="230" fill="#d4a015" /><rect width="10" height="10" x="110" y="230" fill="#d08b11" /><rect width="10" height="10" x="120" y="230" fill="#d4a015" /><rect width="10" height="10" x="130" y="230" fill="#d08b11" /><rect width="10" height="10" x="140" y="230" fill="#d4a015" /><rect width="10" height="10" x="150" y="230" fill="#d08b11" /><rect width="10" height="10" x="160" y="230" fill="#d4a015" /><rect width="10" height="10" x="170" y="230" fill="#d08b11" /><rect width="10" height="10" x="180" y="230" fill="#d4a015" /><rect width="10" height="10" x="190" y="230" fill="#d08b11" /><rect width="10" height="10" x="200" y="230" fill="#d4a015" /><rect width="10" height="10" x="210" y="230" fill="#d08b11" /><rect width="10" height="10" x="220" y="230" fill="#d4a015" /><rect width="140" height="10" x="90" y="240" fill="#b87b11" /><rect width="10" height="10" x="90" y="250" fill="#d08b11" /><rect width="10" height="10" x="100" y="250" fill="#d4a015" /><rect width="10" height="10" x="120" y="250" fill="#d4a015" /><rect width="10" height="10" x="130" y="250" fill="#d08b11" /><rect width="10" height="10" x="140" y="250" fill="#d4a015" /><rect width="10" height="10" x="150" y="250" fill="#d08b11" /><rect width="10" height="10" x="160" y="250" fill="#d4a015" /><rect width="10" height="10" x="170" y="250" fill="#d08b11" /><rect width="10" height="10" x="180" y="250" fill="#d4a015" /><rect width="10" height="10" x="190" y="250" fill="#d08b11" /><rect width="10" height="10" x="200" y="250" fill="#d4a015" /><rect width="10" height="10" x="210" y="250" fill="#d08b11" /><rect width="10" height="10" x="220" y="250" fill="#d4a015" /><rect width="20" height="10" x="90" y="260" fill="#b87b11" /><rect width="110" height="10" x="120" y="260" fill="#b87b11" /><rect width="10" height="10" x="90" y="270" fill="#d08b11" /><rect width="10" height="10" x="100" y="270" fill="#d4a015" /><rect width="10" height="10" x="120" y="270" fill="#d4a015" /><rect width="10" height="10" x="130" y="270" fill="#d08b11" /><rect width="10" height="10" x="140" y="270" fill="#d4a015" /><rect width="10" height="10" x="150" y="270" fill="#d08b11" /><rect width="10" height="10" x="160" y="270" fill="#d4a015" /><rect width="10" height="10" x="170" y="270" fill="#d08b11" /><rect width="10" height="10" x="180" y="270" fill="#d4a015" /><rect width="10" height="10" x="190" y="270" fill="#d08b11" /><rect width="10" height="10" x="200" y="270" fill="#d4a015" /><rect width="10" height="10" x="210" y="270" fill="#d08b11" /><rect width="10" height="10" x="220" y="270" fill="#d4a015" /><rect width="20" height="10" x="90" y="280" fill="#b87b11" /><rect width="110" height="10" x="120" y="280" fill="#b87b11" /><rect width="10" height="10" x="90" y="290" fill="#d08b11" /><rect width="10" height="10" x="100" y="290" fill="#d4a015" /><rect width="10" height="10" x="120" y="290" fill="#d4a015" /><rect width="10" height="10" x="130" y="290" fill="#d08b11" /><rect width="10" height="10" x="140" y="290" fill="#d4a015" /><rect width="10" height="10" x="150" y="290" fill="#d08b11" /><rect width="10" height="10" x="160" y="290" fill="#d4a015" /><rect width="10" height="10" x="170" y="290" fill="#d08b11" /><rect width="10" height="10" x="180" y="290" fill="#d4a015" /><rect width="10" height="10" x="190" y="290" fill="#d08b11" /><rect width="10" height="10" x="200" y="290" fill="#d4a015" /><rect width="10" height="10" x="210" y="290" fill="#d08b11" /><rect width="10" height="10" x="220" y="290" fill="#d4a015" /><rect width="20" height="10" x="90" y="300" fill="#b87b11" /><rect width="110" height="10" x="120" y="300" fill="#b87b11" /><rect width="10" height="10" x="90" y="310" fill="#d08b11" /><rect width="10" height="10" x="100" y="310" fill="#d4a015" /><rect width="10" height="10" x="120" y="310" fill="#d4a015" /><rect width="10" height="10" x="130" y="310" fill="#d08b11" /><rect width="10" height="10" x="140" y="310" fill="#d4a015" /><rect width="10" height="10" x="150" y="310" fill="#d08b11" /><rect width="10" height="10" x="160" y="310" fill="#d4a015" /><rect width="10" height="10" x="170" y="310" fill="#d08b11" /><rect width="10" height="10" x="180" y="310" fill="#d4a015" /><rect width="10" height="10" x="190" y="310" fill="#d08b11" /><rect width="10" height="10" x="200" y="310" fill="#d4a015" /><rect width="10" height="10" x="210" y="310" fill="#d08b11" /><rect width="10" height="10" x="220" y="310" fill="#d4a015" /><rect width="110" height="10" x="110" y="50" fill="#8dd122" /><rect width="40" height="10" x="70" y="60" fill="#8dd122" /><rect width="110" height="10" x="110" y="60" fill="#c4da53" /><rect width="30" height="10" x="220" y="60" fill="#8dd122" /><rect width="10" height="10" x="60" y="70" fill="#8dd122" /><rect width="180" height="10" x="70" y="70" fill="#c4da53" /><rect width="10" height="10" x="250" y="70" fill="#8dd122" /><rect width="10" height="10" x="50" y="80" fill="#8dd122" /><rect width="200" height="10" x="60" y="80" fill="#c4da53" /><rect width="10" height="10" x="260" y="80" fill="#8dd122" /><rect width="10" height="10" x="50" y="90" fill="#8dd122" /><rect width="200" height="10" x="60" y="90" fill="#c4da53" /><rect width="10" height="10" x="260" y="90" fill="#8dd122" /><rect width="20" height="10" x="60" y="100" fill="#c4da53" /><rect width="160" height="10" x="80" y="100" fill="#ffffff" /><rect width="20" height="10" x="240" y="100" fill="#c4da53" /><rect width="10" height="10" x="60" y="110" fill="#c4da53" /><rect width="180" height="10" x="70" y="110" fill="#ffffff" /><rect width="10" height="10" x="250" y="110" fill="#c4da53" /><rect width="10" height="10" x="60" y="120" fill="#c4da53" /><rect width="180" height="10" x="70" y="120" fill="#ffffff" /><rect width="10" height="10" x="250" y="120" fill="#c4da53" /><rect width="10" height="10" x="60" y="130" fill="#c4da53" /><rect width="180" height="10" x="70" y="130" fill="#ffffff" /><rect width="10" height="10" x="250" y="130" fill="#c4da53" /><rect width="200" height="10" x="60" y="140" fill="#ffffff" /><rect width="200" height="10" x="60" y="150" fill="#ffffff" /><rect width="180" height="10" x="70" y="160" fill="#ffffff" /><rect width="200" height="10" x="60" y="170" fill="#ffffff" /><rect width="80" height="10" x="60" y="180" fill="#ffffff" /><rect width="20" height="10" x="140" y="180" fill="#dcd8d3" /><rect width="100" height="10" x="160" y="180" fill="#ffffff" /><rect width="180" height="10" x="70" y="190" fill="#ffffff" /><rect width="160" height="10" x="80" y="200" fill="#ffffff" /><rect width="60" height="10" x="100" y="110" fill="#d7d3cd" /><rect width="60" height="10" x="170" y="110" fill="#d7d3cd" /><rect width="10" height="10" x="100" y="120" fill="#d7d3cd" /><rect width="20" height="10" x="110" y="120" fill="#fdf8ff" /><rect width="20" height="10" x="130" y="120" fill="#000000" /><rect width="10" height="10" x="150" y="120" fill="#d7d3cd" /><rect width="10" height="10" x="170" y="120" fill="#d7d3cd" /><rect width="20" height="10" x="180" y="120" fill="#fdf8ff" /><rect width="20" height="10" x="200" y="120" fill="#000000" /><rect width="10" height="10" x="220" y="120" fill="#d7d3cd" /><rect width="40" height="10" x="70" y="130" fill="#d7d3cd" /><rect width="20" height="10" x="110" y="130" fill="#fdf8ff" /><rect width="20" height="10" x="130" y="130" fill="#000000" /><rect width="30" height="10" x="150" y="130" fill="#d7d3cd" /><rect width="20" height="10" x="180" y="130" fill="#fdf8ff" /><rect width="20" height="10" x="200" y="130" fill="#000000" /><rect width="10" height="10" x="220" y="130" fill="#d7d3cd" /><rect width="10" height="10" x="70" y="140" fill="#d7d3cd" /><rect width="10" height="10" x="100" y="140" fill="#d7d3cd" /><rect width="20" height="10" x="110" y="140" fill="#fdf8ff" /><rect width="20" height="10" x="130" y="140" fill="#000000" /><rect width="10" height="10" x="150" y="140" fill="#d7d3cd" /><rect width="10" height="10" x="170" y="140" fill="#d7d3cd" /><rect width="20" height="10" x="180" y="140" fill="#fdf8ff" /><rect width="20" height="10" x="200" y="140" fill="#000000" /><rect width="10" height="10" x="220" y="140" fill="#d7d3cd" /><rect width="10" height="10" x="70" y="150" fill="#d7d3cd" /><rect width="10" height="10" x="100" y="150" fill="#d7d3cd" /><rect width="20" height="10" x="110" y="150" fill="#fdf8ff" /><rect width="20" height="10" x="130" y="150" fill="#000000" /><rect width="10" height="10" x="150" y="150" fill="#d7d3cd" /><rect width="10" height="10" x="170" y="150" fill="#d7d3cd" /><rect width="20" height="10" x="180" y="150" fill="#fdf8ff" /><rect width="20" height="10" x="200" y="150" fill="#000000" /><rect width="10" height="10" x="220" y="150" fill="#d7d3cd" /><rect width="60" height="10" x="100" y="160" fill="#d7d3cd" /><rect width="60" height="10" x="170" y="160" fill="#d7d3cd" /></svg>