<svg width="320" height="320" viewBox="0 0 320 320" xmlns="http://www.w3.org/2000/svg" shape-rendering="crispEdges"><rect width="100%" height="100%" fill="#e1d7d5" /><rect width="140" height="10" x="90" y="210" fill="#fd8b5b" /><rect width="140" height="10" x="90" y="220" fill="#fd8b5b" /><rect width="140" height="10" x="90" y="230" fill="#fd8b5b" /><rect width="140" height="10" x="90" y="240" fill="#fd8b5b" /><rect width="20" height="10" x="90" y="250" fill="#fd8b5b" /><rect width="110" height="10" x="120" y="250" fill="#fd8b5b" /><rect width="20" height="10" x="90" y="260" fill="#fd8b5b" /><rect width="110" height="10" x="120" y="260" fill="#fd8b5b" /><rect width="20" height="10" x="90" y="270" fill="#fd8b5b" /><rect width="110" height="10" x="120" y="270" fill="#fd8b5b" /><rect width="20" height="10" x="90" y="280" fill="#fd8b5b" /><rect width="110" height="10" x="120" y="280" fill="#fd8b5b" /><rect width="20" height="10" x="90" y="290" fill="#fd8b5b" /><rect width="110" height="10" x="120" y="290" fill="#fd8b5b" /><rect width="20" height="10" x="90" y="300" fill="#fd8b5b" /><rect width="110" height="10" x="120" y="300" fill="#fd8b5b" /><rect width="20" height="10" x="90" y="310" fill="#fd8b5b" /><rect width="110" height="10" x="120" y="310" fill="#fd8b5b" /><rect width="10" height="10" x="100" y="210" fill="#71bde4" /><rect width="10" height="10" x="130" y="210" fill="#71bde4" /><rect width="30" height="10" x="150" y="210" fill="#71bde4" /><rect width="20" height="10" x="200" y="210" fill="#71bde4" /><rect width="70" height="10" x="90" y="220" fill="#71bde4" /><rect width="20" height="10" x="180" y="220" fill="#71bde4" /><rect width="10" height="10" x="220" y="220" fill="#71bde4" /><rect width="10" height="10" x="90" y="230" fill="#71bde4" /><rect width="20" height="10" x="140" y="230" fill="#71bde4" /><rect width="10" height="10" x="170" y="230" fill="#71bde4" /><rect width="20" height="10" x="200" y="230" fill="#71bde4" /><rect width="20" height="10" x="110" y="240" fill="#71bde4" /><rect width="20" height="10" x="160" y="240" fill="#71bde4" /><rect width="10" height="10" x="190" y="240" fill="#71bde4" /><rect width="10" height="10" x="220" y="240" fill="#71bde4" /><rect width="20" height="10" x="90" y="250" fill="#71bde4" /><rect width="20" height="10" x="130" y="250" fill="#71bde4" /><rect width="60" height="10" x="170" y="250" fill="#71bde4" /><rect width="10" height="10" x="120" y="260" fill="#71bde4" /><rect width="10" height="10" x="150" y="260" fill="#71bde4" /><rect width="20" height="10" x="170" y="260" fill="#71bde4" /><rect width="10" height="10" x="100" y="270" fill="#71bde4" /><rect width="10" height="10" x="130" y="270" fill="#71bde4" /><rect width="30" height="10" x="150" y="270" fill="#71bde4" /><rect width="20" height="10" x="200" y="270" fill="#71bde4" /><rect width="20" height="10" x="90" y="280" fill="#71bde4" /><rect width="40" height="10" x="120" y="280" fill="#71bde4" /><rect width="20" height="10" x="180" y="280" fill="#71bde4" /><rect width="10" height="10" x="220" y="280" fill="#71bde4" /><rect width="10" height="10" x="90" y="290" fill="#71bde4" /><rect width="20" height="10" x="140" y="290" fill="#71bde4" /><rect width="10" height="10" x="170" y="290" fill="#71bde4" /><rect width="20" height="10" x="200" y="290" fill="#71bde4" /><rect width="10" height="10" x="120" y="300" fill="#71bde4" /><rect width="20" height="10" x="160" y="300" fill="#71bde4" /><rect width="10" height="10" x="190" y="300" fill="#71bde4" /><rect width="10" height="10" x="220" y="300" fill="#71bde4" /><rect width="20" height="10" x="90" y="310" fill="#71bde4" /><rect width="20" height="10" x="130" y="310" fill="#71bde4" /><rect width="60" height="10" x="170" y="310" fill="#71bde4" /><rect width="110" height="10" x="120" y="50" fill="#e9ba12" /><rect width="110" height="10" x="120" y="60" fill="#d29607" /><rect width="20" height="10" x="150" y="70" fill="#e9ba12" /><rect width="20" height="10" x="180" y="70" fill="#e9ba12" /><rect width="20" height="10" x="150" y="80" fill="#e9ba12" /><rect width="20" height="10" x="180" y="80" fill="#e9ba12" /><rect width="150" height="10" x="100" y="90" fill="#e9ba12" /><rect width="150" height="10" x="100" y="100" fill="#d29607" /><rect width="20" height="10" x="140" y="110" fill="#e9ba12" /><rect width="20" height="10" x="190" y="110" fill="#e9ba12" /><rect width="20" height="10" x="140" y="120" fill="#e9ba12" /><rect width="20" height="10" x="190" y="120" fill="#e9ba12" /><rect width="170" height="10" x="90" y="130" fill="#e9ba12" /><rect width="170" height="10" x="90" y="140" fill="#d29607" /><rect width="20" height="10" x="130" y="150" fill="#e9ba12" /><rect width="20" height="10" x="200" y="150" fill="#e9ba12" /><rect width="20" height="10" x="130" y="160" fill="#e9ba12" /><rect width="20" height="10" x="200" y="160" fill="#e9ba12" /><rect width="190" height="10" x="80" y="170" fill="#e9ba12" /><rect width="190" height="10" x="80" y="180" fill="#d29607" /><rect width="20" height="10" x="120" y="190" fill="#e9ba12" /><rect width="20" height="10" x="210" y="190" fill="#e9ba12" /><rect width="20" height="10" x="120" y="200" fill="#e9ba12" /><rect width="20" height="10" x="210" y="200" fill="#e9ba12" /><rect width="60" height="10" x="100" y="110" fill="#4bea69" /><rect width="60" height="10" x="170" y="110" fill="#4bea69" /><rect width="10" height="10" x="100" y="120" fill="#4bea69" /><rect width="20" height="10" x="110" y="120" fill="#ffffff" /><rect width="20" height="10" x="130" y="120" fill="#000000" /><rect width="10" height="10" x="150" y="120" fill="#4bea69" /><rect width="10" height="10" x="170" y="120" fill="#4bea69" /><rect width="20" height="10" x="180" y="120" fill="#ffffff" /><rect width="20" height="10" x="200" y="120" fill="#000000" /><rect width="10" height="10" x="220" y="120" fill="#4bea69" /><rect width="40" height="10" x="70" y="130" fill="#4bea69" /><rect width="20" height="10" x="110" y="130" fill="#ffffff" /><rect width="20" height="10" x="130" y="130" fill="#000000" /><rect width="30" height="10" x="150" y="130" fill="#4bea69" /><rect width="20" height="10" x="180" y="130" fill="#ffffff" /><rect width="20" height="10" x="200" y="130" fill="#000000" /><rect width="10" height="10" x="220" y="130" fill="#4bea69" /><rect width="10" height="10" x="70" y="140" fill="#4bea69" /><rect width="10" height="10" x="100" y="140" fill="#4bea69" /><rect width="20" height="10" x="110" y="140" fill="#ffffff" /><rect width="20" height="10" x="130" y="140" fill="#000000" /><rect width="10" height="10" x="150" y="140" fill="#4bea69" /><rect width="10" height="10" x="170" y="140" fill="#4bea69" /><rect width="20" height="10" x="180" y="140" fill="#ffffff" /><rect width="20" height="10" x="200" y="140" fill="#000000" /><rect width="10" height="10" x="220" y="140" fill="#4bea69" /><rect width="10" height="10" x="70" y="150" fill="#4bea69" /><rect width="10" height="10" x="100" y="150" fill="#4bea69" /><rect width="20" height="10" x="110" y="150" fill="#ffffff" /><rect width="20" height="10" x="130" y="150" fill="#000000" /><rect width="10" height="10" x="150" y="150" fill="#4bea69" /><rect width="10" height="10" x="170" y="150" fill="#4bea69" /><rect width="20" height="10" x="180" y="150" fill="#ffffff" /><rect width="20" height="10" x="200" y="150" fill="#000000" /><rect width="10" height="10" x="220" y="150" fill="#4bea69" /><rect width="60" height="10" x="100" y="160" fill="#4bea69" /><rect width="60" height="10" x="170" y="160" fill="#4bea69" /></svg>