<svg width="320" height="320" viewBox="0 0 320 320" xmlns="http://www.w3.org/2000/svg" shape-rendering="crispEdges"><rect width="100%" height="100%" fill="#e1d7d5" /><rect width="140" height="10" x="90" y="210" fill="#807f7e" /><rect width="140" height="10" x="90" y="220" fill="#807f7e" /><rect width="140" height="10" x="90" y="230" fill="#807f7e" /><rect width="140" height="10" x="90" y="240" fill="#807f7e" /><rect width="20" height="10" x="90" y="250" fill="#807f7e" /><rect width="110" height="10" x="120" y="250" fill="#807f7e" /><rect width="20" height="10" x="90" y="260" fill="#807f7e" /><rect width="110" height="10" x="120" y="260" fill="#807f7e" /><rect width="20" height="10" x="90" y="270" fill="#807f7e" /><rect width="110" height="10" x="120" y="270" fill="#807f7e" /><rect width="20" height="10" x="90" y="280" fill="#807f7e" /><rect width="110" height="10" x="120" y="280" fill="#807f7e" /><rect width="20" height="10" x="90" y="290" fill="#807f7e" /><rect width="110" height="10" x="120" y="290" fill="#807f7e" /><rect width="20" height="10" x="90" y="300" fill="#807f7e" /><rect width="110" height="10" x="120" y="300" fill="#807f7e" /><rect width="20" height="10" x="90" y="310" fill="#807f7e" /><rect width="110" height="10" x="120" y="310" fill="#807f7e" /><rect width="10" height="10" x="130" y="240" fill="#f86100" /><rect width="10" height="10" x="150" y="240" fill="#f86100" /><rect width="10" height="10" x="190" y="240" fill="#f86100" /><rect width="10" height="10" x="210" y="240" fill="#f86100" /><rect width="10" height="10" x="140" y="250" fill="#f86100" /><rect width="10" height="10" x="160" y="250" fill="#000000" /><rect width="10" height="10" x="180" y="250" fill="#000000" /><rect width="10" height="10" x="200" y="250" fill="#f86100" /><rect width="50" height="10" x="150" y="260" fill="#f86100" /><rect width="50" height="10" x="150" y="270" fill="#f86100" /><rect width="30" height="10" x="160" y="280" fill="#f86100" /><rect width="10" height="10" x="150" y="290" fill="#f86100" /><rect width="10" height="10" x="190" y="290" fill="#f86100" /><rect width="10" height="10" x="60" y="50" fill="#b92b3c" /><rect width="10" height="10" x="70" y="50" fill="#f9e8dd" /><rect width="160" height="10" x="80" y="50" fill="#ffffff" /><rect width="10" height="10" x="240" y="50" fill="#f9e8dd" /><rect width="10" height="10" x="250" y="50" fill="#b92b3c" /><rect width="20" height="10" x="40" y="60" fill="#b92b3c" /><rect width="10" height="10" x="60" y="60" fill="#f9e8dd" /><rect width="40" height="10" x="70" y="60" fill="#ffffff" /><rect width="80" height="10" x="110" y="60" fill="#f9e8dd" /><rect width="60" height="10" x="190" y="60" fill="#ffffff" /><rect width="10" height="10" x="250" y="60" fill="#f9e8dd" /><rect width="10" height="10" x="260" y="60" fill="#b92b3c" /><rect width="10" height="10" x="30" y="70" fill="#b92b3c" /><rect width="20" height="10" x="40" y="70" fill="#f9e8dd" /><rect width="70" height="10" x="60" y="70" fill="#ffffff" /><rect width="80" height="10" x="130" y="70" fill="#f9e8dd" /><rect width="50" height="10" x="210" y="70" fill="#ffffff" /><rect width="10" height="10" x="260" y="70" fill="#f9e8dd" /><rect width="10" height="10" x="270" y="70" fill="#b92b3c" /><rect width="20" height="10" x="30" y="80" fill="#b92b3c" /><rect width="10" height="10" x="50" y="80" fill="#f9e8dd" /><rect width="200" height="10" x="60" y="80" fill="#ffffff" /><rect width="10" height="10" x="260" y="80" fill="#f9e8dd" /><rect width="10" height="10" x="270" y="80" fill="#b92b3c" /><rect width="30" height="10" x="30" y="90" fill="#b92b3c" /><rect width="20" height="10" x="60" y="90" fill="#f9e8dd" /><rect width="30" height="10" x="80" y="90" fill="#b92b3c" /><rect width="30" height="10" x="110" y="90" fill="#f9e8dd" /><rect width="10" height="10" x="140" y="90" fill="#b92b3c" /><rect width="20" height="10" x="150" y="90" fill="#f9e8dd" /><rect width="20" height="10" x="170" y="90" fill="#b92b3c" /><rect width="20" height="10" x="190" y="90" fill="#f9e8dd" /><rect width="30" height="10" x="210" y="90" fill="#b92b3c" /><rect width="20" height="10" x="240" y="90" fill="#f9e8dd" /><rect width="10" height="10" x="260" y="90" fill="#b92b3c" /><rect width="40" height="10" x="40" y="100" fill="#b92b3c" /><rect width="30" height="10" x="80" y="100" fill="#ffffff" /><rect width="30" height="10" x="110" y="100" fill="#b92b3c" /><rect width="10" height="10" x="140" y="100" fill="#ffffff" /><rect width="20" height="10" x="150" y="100" fill="#b92b3c" /><rect width="20" height="10" x="170" y="100" fill="#ffffff" /><rect width="20" height="10" x="190" y="100" fill="#b92b3c" /><rect width="30" height="10" x="210" y="100" fill="#ffffff" /><rect width="20" height="10" x="240" y="100" fill="#b92b3c" /><rect width="10" height="10" x="260" y="100" fill="#ffffff" /><rect width="220" height="10" x="50" y="110" fill="#ffffff" /><rect width="220" height="10" x="50" y="120" fill="#ffffff" /><rect width="200" height="10" x="60" y="130" fill="#ffffff" /><rect width="220" height="10" x="50" y="140" fill="#ffffff" /><rect width="220" height="10" x="50" y="150" fill="#ffffff" /><rect width="200" height="10" x="60" y="160" fill="#ffffff" /><rect width="220" height="10" x="50" y="170" fill="#ffffff" /><rect width="100" height="10" x="50" y="180" fill="#ffffff" /><rect width="30" height="10" x="150" y="180" fill="#dcd8d3" /><rect width="90" height="10" x="180" y="180" fill="#ffffff" /><rect width="200" height="10" x="60" y="190" fill="#ffffff" /><rect width="180" height="10" x="70" y="200" fill="#ffffff" /><rect width="60" height="10" x="100" y="110" fill="#d7d3cd" /><rect width="60" height="10" x="170" y="110" fill="#d7d3cd" /><rect width="10" height="10" x="100" y="120" fill="#d7d3cd" /><rect width="20" height="10" x="110" y="120" fill="#fdf8ff" /><rect width="20" height="10" x="130" y="120" fill="#000000" /><rect width="10" height="10" x="150" y="120" fill="#d7d3cd" /><rect width="10" height="10" x="170" y="120" fill="#d7d3cd" /><rect width="20" height="10" x="180" y="120" fill="#fdf8ff" /><rect width="20" height="10" x="200" y="120" fill="#000000" /><rect width="10" height="10" x="220" y="120" fill="#d7d3cd" /><rect width="40" height="10" x="70" y="130" fill="#d7d3cd" /><rect width="20" height="10" x="110" y="130" fill="#fdf8ff" /><rect width="20" height="10" x="130" y="130" fill="#000000" /><rect width="30" height="10" x="150" y="130" fill="#d7d3cd" /><rect width="20" height="10" x="180" y="130" fill="#fdf8ff" /><rect width="20" height="10" x="200" y="130" fill="#000000" /><rect width="10" height="10" x="220" y="130" fill="#d7d3cd" /><rect width="10" height="10" x="70" y="140" fill="#d7d3cd" /><rect width="10" height="10" x="100" y="140" fill="#d7d3cd" /><rect width="20" height="10" x="110" y="140" fill="#fdf8ff" /><rect width="20" height="10" x="130" y="140" fill="#000000" /><rect width="10" height="10" x="150" y="140" fill="#d7d3cd" /><rect width="10" height="10" x="170" y="140" fill="#d7d3cd" /><rect width="20" height="10" x="180" y="140" fill="#fdf8ff" /><rect width="20" height="10" x="200" y="140" fill="#000000" /><rect width="10" height="10" x="220" y="140" fill="#d7d3cd" /><rect width="10" height="10" x="70" y="150" fill="#d7d3cd" /><rect width="10" height="10" x="100" y="150" fill="#d7d3cd" /><rect width="20" height="10" x="110" y="150" fill="#fdf8ff" /><rect width="20" height="10" x="130" y="150" fill="#000000" /><rect width="10" height="10" x="150" y="150" fill="#d7d3cd" /><rect width="10" height="10" x="170" y="150" fill="#d7d3cd" /><rect width="20" height="10" x="180" y="150" fill="#fdf8ff" /><rect width="20" height="10" x="200" y="150" fill="#000000" /><rect width="10" height="10" x="220" y="150" fill="#d7d3cd" /><rect width="60" height="10" x="100" y="160" fill="#d7d3cd" /><rect width="60" height="10" x="170" y="160" fill="#d7d3cd" /></svg>